G04 DesignSpark PCB Gerber Version 12.0 Build 5942*
%FSLAX35Y35*%
%MOMM*%
%ADD23R,3.00000X3.00000*%
%ADD18C,0.45000*%
%ADD21C,0.80000*%
%ADD19C,0.81000*%
%ADD71C,0.81280*%
%ADD79C,1.24000*%
%ADD20C,1.42240*%
%ADD75C,1.75000*%
%ADD22C,4.00000*%
X0Y0D02*
D02*
D18*
X44617770Y47163280D02*
Y46585280D01*
X44749770Y46453280D01*
Y46278280D01*
X44739770Y46268280D01*
D02*
D19*
X43620230Y46453280D02*
Y46673740D01*
X44109770Y47163280D01*
X45529410Y46329770D02*
X45943280D01*
X46469770Y45803280D01*
X46896170D01*
X46899770Y45799680D01*
X46909770D01*
D02*
D71*
X43979770Y44233280D03*
X44739770Y46268280D03*
X47689770Y46623280D03*
Y46833280D03*
D02*
D20*
X44559780Y44603280D03*
X44759770D03*
X45159770D03*
X45359770D03*
X45529410Y46329770D03*
X46909770Y45799680D03*
D02*
D21*
X47701770Y45713280D03*
Y45863280D03*
Y46013280D03*
X47831770Y45713280D03*
Y45863280D03*
Y46013280D03*
D02*
D22*
X43450230Y44225000D03*
Y47215000D03*
X48000230Y44225000D03*
Y47215000D03*
D02*
D23*
X43619770Y44953280D03*
Y45453280D03*
X43620230Y45953280D03*
Y46453280D03*
D02*
D75*
X44109770Y47163280D03*
X44617770D03*
D02*
D79*
X44899770Y47213280D03*
X44959770Y44603280D03*
X47501310Y46333280D03*
X47519770Y44783280D03*
X47779770Y46343280D03*
X48039770Y46353280D03*
X0Y0D02*
M02*
