G04 DesignSpark PCB Gerber Version 12.0 Build 5942*
%FSLAX35Y35*%
%MOMM*%
%ADD23R,3.00000X3.00000*%
%ADD133C,0.00001*%
%ADD21C,0.80000*%
%ADD71C,0.81280*%
%ADD79C,1.24000*%
%ADD20C,1.42240*%
%ADD75C,1.75000*%
%ADD22C,4.00000*%
X0Y0D02*
D02*
D71*
X43979770Y44233280D03*
X44739770Y46268280D03*
X47689770Y46623280D03*
Y46833280D03*
D02*
D20*
X44559780Y44603280D03*
X44759770D03*
X45159770D03*
X45359770D03*
X45529410Y46329770D03*
X46909770Y45799680D03*
D02*
D21*
X47701770Y45713280D03*
Y45863280D03*
Y46013280D03*
X47831770Y45713280D03*
Y45863280D03*
Y46013280D03*
D02*
D22*
X43450230Y44225000D03*
Y47215000D03*
X48000230Y44225000D03*
Y47215000D03*
D02*
D23*
X43619770Y44953280D03*
Y45453280D03*
X43620230Y45953280D03*
Y46453280D03*
D02*
D75*
X44109770Y47163280D03*
X44617770D03*
D02*
D79*
X44899770Y47213280D03*
X44959770Y44603280D03*
X47501310Y46333280D03*
X47519770Y44783280D03*
X47779770Y46343280D03*
X48039770Y46353280D03*
D02*
D133*
X43203580Y47205000D02*
Y44235000D01*
G75*
G03*
X43440230Y43998350I236650J0D01*
G01*
X47999770D01*
G75*
G03*
X48236420Y44235000I0J236650D01*
G01*
Y47205000D01*
G75*
G03*
X47999770Y47441650I-236650J0D01*
G01*
X43440230D01*
G75*
G03*
X43203580Y47205000I0J-236650D01*
G01*
X43921350Y44233280D02*
G75*
G02*
X44038190I58420J0D01*
G01*
G75*
G02*
X43921350I-58420J0D01*
G01*
X44109770Y47268560D02*
G75*
G02*
X44215050Y47163280I0J-105280D01*
G01*
G75*
G02*
X44109770Y47058000I-105280J0D01*
G01*
G75*
G02*
X44004490Y47163280I0J105280D01*
G01*
G75*
G02*
X44109770Y47268560I105280J0D01*
G01*
X44493980Y44576280D02*
G75*
G03*
X44532780Y44537480I65800J27000D01*
G01*
Y44490340D01*
G75*
G02*
X44446840Y44576280I27000J112940D01*
G01*
X44493980D01*
X44532780Y44716220D02*
Y44669080D01*
G75*
G03*
X44493980Y44630280I27000J-65800D01*
G01*
X44446840D01*
G75*
G02*
X44532780Y44716220I112940J-27000D01*
G01*
X44617770Y47268560D02*
G75*
G02*
X44723050Y47163280I0J-105280D01*
G01*
G75*
G02*
X44617770Y47058000I-105280J0D01*
G01*
G75*
G02*
X44512490Y47163280I0J105280D01*
G01*
G75*
G02*
X44617770Y47268560I105280J0D01*
G01*
X44681350Y46268280D02*
G75*
G02*
X44798190I58420J0D01*
G01*
G75*
G02*
X44681350I-58420J0D01*
G01*
X44786770Y44537480D02*
G75*
G03*
X44825570Y44576280I-27000J65800D01*
G01*
X44856230D01*
X44872710D01*
X44903960D01*
G75*
G03*
X44932770Y44547470I55810J27000D01*
G01*
Y44499740D01*
G75*
G02*
X44864860Y44553870I27000J103540D01*
G01*
G75*
G02*
X44786770Y44490340I-105090J49410D01*
G01*
Y44537480D01*
Y44716220D02*
G75*
G02*
X44864860Y44652690I-27000J-112940D01*
G01*
G75*
G02*
X44932770Y44706820I94910J-49410D01*
G01*
Y44659090D01*
G75*
G03*
X44903960Y44630280I27000J-55810D01*
G01*
X44872710D01*
X44856230D01*
X44825570D01*
G75*
G03*
X44786770Y44669080I-65800J-27000D01*
G01*
Y44716220D01*
X44586780Y44537480D02*
G75*
G03*
X44625580Y44576280I-27000J65800D01*
G01*
X44646830D01*
X44672720D01*
X44693970D01*
G75*
G03*
X44732770Y44537480I65800J27000D01*
G01*
Y44490340D01*
G75*
G02*
X44659780Y44544240I27000J112940D01*
G01*
G75*
G02*
X44586780Y44490340I-99990J59040D01*
G01*
Y44537480D01*
Y44716220D02*
G75*
G02*
X44659780Y44662320I-26990J-112940D01*
G01*
G75*
G02*
X44732770Y44716220I99990J-59040D01*
G01*
Y44669080D01*
G75*
G03*
X44693970Y44630280I27000J-65800D01*
G01*
X44672720D01*
X44646830D01*
X44625580D01*
G75*
G03*
X44586780Y44669080I-65800J-27000D01*
G01*
Y44716220D01*
X44899770Y47293060D02*
G75*
G02*
X44979550Y47213280I0J-79780D01*
G01*
G75*
G02*
X44899770Y47133500I-79780J0D01*
G01*
G75*
G02*
X44819990Y47213280I0J79780D01*
G01*
G75*
G02*
X44899770Y47293060I79780J0D01*
G01*
X44986770Y44547470D02*
G75*
G03*
X45015580Y44576280I-27000J55810D01*
G01*
X45046830D01*
X45063310D01*
X45093970D01*
G75*
G03*
X45132770Y44537480I65800J27000D01*
G01*
Y44490340D01*
G75*
G02*
X45054680Y44553870I27000J112940D01*
G01*
G75*
G02*
X44986770Y44499740I-94910J49410D01*
G01*
Y44547470D01*
Y44706820D02*
G75*
G02*
X45054680Y44652690I-27000J-103540D01*
G01*
G75*
G02*
X45132770Y44716220I105090J-49410D01*
G01*
Y44669080D01*
G75*
G03*
X45093970Y44630280I27000J-65800D01*
G01*
X45063310D01*
X45046830D01*
X45015580D01*
G75*
G03*
X44986770Y44659090I-55810J-27000D01*
G01*
Y44706820D01*
X45186770Y44537480D02*
G75*
G03*
X45225570Y44576280I-27000J65800D01*
G01*
X45246830D01*
X45272710D01*
X45293970D01*
G75*
G03*
X45332770Y44537480I65800J27000D01*
G01*
Y44490340D01*
G75*
G02*
X45259770Y44544250I27000J112940D01*
G01*
G75*
G02*
X45186770Y44490340I-100000J59030D01*
G01*
Y44537480D01*
Y44716220D02*
G75*
G02*
X45259770Y44662310I-27000J-112940D01*
G01*
G75*
G02*
X45332770Y44716220I100000J-59030D01*
G01*
Y44669080D01*
G75*
G03*
X45293970Y44630280I27000J-65800D01*
G01*
X45272710D01*
X45246830D01*
X45225570D01*
G75*
G03*
X45186770Y44669080I-65800J-27000D01*
G01*
Y44716220D01*
X45386770Y44537480D02*
G75*
G03*
X45425570Y44576280I-27000J65800D01*
G01*
X45472710D01*
G75*
G02*
X45386770Y44490340I-112940J27000D01*
G01*
Y44537480D01*
Y44716220D02*
G75*
G02*
X45472710Y44630280I-27000J-112940D01*
G01*
X45425570D01*
G75*
G03*
X45386770Y44669080I-65800J-27000D01*
G01*
Y44716220D01*
X45440510Y46329770D02*
G75*
G02*
X45618310I88900J0D01*
G01*
G75*
G02*
X45440510I-88900J0D01*
G01*
X46820870Y45799680D02*
G75*
G02*
X46998670I88900J0D01*
G01*
G75*
G02*
X46820870I-88900J0D01*
G01*
X47421530Y46333280D02*
G75*
G02*
X47581090I79780J0D01*
G01*
G75*
G02*
X47421530I-79780J0D01*
G01*
X47439990Y44783280D02*
G75*
G02*
X47599550I79780J0D01*
G01*
G75*
G02*
X47439990I-79780J0D01*
G01*
X47659400Y46806280D02*
G75*
G03*
X47662770Y46802910I30370J27000D01*
G01*
Y46752010D01*
G75*
G02*
X47608500Y46806280I27000J81270D01*
G01*
X47659400D01*
X47631350Y46623280D02*
G75*
G02*
X47748190I58420J0D01*
G01*
G75*
G02*
X47631350I-58420J0D01*
G01*
X47643990Y45713280D02*
G75*
G02*
X47759550I57780J0D01*
G01*
G75*
G02*
X47643990I-57780J0D01*
G01*
Y45863280D02*
G75*
G02*
X47759550I57780J0D01*
G01*
G75*
G02*
X47643990I-57780J0D01*
G01*
Y46013280D02*
G75*
G02*
X47759550I57780J0D01*
G01*
G75*
G02*
X47643990I-57780J0D01*
G01*
X47699990Y46343280D02*
G75*
G02*
X47859550I79780J0D01*
G01*
G75*
G02*
X47699990I-79780J0D01*
G01*
X47773990Y45713280D02*
G75*
G02*
X47889550I57780J0D01*
G01*
G75*
G02*
X47773990I-57780J0D01*
G01*
X47782450Y44225000D02*
G75*
G02*
X48218010I217780J0D01*
G01*
G75*
G02*
X47782450I-217780J0D01*
G01*
X47773990Y45863280D02*
G75*
G02*
X47889550I57780J0D01*
G01*
G75*
G02*
X47773990I-57780J0D01*
G01*
Y46013280D02*
G75*
G02*
X47889550I57780J0D01*
G01*
G75*
G02*
X47773990I-57780J0D01*
G01*
X47662770Y46914550D02*
Y46863650D01*
G75*
G03*
X47659400Y46860280I27000J-30370D01*
G01*
X47608500D01*
G75*
G02*
X47662770Y46914550I81270J-27000D01*
G01*
X47716770Y46802910D02*
G75*
G03*
X47720140Y46806280I-27000J30370D01*
G01*
X47771040D01*
G75*
G02*
X47716770Y46752010I-81270J27000D01*
G01*
Y46802910D01*
Y46914550D02*
G75*
G02*
X47771040Y46860280I-27000J-81270D01*
G01*
X47720140D01*
G75*
G03*
X47716770Y46863650I-30370J-27000D01*
G01*
Y46914550D01*
X47782450Y47215000D02*
G75*
G02*
X48218010I217780J0D01*
G01*
G75*
G02*
X47782450I-217780J0D01*
G01*
X47959990Y46353280D02*
G75*
G02*
X48119550I79780J0D01*
G01*
G75*
G02*
X47959990I-79780J0D01*
G01*
X43232450Y44225000D02*
G75*
G02*
X43668010I217780J0D01*
G01*
G75*
G02*
X43232450I-217780J0D01*
G01*
Y47215000D02*
G75*
G02*
X43668010I217780J0D01*
G01*
G75*
G02*
X43232450I-217780J0D01*
G01*
X43424770Y44926280D02*
X43469770D01*
Y44803280D01*
X43592770D01*
Y44758280D01*
X43424770D01*
Y44926280D01*
Y45148280D02*
X43592770D01*
Y45103280D01*
X43469770D01*
Y44980280D01*
X43424770D01*
Y45148280D01*
X43451990Y45621060D02*
X43787550D01*
Y45285500D01*
X43451990D01*
Y45621060D01*
X43646770Y44803280D02*
X43769770D01*
Y44926280D01*
X43814770D01*
Y44758280D01*
X43646770D01*
Y44803280D01*
Y45148280D02*
X43814770D01*
Y44980280D01*
X43769770D01*
Y45103280D01*
X43646770D01*
Y45148280D01*
X43452450Y46121060D02*
X43788010D01*
Y45785500D01*
X43452450D01*
Y46121060D01*
Y46621060D02*
X43788010D01*
Y46285500D01*
X43452450D01*
Y46621060D01*
X43232450Y44225000D02*
G36*
X43232450Y44225000D02*
G75*
G02*
X43232610Y44233280I217870J-70D01*
G01*
X43203590D01*
G75*
G03*
X43440210Y43998350I236630J1710D01*
G01*
X43440230D01*
X47999770D01*
X47999790D01*
G75*
G03*
X48236410Y44233280I-10J236640D01*
G01*
X48217850D01*
G75*
G02*
X48218010Y44225000I-217710J-8350D01*
G01*
G75*
G02*
X47782450I-217780J0D01*
G01*
G75*
G02*
X47782610Y44233280I217870J-70D01*
G01*
X44038190D01*
G75*
G02*
X43921350I-58420J0D01*
G01*
X43667850D01*
G75*
G02*
X43668010Y44225000I-217710J-8350D01*
G01*
G75*
G02*
X43232450I-217780J0D01*
G01*
G37*
X43203580Y44235000D02*
G36*
X43203580Y44235000D02*
Y44234980D01*
G75*
G03*
X43203590Y44233280I236990J540D01*
G01*
X43232610D01*
G75*
G02*
X43667850I217620J-8280D01*
G01*
X43921350D01*
G75*
G02*
X44038190I58420J0D01*
G01*
X47782610D01*
G75*
G02*
X48217850I217620J-8280D01*
G01*
X48236410D01*
G75*
G03*
X48236420Y44234980I-236980J2240D01*
G01*
Y44235000D01*
Y44533310D01*
X45452440D01*
G75*
G02*
X45386770Y44490340I-92680J69970D01*
G01*
Y44533310D01*
X45332770D01*
Y44490340D01*
G75*
G02*
X45267100Y44533310I27030J112970D01*
G01*
X45252440D01*
G75*
G02*
X45186770Y44490340I-92700J70000D01*
G01*
Y44533310D01*
X45132770D01*
Y44490340D01*
G75*
G02*
X45067090Y44533310I26970J112910D01*
G01*
X45040720D01*
G75*
G02*
X44986770Y44499740I-80990J70020D01*
G01*
Y44533310D01*
X44932770D01*
Y44499740D01*
G75*
G02*
X44878820Y44533310I27040J103590D01*
G01*
X44852450D01*
G75*
G02*
X44786770Y44490340I-92650J69940D01*
G01*
Y44533310D01*
X44732770D01*
Y44490340D01*
G75*
G02*
X44667100Y44533310I27020J112960D01*
G01*
X44652460D01*
G75*
G02*
X44586780Y44490340I-92720J70040D01*
G01*
Y44533310D01*
X44532780D01*
Y44490340D01*
G75*
G02*
X44467110Y44533310I27010J112940D01*
G01*
X43203580D01*
Y44235000D01*
G37*
Y44673250D02*
G36*
X43203580Y44673250D02*
Y44533310D01*
X44467110D01*
G75*
G02*
X44446840Y44576280I92680J69990D01*
G01*
X44493980D01*
G75*
G03*
X44532780Y44537480I65830J27030D01*
G01*
Y44533310D01*
X44586780D01*
Y44537480D01*
G75*
G03*
X44625580Y44576280I-27030J65830D01*
G01*
X44646830D01*
X44672720D01*
X44693970D01*
G75*
G03*
X44732770Y44537480I65830J27030D01*
G01*
Y44533310D01*
X44786770D01*
Y44537480D01*
G75*
G03*
X44825570Y44576280I-27030J65830D01*
G01*
X44856230D01*
X44872710D01*
X44903960D01*
G75*
G03*
X44932770Y44547470I55800J26990D01*
G01*
Y44533310D01*
X44986770D01*
Y44547470D01*
G75*
G03*
X45015580Y44576280I-26990J55800D01*
G01*
X45046830D01*
X45063310D01*
X45093970D01*
G75*
G03*
X45132770Y44537480I65830J27030D01*
G01*
Y44533310D01*
X45186770D01*
Y44537480D01*
G75*
G03*
X45225570Y44576280I-27030J65830D01*
G01*
X45246830D01*
X45272710D01*
X45293970D01*
G75*
G03*
X45332770Y44537480I65830J27030D01*
G01*
Y44533310D01*
X45386770D01*
Y44537480D01*
G75*
G03*
X45425570Y44576280I-27030J65830D01*
G01*
X45472710D01*
G75*
G02*
X45452440Y44533310I-112950J27020D01*
G01*
X48236420D01*
Y44673250D01*
X45452440D01*
G75*
G02*
X45472710Y44630280I-92680J-69990D01*
G01*
X45425570D01*
G75*
G03*
X45386770Y44669080I-65830J-27030D01*
G01*
Y44673250D01*
X45332770D01*
Y44669080D01*
G75*
G03*
X45293970Y44630280I27030J-65830D01*
G01*
X45272710D01*
X45246830D01*
X45225570D01*
G75*
G03*
X45186770Y44669080I-65830J-27030D01*
G01*
Y44673250D01*
X45132770D01*
Y44669080D01*
G75*
G03*
X45093970Y44630280I27030J-65830D01*
G01*
X45063310D01*
X45046830D01*
X45015580D01*
G75*
G03*
X44986770Y44659090I-55800J-26990D01*
G01*
Y44673250D01*
X44932770D01*
Y44659090D01*
G75*
G03*
X44903960Y44630280I26990J-55800D01*
G01*
X44872710D01*
X44856230D01*
X44825570D01*
G75*
G03*
X44786770Y44669080I-65830J-27030D01*
G01*
Y44673250D01*
X44732770D01*
Y44669080D01*
G75*
G03*
X44693970Y44630280I27030J-65830D01*
G01*
X44672720D01*
X44646830D01*
X44625580D01*
G75*
G03*
X44586780Y44669080I-65830J-27030D01*
G01*
Y44673250D01*
X44532780D01*
Y44669080D01*
G75*
G03*
X44493980Y44630280I27030J-65830D01*
G01*
X44446840D01*
G75*
G02*
X44467110Y44673250I112950J-27020D01*
G01*
X43203580D01*
G37*
X44659780Y44544240D02*
G36*
X44659780Y44544240D02*
G75*
G02*
X44652460Y44533310I-100050J59090D01*
G01*
X44667100D01*
G75*
G02*
X44659780Y44544240I92700J70000D01*
G01*
G37*
X44652460Y44673250D02*
G36*
X44652460Y44673250D02*
G75*
G02*
X44659780Y44662320I-92670J-69980D01*
G01*
G75*
G02*
X44667100Y44673250I100020J-59070D01*
G01*
X44652460D01*
G37*
X44864860Y44553870D02*
G36*
X44864860Y44553870D02*
G75*
G02*
X44852450Y44533310I-105070J49390D01*
G01*
X44878820D01*
G75*
G02*
X44864860Y44553870I80990J70010D01*
G01*
G37*
X44852450Y44673250D02*
G36*
X44852450Y44673250D02*
G75*
G02*
X44864860Y44652690I-92660J-69950D01*
G01*
G75*
G02*
X44878820Y44673250I94950J-49450D01*
G01*
X44852450D01*
G37*
X45054680Y44553870D02*
G36*
X45054680Y44553870D02*
G75*
G02*
X45040720Y44533310I-94950J49450D01*
G01*
X45067090D01*
G75*
G02*
X45054680Y44553870I92660J69950D01*
G01*
G37*
X45040720Y44673250D02*
G36*
X45040720Y44673250D02*
G75*
G02*
X45054680Y44652690I-80990J-70010D01*
G01*
G75*
G02*
X45067090Y44673250I105070J-49390D01*
G01*
X45040720D01*
G37*
X45259770Y44544250D02*
G36*
X45259770Y44544250D02*
G75*
G02*
X45252440Y44533310I-100040J59100D01*
G01*
X45267100D01*
G75*
G02*
X45259770Y44544250I92710J70040D01*
G01*
G37*
X45252440Y44673250D02*
G36*
X45252440Y44673250D02*
G75*
G02*
X45259770Y44662310I-92710J-70040D01*
G01*
G75*
G02*
X45267100Y44673250I100040J-59100D01*
G01*
X45252440D01*
G37*
X43203580Y44783280D02*
G36*
X43203580Y44783280D02*
Y44673250D01*
X44467110D01*
G75*
G02*
X44532780Y44716220I92680J-69970D01*
G01*
Y44673250D01*
X44586780D01*
Y44716220D01*
G75*
G02*
X44652460Y44673250I-26980J-112920D01*
G01*
X44667100D01*
G75*
G02*
X44732770Y44716220I92690J-69990D01*
G01*
Y44673250D01*
X44786770D01*
Y44716220D01*
G75*
G02*
X44852450Y44673250I-26970J-112910D01*
G01*
X44878820D01*
G75*
G02*
X44932770Y44706820I80990J-70020D01*
G01*
Y44673250D01*
X44986770D01*
Y44706820D01*
G75*
G02*
X45040720Y44673250I-27040J-103590D01*
G01*
X45067090D01*
G75*
G02*
X45132770Y44716220I92650J-69940D01*
G01*
Y44673250D01*
X45186770D01*
Y44716220D01*
G75*
G02*
X45252440Y44673250I-27030J-112970D01*
G01*
X45267100D01*
G75*
G02*
X45332770Y44716220I92700J-70000D01*
G01*
Y44673250D01*
X45386770D01*
Y44716220D01*
G75*
G02*
X45452440Y44673250I-27010J-112940D01*
G01*
X48236420D01*
Y44783280D01*
X47599550D01*
G75*
G02*
X47439990I-79780J0D01*
G01*
X43814770D01*
Y44758280D01*
X43646770D01*
Y44783280D01*
X43592770D01*
Y44758280D01*
X43424770D01*
Y44783280D01*
X43203580D01*
G37*
Y45064280D02*
G36*
X43203580Y45064280D02*
Y44783280D01*
X43424770D01*
Y44926280D01*
X43469770D01*
Y44803280D01*
X43592770D01*
Y44783280D01*
X43646770D01*
Y44803280D01*
X43769770D01*
Y44926280D01*
X43814770D01*
Y44783280D01*
X47439990D01*
G75*
G02*
X47599550I79780J0D01*
G01*
X48236420D01*
Y45064280D01*
X43814770D01*
Y44980280D01*
X43769770D01*
Y45064280D01*
X43469770D01*
Y44980280D01*
X43424770D01*
Y45064280D01*
X43203580D01*
G37*
Y45453280D02*
G36*
X43203580Y45453280D02*
Y45064280D01*
X43424770D01*
Y45148280D01*
X43592770D01*
Y45103280D01*
X43469770D01*
Y45064280D01*
X43769770D01*
Y45103280D01*
X43646770D01*
Y45148280D01*
X43814770D01*
Y45064280D01*
X48236420D01*
Y45453280D01*
X43787550D01*
Y45285500D01*
X43451990D01*
Y45453280D01*
X43203580D01*
G37*
Y45713280D02*
G36*
X43203580Y45713280D02*
Y45453280D01*
X43451990D01*
Y45621060D01*
X43787550D01*
Y45453280D01*
X48236420D01*
Y45713280D01*
X47889550D01*
G75*
G02*
X47773990I-57780J0D01*
G01*
X47759550D01*
G75*
G02*
X47643990I-57780J0D01*
G01*
X46930700D01*
G75*
G02*
X46888840I-20930J86380D01*
G01*
X43203580D01*
G37*
Y45799680D02*
G36*
X43203580Y45799680D02*
Y45713280D01*
X46888840D01*
G75*
G02*
X46820870Y45799680I20930J86400D01*
G01*
X43788010D01*
Y45785500D01*
X43452450D01*
Y45799680D01*
X43203580D01*
G37*
X46998670D02*
G36*
X46998670Y45799680D02*
G75*
G02*
X46930700Y45713280I-88900J0D01*
G01*
X47643990D01*
G75*
G02*
X47759550I57780J0D01*
G01*
X47773990D01*
G75*
G02*
X47889550I57780J0D01*
G01*
X48236420D01*
Y45799680D01*
X46998670D01*
G37*
X43203580Y45863280D02*
G36*
X43203580Y45863280D02*
Y45799680D01*
X43452450D01*
Y45863280D01*
X43203580D01*
G37*
X43788010D02*
G36*
X43788010Y45863280D02*
Y45799680D01*
X46820870D01*
G75*
G02*
X46847660Y45863280I88900J-10D01*
G01*
X43788010D01*
G37*
X46971880D02*
G36*
X46971880Y45863280D02*
G75*
G02*
X46998670Y45799680I-62110J-63610D01*
G01*
X48236420D01*
Y45863280D01*
X47889550D01*
G75*
G02*
X47773990I-57780J0D01*
G01*
X47759550D01*
G75*
G02*
X47643990I-57780J0D01*
G01*
X46971880D01*
G37*
X43203580Y46013280D02*
G36*
X43203580Y46013280D02*
Y45863280D01*
X43452450D01*
Y46013280D01*
X43203580D01*
G37*
X43788010D02*
G36*
X43788010Y46013280D02*
Y45863280D01*
X46847660D01*
G75*
G02*
X46971880I62110J-63600D01*
G01*
X47643990D01*
G75*
G02*
X47759550I57780J0D01*
G01*
X47773990D01*
G75*
G02*
X47889550I57780J0D01*
G01*
X48236420D01*
Y46013280D01*
X47889550D01*
G75*
G02*
X47773990I-57780J0D01*
G01*
X47759550D01*
G75*
G02*
X47643990I-57780J0D01*
G01*
X43788010D01*
G37*
X43203580Y46268280D02*
G36*
X43203580Y46268280D02*
Y46013280D01*
X43452450D01*
Y46121060D01*
X43788010D01*
Y46013280D01*
X47643990D01*
G75*
G02*
X47759550I57780J0D01*
G01*
X47773990D01*
G75*
G02*
X47889550I57780J0D01*
G01*
X48236420D01*
Y46268280D01*
X47806970D01*
G75*
G02*
X47752570I-27200J75000D01*
G01*
X47547570D01*
G75*
G02*
X47455050I-46260J65000D01*
G01*
X45593610D01*
G75*
G02*
X45465210I-64200J61490D01*
G01*
X44798190D01*
G75*
G02*
X44681350I-58420J0D01*
G01*
X43203580D01*
G37*
Y46353280D02*
G36*
X43203580Y46353280D02*
Y46268280D01*
X44681350D01*
G75*
G02*
X44798190I58420J0D01*
G01*
X45465210D01*
G75*
G02*
X45440510Y46329770I64200J61500D01*
G01*
G75*
G02*
X45443680Y46353280I88910J-20D01*
G01*
X43788010D01*
Y46285500D01*
X43452450D01*
Y46353280D01*
X43203580D01*
G37*
X45618310Y46329770D02*
G36*
X45618310Y46329770D02*
G75*
G02*
X45593610Y46268280I-88900J10D01*
G01*
X47455050D01*
G75*
G02*
X47421530Y46333280I46260J65000D01*
G01*
G75*
G02*
X47424080Y46353280I79780J-10D01*
G01*
X45615140D01*
G75*
G02*
X45618310Y46329770I-85740J-23530D01*
G01*
G37*
X47581090Y46333280D02*
G36*
X47581090Y46333280D02*
G75*
G02*
X47547570Y46268280I-79780J0D01*
G01*
X47752570D01*
G75*
G02*
X47699990Y46343280I27200J75000D01*
G01*
G75*
G02*
X47700620Y46353280I79790J-10D01*
G01*
X47578540D01*
G75*
G02*
X47581090Y46333280I-77230J-20010D01*
G01*
G37*
X47859550Y46343280D02*
G36*
X47859550Y46343280D02*
G75*
G02*
X47806970Y46268280I-79780J0D01*
G01*
X48236420D01*
Y46353280D01*
X48119550D01*
G75*
G02*
X47959990I-79780J0D01*
G01*
X47858920D01*
G75*
G02*
X47859550Y46343280I-79160J-10010D01*
G01*
G37*
X43203580Y46623280D02*
G36*
X43203580Y46623280D02*
Y46353280D01*
X43452450D01*
Y46621060D01*
X43788010D01*
Y46353280D01*
X45443680D01*
G75*
G02*
X45615140I85730J-23510D01*
G01*
X47424080D01*
G75*
G02*
X47578540I77230J-20000D01*
G01*
X47700620D01*
G75*
G02*
X47858920I79150J-10000D01*
G01*
X47959990D01*
G75*
G02*
X48119550I79780J0D01*
G01*
X48236420D01*
Y46623280D01*
X47748190D01*
G75*
G02*
X47631350I-58420J0D01*
G01*
X43203580D01*
G37*
Y46779140D02*
G36*
X43203580Y46779140D02*
Y46623280D01*
X47631350D01*
G75*
G02*
X47748190I58420J0D01*
G01*
X48236420D01*
Y46779140D01*
X47756120D01*
G75*
G02*
X47716770Y46752010I-66350J54140D01*
G01*
Y46779140D01*
X47662770D01*
Y46752010D01*
G75*
G02*
X47623420Y46779140I27000J81270D01*
G01*
X43203580D01*
G37*
Y46887410D02*
G36*
X43203580Y46887410D02*
Y46779140D01*
X47623420D01*
G75*
G02*
X47608500Y46806280I66350J54150D01*
G01*
X47659400D01*
G75*
G03*
X47662770Y46802910I33210J29840D01*
G01*
Y46779140D01*
X47716770D01*
Y46802910D01*
G75*
G03*
X47720140Y46806280I-29840J33210D01*
G01*
X47771040D01*
G75*
G02*
X47756120Y46779140I-81270J27010D01*
G01*
X48236420D01*
Y46887410D01*
X47756130D01*
G75*
G02*
X47771040Y46860280I-66360J-54130D01*
G01*
X47720140D01*
G75*
G03*
X47716770Y46863650I-33210J-29840D01*
G01*
Y46887410D01*
X47662770D01*
Y46863650D01*
G75*
G03*
X47659400Y46860280I29840J-33210D01*
G01*
X47608500D01*
G75*
G02*
X47623410Y46887410I81270J-27000D01*
G01*
X43203580D01*
G37*
Y47163280D02*
G36*
X43203580Y47163280D02*
Y46887410D01*
X47623410D01*
G75*
G02*
X47662770Y46914550I66360J-54130D01*
G01*
Y46887410D01*
X47716770D01*
Y46914550D01*
G75*
G02*
X47756130Y46887410I-27000J-81270D01*
G01*
X48236420D01*
Y47163280D01*
X48211780D01*
G75*
G02*
X47788680I-211550J51720D01*
G01*
X44961930D01*
G75*
G02*
X44899770Y47133500I-62170J50010D01*
G01*
G75*
G02*
X44837610Y47163280I10J79790D01*
G01*
X44723050D01*
G75*
G02*
X44617770Y47058000I-105280J0D01*
G01*
G75*
G02*
X44512490Y47163280I0J105280D01*
G01*
X44215050D01*
G75*
G02*
X44109770Y47058000I-105280J0D01*
G01*
G75*
G02*
X44004490Y47163280I0J105280D01*
G01*
X43661780D01*
G75*
G02*
X43238680I-211550J51720D01*
G01*
X43203580D01*
G37*
Y47205000D02*
G36*
X43203580Y47205000D02*
Y47163280D01*
X43238680D01*
G75*
G02*
X43232450Y47215000I211550J51720D01*
G01*
G75*
G02*
X43668010I217780J0D01*
G01*
G75*
G02*
X43661780Y47163280I-217780J0D01*
G01*
X44004490D01*
G75*
G02*
X44109770Y47268560I105280J0D01*
G01*
G75*
G02*
X44215050Y47163280I0J-105280D01*
G01*
X44512490D01*
G75*
G02*
X44617770Y47268560I105280J0D01*
G01*
G75*
G02*
X44723050Y47163280I0J-105280D01*
G01*
X44837610D01*
G75*
G02*
X44819990Y47213280I62170J50010D01*
G01*
G75*
G02*
X44899770Y47293060I79780J0D01*
G01*
G75*
G02*
X44979550Y47213280I0J-79780D01*
G01*
G75*
G02*
X44961930Y47163280I-79790J10D01*
G01*
X47788680D01*
G75*
G02*
X47782450Y47215000I211550J51720D01*
G01*
G75*
G02*
X48218010I217780J0D01*
G01*
G75*
G02*
X48211780Y47163280I-217780J0D01*
G01*
X48236420D01*
Y47205000D01*
Y47205020D01*
G75*
G03*
X47999790Y47441650I-236630J0D01*
G01*
X47999770D01*
X43440230D01*
X43440210D01*
G75*
G03*
X43203580Y47205020I0J-236630D01*
G01*
Y47205000D01*
G37*
X0Y0D02*
M02*
