G04 DesignSpark PCB Gerber Version 12.0 Build 5942*
%FSLAX35Y35*%
%MOMM*%
%ADD23R,3.00000X3.00000*%
%ADD135C,0.00001*%
%ADD21C,0.80000*%
%ADD71C,0.81280*%
%ADD79C,1.24000*%
%ADD20C,1.42240*%
%ADD75C,1.75000*%
%ADD22C,4.00000*%
X0Y0D02*
D02*
D71*
X845890Y304630D03*
X1605890Y2339630D03*
X4555890Y2694630D03*
Y2904630D03*
D02*
D20*
X1425900Y674630D03*
X1625890D03*
X2025890D03*
X2225890D03*
X2395530Y2401120D03*
X3775890Y1871030D03*
D02*
D21*
X4567890Y1784630D03*
Y1934630D03*
Y2084630D03*
X4697890Y1784630D03*
Y1934630D03*
Y2084630D03*
D02*
D22*
X316350Y296350D03*
Y3286350D03*
X4866350Y296350D03*
Y3286350D03*
D02*
D23*
X485890Y1024630D03*
Y1524630D03*
X486350Y2024630D03*
Y2524630D03*
D02*
D75*
X975890Y3234630D03*
X1483890D03*
D02*
D79*
X1765890Y3284630D03*
X1825890Y674630D03*
X4367430Y2404630D03*
X4385890Y854630D03*
X4645890Y2414630D03*
X4905890Y2424630D03*
D02*
D135*
X69700Y3276350D02*
Y306350D01*
G75*
G03*
X306350Y69700I236650J0D01*
G01*
X4865890D01*
G75*
G03*
X5102540Y306350I0J236650D01*
G01*
Y3276350D01*
G75*
G03*
X4865890Y3513000I-236650J0D01*
G01*
X306350D01*
G75*
G03*
X69700Y3276350I0J-236650D01*
G01*
X787470Y304630D02*
G75*
G02*
X904310I58420J0D01*
G01*
G75*
G02*
X787470I-58420J0D01*
G01*
X975890Y3339910D02*
G75*
G02*
X1081170Y3234630I0J-105280D01*
G01*
G75*
G02*
X975890Y3129350I-105280J0D01*
G01*
G75*
G02*
X870610Y3234630I0J105280D01*
G01*
G75*
G02*
X975890Y3339910I105280J0D01*
G01*
X1360100Y647630D02*
G75*
G03*
X1398900Y608830I65800J27000D01*
G01*
Y561690D01*
G75*
G02*
X1312960Y647630I27000J112940D01*
G01*
X1360100D01*
X1398900Y787570D02*
Y740430D01*
G75*
G03*
X1360100Y701630I27000J-65800D01*
G01*
X1312960D01*
G75*
G02*
X1398900Y787570I112940J-27000D01*
G01*
X1483890Y3339910D02*
G75*
G02*
X1589170Y3234630I0J-105280D01*
G01*
G75*
G02*
X1483890Y3129350I-105280J0D01*
G01*
G75*
G02*
X1378610Y3234630I0J105280D01*
G01*
G75*
G02*
X1483890Y3339910I105280J0D01*
G01*
X1547470Y2339630D02*
G75*
G02*
X1664310I58420J0D01*
G01*
G75*
G02*
X1547470I-58420J0D01*
G01*
X1652890Y608830D02*
G75*
G03*
X1691690Y647630I-27000J65800D01*
G01*
X1722350D01*
X1738830D01*
X1770080D01*
G75*
G03*
X1798890Y618820I55810J27000D01*
G01*
Y571090D01*
G75*
G02*
X1730980Y625220I27000J103540D01*
G01*
G75*
G02*
X1652890Y561690I-105090J49410D01*
G01*
Y608830D01*
Y787570D02*
G75*
G02*
X1730980Y724040I-27000J-112940D01*
G01*
G75*
G02*
X1798890Y778170I94910J-49410D01*
G01*
Y730440D01*
G75*
G03*
X1770080Y701630I27000J-55810D01*
G01*
X1738830D01*
X1722350D01*
X1691690D01*
G75*
G03*
X1652890Y740430I-65800J-27000D01*
G01*
Y787570D01*
X1452900Y608830D02*
G75*
G03*
X1491700Y647630I-27000J65800D01*
G01*
X1512950D01*
X1538840D01*
X1560090D01*
G75*
G03*
X1598890Y608830I65800J27000D01*
G01*
Y561690D01*
G75*
G02*
X1525900Y615590I27000J112940D01*
G01*
G75*
G02*
X1452900Y561690I-99990J59040D01*
G01*
Y608830D01*
Y787570D02*
G75*
G02*
X1525900Y733670I-26990J-112940D01*
G01*
G75*
G02*
X1598890Y787570I99990J-59040D01*
G01*
Y740430D01*
G75*
G03*
X1560090Y701630I27000J-65800D01*
G01*
X1538840D01*
X1512950D01*
X1491700D01*
G75*
G03*
X1452900Y740430I-65800J-27000D01*
G01*
Y787570D01*
X1765890Y3364410D02*
G75*
G02*
X1845670Y3284630I0J-79780D01*
G01*
G75*
G02*
X1765890Y3204850I-79780J0D01*
G01*
G75*
G02*
X1686110Y3284630I0J79780D01*
G01*
G75*
G02*
X1765890Y3364410I79780J0D01*
G01*
X1852890Y618820D02*
G75*
G03*
X1881700Y647630I-27000J55810D01*
G01*
X1912950D01*
X1929430D01*
X1960090D01*
G75*
G03*
X1998890Y608830I65800J27000D01*
G01*
Y561690D01*
G75*
G02*
X1920800Y625220I27000J112940D01*
G01*
G75*
G02*
X1852890Y571090I-94910J49410D01*
G01*
Y618820D01*
Y778170D02*
G75*
G02*
X1920800Y724040I-27000J-103540D01*
G01*
G75*
G02*
X1998890Y787570I105090J-49410D01*
G01*
Y740430D01*
G75*
G03*
X1960090Y701630I27000J-65800D01*
G01*
X1929430D01*
X1912950D01*
X1881700D01*
G75*
G03*
X1852890Y730440I-55810J-27000D01*
G01*
Y778170D01*
X2052890Y608830D02*
G75*
G03*
X2091690Y647630I-27000J65800D01*
G01*
X2112950D01*
X2138830D01*
X2160090D01*
G75*
G03*
X2198890Y608830I65800J27000D01*
G01*
Y561690D01*
G75*
G02*
X2125890Y615600I27000J112940D01*
G01*
G75*
G02*
X2052890Y561690I-100000J59030D01*
G01*
Y608830D01*
Y787570D02*
G75*
G02*
X2125890Y733660I-27000J-112940D01*
G01*
G75*
G02*
X2198890Y787570I100000J-59030D01*
G01*
Y740430D01*
G75*
G03*
X2160090Y701630I27000J-65800D01*
G01*
X2138830D01*
X2112950D01*
X2091690D01*
G75*
G03*
X2052890Y740430I-65800J-27000D01*
G01*
Y787570D01*
X2252890Y608830D02*
G75*
G03*
X2291690Y647630I-27000J65800D01*
G01*
X2338830D01*
G75*
G02*
X2252890Y561690I-112940J27000D01*
G01*
Y608830D01*
Y787570D02*
G75*
G02*
X2338830Y701630I-27000J-112940D01*
G01*
X2291690D01*
G75*
G03*
X2252890Y740430I-65800J-27000D01*
G01*
Y787570D01*
X2306630Y2401120D02*
G75*
G02*
X2484430I88900J0D01*
G01*
G75*
G02*
X2306630I-88900J0D01*
G01*
X3686990Y1871030D02*
G75*
G02*
X3864790I88900J0D01*
G01*
G75*
G02*
X3686990I-88900J0D01*
G01*
X4287650Y2404630D02*
G75*
G02*
X4447210I79780J0D01*
G01*
G75*
G02*
X4287650I-79780J0D01*
G01*
X4306110Y854630D02*
G75*
G02*
X4465670I79780J0D01*
G01*
G75*
G02*
X4306110I-79780J0D01*
G01*
X4525520Y2877630D02*
G75*
G03*
X4528890Y2874260I30370J27000D01*
G01*
Y2823360D01*
G75*
G02*
X4474620Y2877630I27000J81270D01*
G01*
X4525520D01*
X4497470Y2694630D02*
G75*
G02*
X4614310I58420J0D01*
G01*
G75*
G02*
X4497470I-58420J0D01*
G01*
X4510110Y1784630D02*
G75*
G02*
X4625670I57780J0D01*
G01*
G75*
G02*
X4510110I-57780J0D01*
G01*
Y1934630D02*
G75*
G02*
X4625670I57780J0D01*
G01*
G75*
G02*
X4510110I-57780J0D01*
G01*
Y2084630D02*
G75*
G02*
X4625670I57780J0D01*
G01*
G75*
G02*
X4510110I-57780J0D01*
G01*
X4566110Y2414630D02*
G75*
G02*
X4725670I79780J0D01*
G01*
G75*
G02*
X4566110I-79780J0D01*
G01*
X4640110Y1784630D02*
G75*
G02*
X4755670I57780J0D01*
G01*
G75*
G02*
X4640110I-57780J0D01*
G01*
X4648570Y296350D02*
G75*
G02*
X5084130I217780J0D01*
G01*
G75*
G02*
X4648570I-217780J0D01*
G01*
X4640110Y1934630D02*
G75*
G02*
X4755670I57780J0D01*
G01*
G75*
G02*
X4640110I-57780J0D01*
G01*
Y2084630D02*
G75*
G02*
X4755670I57780J0D01*
G01*
G75*
G02*
X4640110I-57780J0D01*
G01*
X4528890Y2985900D02*
Y2935000D01*
G75*
G03*
X4525520Y2931630I27000J-30370D01*
G01*
X4474620D01*
G75*
G02*
X4528890Y2985900I81270J-27000D01*
G01*
X4582890Y2874260D02*
G75*
G03*
X4586260Y2877630I-27000J30370D01*
G01*
X4637160D01*
G75*
G02*
X4582890Y2823360I-81270J27000D01*
G01*
Y2874260D01*
Y2985900D02*
G75*
G02*
X4637160Y2931630I-27000J-81270D01*
G01*
X4586260D01*
G75*
G03*
X4582890Y2935000I-30370J-27000D01*
G01*
Y2985900D01*
X4648570Y3286350D02*
G75*
G02*
X5084130I217780J0D01*
G01*
G75*
G02*
X4648570I-217780J0D01*
G01*
X4826110Y2424630D02*
G75*
G02*
X4985670I79780J0D01*
G01*
G75*
G02*
X4826110I-79780J0D01*
G01*
X98570Y296350D02*
G75*
G02*
X534130I217780J0D01*
G01*
G75*
G02*
X98570I-217780J0D01*
G01*
Y3286350D02*
G75*
G02*
X534130I217780J0D01*
G01*
G75*
G02*
X98570I-217780J0D01*
G01*
X290890Y997630D02*
X335890D01*
Y874630D01*
X458890D01*
Y829630D01*
X290890D01*
Y997630D01*
Y1219630D02*
X458890D01*
Y1174630D01*
X335890D01*
Y1051630D01*
X290890D01*
Y1219630D01*
X318110Y1692410D02*
X653670D01*
Y1356850D01*
X318110D01*
Y1692410D01*
X512890Y874630D02*
X635890D01*
Y997630D01*
X680890D01*
Y829630D01*
X512890D01*
Y874630D01*
Y1219630D02*
X680890D01*
Y1051630D01*
X635890D01*
Y1174630D01*
X512890D01*
Y1219630D01*
X318570Y2192410D02*
X654130D01*
Y1856850D01*
X318570D01*
Y2192410D01*
Y2692410D02*
X654130D01*
Y2356850D01*
X318570D01*
Y2692410D01*
X98570Y296350D02*
G36*
X98570Y296350D02*
G75*
G02*
X98730Y304630I217870J-70D01*
G01*
X69710D01*
G75*
G03*
X306330Y69700I236630J1710D01*
G01*
X306350D01*
X4865890D01*
X4865910D01*
G75*
G03*
X5102530Y304630I-10J236640D01*
G01*
X5083970D01*
G75*
G02*
X5084130Y296350I-217710J-8350D01*
G01*
G75*
G02*
X4648570I-217780J0D01*
G01*
G75*
G02*
X4648730Y304630I217870J-70D01*
G01*
X904310D01*
G75*
G02*
X787470I-58420J0D01*
G01*
X533970D01*
G75*
G02*
X534130Y296350I-217710J-8350D01*
G01*
G75*
G02*
X98570I-217780J0D01*
G01*
G37*
X69700Y306350D02*
G36*
X69700Y306350D02*
Y306330D01*
G75*
G03*
X69710Y304630I236990J540D01*
G01*
X98730D01*
G75*
G02*
X533970I217620J-8280D01*
G01*
X787470D01*
G75*
G02*
X904310I58420J0D01*
G01*
X4648730D01*
G75*
G02*
X5083970I217620J-8280D01*
G01*
X5102530D01*
G75*
G03*
X5102540Y306330I-236980J2240D01*
G01*
Y306350D01*
Y604660D01*
X2318560D01*
G75*
G02*
X2252890Y561690I-92680J69970D01*
G01*
Y604660D01*
X2198890D01*
Y561690D01*
G75*
G02*
X2133220Y604660I27030J112970D01*
G01*
X2118560D01*
G75*
G02*
X2052890Y561690I-92700J70000D01*
G01*
Y604660D01*
X1998890D01*
Y561690D01*
G75*
G02*
X1933210Y604660I26970J112910D01*
G01*
X1906840D01*
G75*
G02*
X1852890Y571090I-80990J70020D01*
G01*
Y604660D01*
X1798890D01*
Y571090D01*
G75*
G02*
X1744940Y604660I27040J103590D01*
G01*
X1718570D01*
G75*
G02*
X1652890Y561690I-92650J69940D01*
G01*
Y604660D01*
X1598890D01*
Y561690D01*
G75*
G02*
X1533220Y604660I27020J112960D01*
G01*
X1518580D01*
G75*
G02*
X1452900Y561690I-92720J70040D01*
G01*
Y604660D01*
X1398900D01*
Y561690D01*
G75*
G02*
X1333230Y604660I27010J112940D01*
G01*
X69700D01*
Y306350D01*
G37*
Y744600D02*
G36*
X69700Y744600D02*
Y604660D01*
X1333230D01*
G75*
G02*
X1312960Y647630I92680J69990D01*
G01*
X1360100D01*
G75*
G03*
X1398900Y608830I65830J27030D01*
G01*
Y604660D01*
X1452900D01*
Y608830D01*
G75*
G03*
X1491700Y647630I-27030J65830D01*
G01*
X1512950D01*
X1538840D01*
X1560090D01*
G75*
G03*
X1598890Y608830I65830J27030D01*
G01*
Y604660D01*
X1652890D01*
Y608830D01*
G75*
G03*
X1691690Y647630I-27030J65830D01*
G01*
X1722350D01*
X1738830D01*
X1770080D01*
G75*
G03*
X1798890Y618820I55800J26990D01*
G01*
Y604660D01*
X1852890D01*
Y618820D01*
G75*
G03*
X1881700Y647630I-26990J55800D01*
G01*
X1912950D01*
X1929430D01*
X1960090D01*
G75*
G03*
X1998890Y608830I65830J27030D01*
G01*
Y604660D01*
X2052890D01*
Y608830D01*
G75*
G03*
X2091690Y647630I-27030J65830D01*
G01*
X2112950D01*
X2138830D01*
X2160090D01*
G75*
G03*
X2198890Y608830I65830J27030D01*
G01*
Y604660D01*
X2252890D01*
Y608830D01*
G75*
G03*
X2291690Y647630I-27030J65830D01*
G01*
X2338830D01*
G75*
G02*
X2318560Y604660I-112950J27020D01*
G01*
X5102540D01*
Y744600D01*
X2318560D01*
G75*
G02*
X2338830Y701630I-92680J-69990D01*
G01*
X2291690D01*
G75*
G03*
X2252890Y740430I-65830J-27030D01*
G01*
Y744600D01*
X2198890D01*
Y740430D01*
G75*
G03*
X2160090Y701630I27030J-65830D01*
G01*
X2138830D01*
X2112950D01*
X2091690D01*
G75*
G03*
X2052890Y740430I-65830J-27030D01*
G01*
Y744600D01*
X1998890D01*
Y740430D01*
G75*
G03*
X1960090Y701630I27030J-65830D01*
G01*
X1929430D01*
X1912950D01*
X1881700D01*
G75*
G03*
X1852890Y730440I-55800J-26990D01*
G01*
Y744600D01*
X1798890D01*
Y730440D01*
G75*
G03*
X1770080Y701630I26990J-55800D01*
G01*
X1738830D01*
X1722350D01*
X1691690D01*
G75*
G03*
X1652890Y740430I-65830J-27030D01*
G01*
Y744600D01*
X1598890D01*
Y740430D01*
G75*
G03*
X1560090Y701630I27030J-65830D01*
G01*
X1538840D01*
X1512950D01*
X1491700D01*
G75*
G03*
X1452900Y740430I-65830J-27030D01*
G01*
Y744600D01*
X1398900D01*
Y740430D01*
G75*
G03*
X1360100Y701630I27030J-65830D01*
G01*
X1312960D01*
G75*
G02*
X1333230Y744600I112950J-27020D01*
G01*
X69700D01*
G37*
X1525900Y615590D02*
G36*
X1525900Y615590D02*
G75*
G02*
X1518580Y604660I-100050J59090D01*
G01*
X1533220D01*
G75*
G02*
X1525900Y615590I92700J70000D01*
G01*
G37*
X1518580Y744600D02*
G36*
X1518580Y744600D02*
G75*
G02*
X1525900Y733670I-92670J-69980D01*
G01*
G75*
G02*
X1533220Y744600I100020J-59070D01*
G01*
X1518580D01*
G37*
X1730980Y625220D02*
G36*
X1730980Y625220D02*
G75*
G02*
X1718570Y604660I-105070J49390D01*
G01*
X1744940D01*
G75*
G02*
X1730980Y625220I80990J70010D01*
G01*
G37*
X1718570Y744600D02*
G36*
X1718570Y744600D02*
G75*
G02*
X1730980Y724040I-92660J-69950D01*
G01*
G75*
G02*
X1744940Y744600I94950J-49450D01*
G01*
X1718570D01*
G37*
X1920800Y625220D02*
G36*
X1920800Y625220D02*
G75*
G02*
X1906840Y604660I-94950J49450D01*
G01*
X1933210D01*
G75*
G02*
X1920800Y625220I92660J69950D01*
G01*
G37*
X1906840Y744600D02*
G36*
X1906840Y744600D02*
G75*
G02*
X1920800Y724040I-80990J-70010D01*
G01*
G75*
G02*
X1933210Y744600I105070J-49390D01*
G01*
X1906840D01*
G37*
X2125890Y615600D02*
G36*
X2125890Y615600D02*
G75*
G02*
X2118560Y604660I-100040J59100D01*
G01*
X2133220D01*
G75*
G02*
X2125890Y615600I92710J70040D01*
G01*
G37*
X2118560Y744600D02*
G36*
X2118560Y744600D02*
G75*
G02*
X2125890Y733660I-92710J-70040D01*
G01*
G75*
G02*
X2133220Y744600I100040J-59100D01*
G01*
X2118560D01*
G37*
X69700Y854630D02*
G36*
X69700Y854630D02*
Y744600D01*
X1333230D01*
G75*
G02*
X1398900Y787570I92680J-69970D01*
G01*
Y744600D01*
X1452900D01*
Y787570D01*
G75*
G02*
X1518580Y744600I-26980J-112920D01*
G01*
X1533220D01*
G75*
G02*
X1598890Y787570I92690J-69990D01*
G01*
Y744600D01*
X1652890D01*
Y787570D01*
G75*
G02*
X1718570Y744600I-26970J-112910D01*
G01*
X1744940D01*
G75*
G02*
X1798890Y778170I80990J-70020D01*
G01*
Y744600D01*
X1852890D01*
Y778170D01*
G75*
G02*
X1906840Y744600I-27040J-103590D01*
G01*
X1933210D01*
G75*
G02*
X1998890Y787570I92650J-69940D01*
G01*
Y744600D01*
X2052890D01*
Y787570D01*
G75*
G02*
X2118560Y744600I-27030J-112970D01*
G01*
X2133220D01*
G75*
G02*
X2198890Y787570I92700J-70000D01*
G01*
Y744600D01*
X2252890D01*
Y787570D01*
G75*
G02*
X2318560Y744600I-27010J-112940D01*
G01*
X5102540D01*
Y854630D01*
X4465670D01*
G75*
G02*
X4306110I-79780J0D01*
G01*
X680890D01*
Y829630D01*
X512890D01*
Y854630D01*
X458890D01*
Y829630D01*
X290890D01*
Y854630D01*
X69700D01*
G37*
Y1135630D02*
G36*
X69700Y1135630D02*
Y854630D01*
X290890D01*
Y997630D01*
X335890D01*
Y874630D01*
X458890D01*
Y854630D01*
X512890D01*
Y874630D01*
X635890D01*
Y997630D01*
X680890D01*
Y854630D01*
X4306110D01*
G75*
G02*
X4465670I79780J0D01*
G01*
X5102540D01*
Y1135630D01*
X680890D01*
Y1051630D01*
X635890D01*
Y1135630D01*
X335890D01*
Y1051630D01*
X290890D01*
Y1135630D01*
X69700D01*
G37*
Y1524630D02*
G36*
X69700Y1524630D02*
Y1135630D01*
X290890D01*
Y1219630D01*
X458890D01*
Y1174630D01*
X335890D01*
Y1135630D01*
X635890D01*
Y1174630D01*
X512890D01*
Y1219630D01*
X680890D01*
Y1135630D01*
X5102540D01*
Y1524630D01*
X653670D01*
Y1356850D01*
X318110D01*
Y1524630D01*
X69700D01*
G37*
Y1784630D02*
G36*
X69700Y1784630D02*
Y1524630D01*
X318110D01*
Y1692410D01*
X653670D01*
Y1524630D01*
X5102540D01*
Y1784630D01*
X4755670D01*
G75*
G02*
X4640110I-57780J0D01*
G01*
X4625670D01*
G75*
G02*
X4510110I-57780J0D01*
G01*
X3796820D01*
G75*
G02*
X3754960I-20930J86380D01*
G01*
X69700D01*
G37*
Y1871030D02*
G36*
X69700Y1871030D02*
Y1784630D01*
X3754960D01*
G75*
G02*
X3686990Y1871030I20930J86400D01*
G01*
X654130D01*
Y1856850D01*
X318570D01*
Y1871030D01*
X69700D01*
G37*
X3864790D02*
G36*
X3864790Y1871030D02*
G75*
G02*
X3796820Y1784630I-88900J0D01*
G01*
X4510110D01*
G75*
G02*
X4625670I57780J0D01*
G01*
X4640110D01*
G75*
G02*
X4755670I57780J0D01*
G01*
X5102540D01*
Y1871030D01*
X3864790D01*
G37*
X69700Y1934630D02*
G36*
X69700Y1934630D02*
Y1871030D01*
X318570D01*
Y1934630D01*
X69700D01*
G37*
X654130D02*
G36*
X654130Y1934630D02*
Y1871030D01*
X3686990D01*
G75*
G02*
X3713780Y1934630I88900J-10D01*
G01*
X654130D01*
G37*
X3838000D02*
G36*
X3838000Y1934630D02*
G75*
G02*
X3864790Y1871030I-62110J-63610D01*
G01*
X5102540D01*
Y1934630D01*
X4755670D01*
G75*
G02*
X4640110I-57780J0D01*
G01*
X4625670D01*
G75*
G02*
X4510110I-57780J0D01*
G01*
X3838000D01*
G37*
X69700Y2084630D02*
G36*
X69700Y2084630D02*
Y1934630D01*
X318570D01*
Y2084630D01*
X69700D01*
G37*
X654130D02*
G36*
X654130Y2084630D02*
Y1934630D01*
X3713780D01*
G75*
G02*
X3838000I62110J-63600D01*
G01*
X4510110D01*
G75*
G02*
X4625670I57780J0D01*
G01*
X4640110D01*
G75*
G02*
X4755670I57780J0D01*
G01*
X5102540D01*
Y2084630D01*
X4755670D01*
G75*
G02*
X4640110I-57780J0D01*
G01*
X4625670D01*
G75*
G02*
X4510110I-57780J0D01*
G01*
X654130D01*
G37*
X69700Y2339630D02*
G36*
X69700Y2339630D02*
Y2084630D01*
X318570D01*
Y2192410D01*
X654130D01*
Y2084630D01*
X4510110D01*
G75*
G02*
X4625670I57780J0D01*
G01*
X4640110D01*
G75*
G02*
X4755670I57780J0D01*
G01*
X5102540D01*
Y2339630D01*
X4673090D01*
G75*
G02*
X4618690I-27200J75000D01*
G01*
X4413690D01*
G75*
G02*
X4321170I-46260J65000D01*
G01*
X2459730D01*
G75*
G02*
X2331330I-64200J61490D01*
G01*
X1664310D01*
G75*
G02*
X1547470I-58420J0D01*
G01*
X69700D01*
G37*
Y2424630D02*
G36*
X69700Y2424630D02*
Y2339630D01*
X1547470D01*
G75*
G02*
X1664310I58420J0D01*
G01*
X2331330D01*
G75*
G02*
X2306630Y2401120I64200J61500D01*
G01*
G75*
G02*
X2309800Y2424630I88910J-20D01*
G01*
X654130D01*
Y2356850D01*
X318570D01*
Y2424630D01*
X69700D01*
G37*
X2484430Y2401120D02*
G36*
X2484430Y2401120D02*
G75*
G02*
X2459730Y2339630I-88900J10D01*
G01*
X4321170D01*
G75*
G02*
X4287650Y2404630I46260J65000D01*
G01*
G75*
G02*
X4290200Y2424630I79780J-10D01*
G01*
X2481260D01*
G75*
G02*
X2484430Y2401120I-85740J-23530D01*
G01*
G37*
X4447210Y2404630D02*
G36*
X4447210Y2404630D02*
G75*
G02*
X4413690Y2339630I-79780J0D01*
G01*
X4618690D01*
G75*
G02*
X4566110Y2414630I27200J75000D01*
G01*
G75*
G02*
X4566740Y2424630I79790J-10D01*
G01*
X4444660D01*
G75*
G02*
X4447210Y2404630I-77230J-20010D01*
G01*
G37*
X4725670Y2414630D02*
G36*
X4725670Y2414630D02*
G75*
G02*
X4673090Y2339630I-79780J0D01*
G01*
X5102540D01*
Y2424630D01*
X4985670D01*
G75*
G02*
X4826110I-79780J0D01*
G01*
X4725040D01*
G75*
G02*
X4725670Y2414630I-79160J-10010D01*
G01*
G37*
X69700Y2694630D02*
G36*
X69700Y2694630D02*
Y2424630D01*
X318570D01*
Y2692410D01*
X654130D01*
Y2424630D01*
X2309800D01*
G75*
G02*
X2481260I85730J-23510D01*
G01*
X4290200D01*
G75*
G02*
X4444660I77230J-20000D01*
G01*
X4566740D01*
G75*
G02*
X4725040I79150J-10000D01*
G01*
X4826110D01*
G75*
G02*
X4985670I79780J0D01*
G01*
X5102540D01*
Y2694630D01*
X4614310D01*
G75*
G02*
X4497470I-58420J0D01*
G01*
X69700D01*
G37*
Y2850490D02*
G36*
X69700Y2850490D02*
Y2694630D01*
X4497470D01*
G75*
G02*
X4614310I58420J0D01*
G01*
X5102540D01*
Y2850490D01*
X4622240D01*
G75*
G02*
X4582890Y2823360I-66350J54140D01*
G01*
Y2850490D01*
X4528890D01*
Y2823360D01*
G75*
G02*
X4489540Y2850490I27000J81270D01*
G01*
X69700D01*
G37*
Y2958760D02*
G36*
X69700Y2958760D02*
Y2850490D01*
X4489540D01*
G75*
G02*
X4474620Y2877630I66350J54150D01*
G01*
X4525520D01*
G75*
G03*
X4528890Y2874260I33210J29840D01*
G01*
Y2850490D01*
X4582890D01*
Y2874260D01*
G75*
G03*
X4586260Y2877630I-29840J33210D01*
G01*
X4637160D01*
G75*
G02*
X4622240Y2850490I-81270J27010D01*
G01*
X5102540D01*
Y2958760D01*
X4622250D01*
G75*
G02*
X4637160Y2931630I-66360J-54130D01*
G01*
X4586260D01*
G75*
G03*
X4582890Y2935000I-33210J-29840D01*
G01*
Y2958760D01*
X4528890D01*
Y2935000D01*
G75*
G03*
X4525520Y2931630I29840J-33210D01*
G01*
X4474620D01*
G75*
G02*
X4489530Y2958760I81270J-27000D01*
G01*
X69700D01*
G37*
Y3234630D02*
G36*
X69700Y3234630D02*
Y2958760D01*
X4489530D01*
G75*
G02*
X4528890Y2985900I66360J-54130D01*
G01*
Y2958760D01*
X4582890D01*
Y2985900D01*
G75*
G02*
X4622250Y2958760I-27000J-81270D01*
G01*
X5102540D01*
Y3234630D01*
X5077900D01*
G75*
G02*
X4654800I-211550J51720D01*
G01*
X1828050D01*
G75*
G02*
X1765890Y3204850I-62170J50010D01*
G01*
G75*
G02*
X1703730Y3234630I10J79790D01*
G01*
X1589170D01*
G75*
G02*
X1483890Y3129350I-105280J0D01*
G01*
G75*
G02*
X1378610Y3234630I0J105280D01*
G01*
X1081170D01*
G75*
G02*
X975890Y3129350I-105280J0D01*
G01*
G75*
G02*
X870610Y3234630I0J105280D01*
G01*
X527900D01*
G75*
G02*
X104800I-211550J51720D01*
G01*
X69700D01*
G37*
Y3276350D02*
G36*
X69700Y3276350D02*
Y3234630D01*
X104800D01*
G75*
G02*
X98570Y3286350I211550J51720D01*
G01*
G75*
G02*
X534130I217780J0D01*
G01*
G75*
G02*
X527900Y3234630I-217780J0D01*
G01*
X870610D01*
G75*
G02*
X975890Y3339910I105280J0D01*
G01*
G75*
G02*
X1081170Y3234630I0J-105280D01*
G01*
X1378610D01*
G75*
G02*
X1483890Y3339910I105280J0D01*
G01*
G75*
G02*
X1589170Y3234630I0J-105280D01*
G01*
X1703730D01*
G75*
G02*
X1686110Y3284630I62170J50010D01*
G01*
G75*
G02*
X1765890Y3364410I79780J0D01*
G01*
G75*
G02*
X1845670Y3284630I0J-79780D01*
G01*
G75*
G02*
X1828050Y3234630I-79790J10D01*
G01*
X4654800D01*
G75*
G02*
X4648570Y3286350I211550J51720D01*
G01*
G75*
G02*
X5084130I217780J0D01*
G01*
G75*
G02*
X5077900Y3234630I-217780J0D01*
G01*
X5102540D01*
Y3276350D01*
Y3276370D01*
G75*
G03*
X4865910Y3513000I-236630J0D01*
G01*
X4865890D01*
X306350D01*
X306330D01*
G75*
G03*
X69700Y3276370I0J-236630D01*
G01*
Y3276350D01*
G37*
X0Y0D02*
M02*
