G05
M48
;#@! TF.GenerationSoftware,DesignSpark,DesignSpark PCB,12.0.5940
;#@! TF.CreationDate,2025-08-09T23:40:03+00:00*
;#@! TF.FileFunction,Plated,1,4,PTH
;FILE_FORMAT=3:5
;TYPE=PLATED
INCH,TZ
FMAT,2
T1C000.01575
T2C000.01600
T3C000.03150
T4C000.03189
T5C000.03200
T6C000.04331
T7C000.12811
%
T001
X1878022Y1799735
X1878022Y1805641
X1878022Y1811546
X1883141Y1799735
X1883141Y1805641
X1883141Y1811546
T002
X1731487Y1741468
X1761408Y1821586
X1877550Y1835562
X1877550Y1843830
T003
X1767707Y1858791
X1770070Y1756035
X1870130Y1824145
X1870857Y1763121
X1881093Y1824539
X1891330Y1824932
T004
X1736605Y1856822
X1756605Y1856822
T005
X1754322Y1756035
X1762196Y1756035
X1777944Y1756035
X1785818Y1756035
X1792496Y1824007
X1846841Y1803137
T006
X1717314Y1769814
X1717314Y1789499
X1717332Y1809184
X1717332Y1828869
T007
X1710639Y1741142
X1710639Y1858858
X1889773Y1741142
X1889773Y1858858
M30
