G04 DesignSpark PCB Gerber Version 12.0 Build 5942*
%FSLAX35Y35*%
%MOMM*%
%ADD126R,0.90200X1.40200*%
%ADD128R,0.94200X1.02200*%
%ADD112R,1.20200X1.52600*%
%ADD127R,2.15200X2.20200*%
%ADD119R,2.15200X2.30200*%
%ADD116R,2.95200X4.90200*%
%ADD114R,3.35200X11.60200*%
%ADD121R,4.15200X4.82800*%
%ADD110R,3.00200X3.00200*%
%ADD108C,0.80200*%
%ADD124C,1.24200*%
%ADD132C,1.25790*%
%ADD130C,1.26100*%
%ADD120C,1.75200*%
%AMT129*0 Bullet Pad at angle 90*4,1,31,0.50900,-0.63050,0.50900,0.63050,0.12150,0.63050,0.05090,0.62650,-0.01880,0.61470,-0.08670,0.59510,-0.15200,0.56800,-0.21390,0.53380,-0.27160,0.49290,-0.32430,0.44580,-0.37140,0.39310,-0.41230,0.33540,-0.44650,0.27350,-0.47350,0.20820,-0.49310,0.14030,-0.50490,0.07060,-0.50890,0.00001,-0.50490,-0.07060,-0.49310,-0.14030,-0.47350,-0.20820,-0.44650,-0.27350,-0.41230,-0.33540,-0.37140,-0.39310,-0.32430,-0.44580,-0.27160,-0.49290,-0.21390,-0.53380,-0.15200,-0.56800,-0.08670,-0.59500,-0.01880,-0.61460,0.05090,-0.62640,0.12150,-0.63050,0.50900,-0.63050,0*%
%ADD129T129*%
%ADD115R,1.55200X0.60200*%
%ADD123R,0.98200X0.92200*%
%ADD125R,1.42200X1.00200*%
%ADD118R,2.20200X1.10200*%
%ADD117R,1.47520X1.42440*%
%ADD122R,1.82200X1.44200*%
%ADD111R,2.25200X1.75200*%
%ADD109C,4.00200*%
%ADD113R,3.07200X2.33200*%
%AMT131*0 Bullet Pad at angle 270*4,1,31,-0.50900,0.62900,-0.50900,-0.62900,-0.12000,-0.62900,-0.04960,-0.62500,0.01990,-0.61320,0.08770,-0.59370,0.15290,-0.56670,0.21460,-0.53260,0.27210,-0.49180,0.32470,-0.44480,0.37170,-0.39220,0.41250,-0.33470,0.44660,-0.27300,0.47360,-0.20790,0.49310,-0.14010,0.50490,-0.07060,0.50890,-0.00020,0.50500,0.07020,0.49320,0.13970,0.47370,0.20750,0.44670,0.27270,0.41260,0.33440,0.37180,0.39190,0.32480,0.44450,0.27220,0.49150,0.21470,0.53230,0.15300,0.56640,0.08790,0.59340,0.02020,0.61290,-0.04930,0.62470,-0.12000,0.62900,-0.50900,0.62900,0*%
%ADD131T131*%
X0Y0D02*
D02*
D108*
X47701770Y45713280D03*
Y45863280D03*
Y46013280D03*
X47831770Y45713280D03*
Y45863280D03*
Y46013280D03*
D02*
D109*
X43450230Y44225000D03*
Y47215000D03*
X48000230Y44225000D03*
Y47215000D03*
D02*
D110*
X43619770Y44953280D03*
Y45453280D03*
X43620230Y45953280D03*
Y46453280D03*
D02*
D111*
X44689770Y45023280D03*
Y45323280D03*
X45049770Y45023280D03*
Y45323280D03*
X45389780Y45033280D03*
Y45333280D03*
D02*
D112*
X44708770Y44233280D03*
X44908770Y44232280D03*
X47688770Y46623280D03*
X47690770Y46844280D03*
X47888770Y46622280D03*
X47890770Y46843280D03*
D02*
D113*
X46429770Y45666780D03*
Y46339780D03*
D02*
D114*
X46034770Y44783280D03*
X47064770D03*
D02*
D115*
X47499770Y45672780D03*
Y45799780D03*
Y45926780D03*
Y46053780D03*
X48039770Y45672780D03*
Y45799780D03*
Y45926780D03*
Y46053780D03*
D02*
D116*
X47769770Y45863280D03*
D02*
D117*
X47610310Y45441060D03*
X47851310D03*
D02*
D118*
X44739770Y46268280D03*
Y46598280D03*
D02*
D119*
X44329770Y46248280D03*
Y46678280D03*
D02*
D120*
X44109770Y47163280D03*
X44617770D03*
D02*
D121*
X45529410Y46329770D03*
Y47076670D03*
D02*
D122*
X46909770Y45799680D03*
Y46066880D03*
D02*
D123*
X47109770Y45805780D03*
Y45960780D03*
X47269770Y45805780D03*
Y45960780D03*
D02*
D124*
X44899770Y47213280D03*
X44959770Y44603280D03*
X47501310Y46333280D03*
X47519770Y44783280D03*
X47779770Y46343280D03*
X48039770Y46353280D03*
D02*
D125*
X46339770Y46899780D03*
Y47086780D03*
D02*
D126*
X44305230Y44233280D03*
X44495230D03*
D02*
D127*
X44229770Y44913280D03*
Y45353280D03*
D02*
D128*
X44930770Y45813280D03*
X45088770D03*
D02*
D129*
X44334770Y45603280D03*
D02*
D131*
X44484770D03*
X0Y0D02*
M02*
