G04 DesignSpark PCB Gerber Version 12.0 Build 5942*
%FSLAX35Y35*%
%MOMM*%
%ADD16C,0.02540*%
%ADD14C,0.05000*%
%ADD15C,0.10000*%
%ADD12C,0.12700*%
%ADD11C,0.20000*%
%ADD13C,0.20320*%
%ADD10C,0.25400*%
X0Y0D02*
D02*
D10*
X43921880Y44703280D02*
Y45715280D01*
X43322270D01*
Y44703280D01*
X43921880D01*
X43922340Y45703280D02*
Y46715280D01*
X43322730D01*
Y45703280D01*
X43922340D01*
D02*
D11*
X44048770Y45403280D02*
Y44863280D01*
X44148570Y46730280D02*
Y46196280D01*
X44410770Y44863280D02*
Y45403280D01*
X44495230Y44338280D02*
X44225230D01*
Y44128280D01*
X44495230D01*
X44510970Y46196280D02*
Y46730280D01*
X44549770Y45348280D02*
Y44935780D01*
X44829770Y44998280D02*
Y45348280D01*
X44909770D02*
Y44935780D01*
X45012910Y46070780D02*
Y47218280D01*
X45189770Y44998280D02*
Y45348280D01*
X45249780Y45358280D02*
Y44945780D01*
X45529780Y45008280D02*
Y45358280D01*
X45924770Y44143280D02*
X47174770D01*
X46042910Y46445780D02*
Y47218280D01*
X46429770Y45488280D02*
G75*
G03*
Y45468280I0J-10000D01*
G01*
G75*
G03*
Y45488280I0J10000D01*
G01*
X47174770Y45423280D02*
X45924770D01*
X48166770Y45672780D02*
G75*
G03*
X48186770I10000J0D01*
G01*
G75*
G03*
X48166770I-10000J0D01*
G01*
D02*
D12*
X44069770Y44202030D02*
X44079150Y44197340D01*
X44093210D01*
X44102580Y44202030D01*
X44107270Y44211410D01*
Y44216090D01*
X44102580Y44225470D01*
X44093210Y44230160D01*
X44069770D01*
Y44253590D01*
X44107270D01*
X44144770D02*
X44168210Y44197340D01*
X44191650Y44253590D01*
X44169770Y45107340D02*
Y45163590D01*
X44197900D01*
X44207270Y45158910D01*
X44211960Y45154220D01*
X44216650Y45144840D01*
Y45126090D01*
X44211960Y45116720D01*
X44207270Y45112030D01*
X44197900Y45107340D01*
X44169770D01*
X44249460Y45112030D02*
X44258830Y45107340D01*
X44268210D01*
X44277580Y45112030D01*
X44282270Y45121410D01*
X44277580Y45130780D01*
X44268210Y45135470D01*
X44258830D01*
X44268210D02*
X44277580Y45140160D01*
X44282270Y45149530D01*
X44277580Y45158910D01*
X44268210Y45163590D01*
X44258830D01*
X44249460Y45158910D01*
X44259770Y46427340D02*
Y46483590D01*
X44287900D01*
X44297270Y46478910D01*
X44301960Y46474220D01*
X44306650Y46464840D01*
Y46446090D01*
X44301960Y46436720D01*
X44297270Y46432030D01*
X44287900Y46427340D01*
X44259770D01*
X44372270D02*
X44334770D01*
X44367580Y46460160D01*
X44372270Y46469530D01*
X44367580Y46478910D01*
X44358210Y46483590D01*
X44344150D01*
X44334770Y46478910D01*
X44309770Y47137340D02*
Y47193590D01*
X44356650D01*
X44347270Y47165470D02*
X44309770D01*
X44394150Y47137340D02*
X44412900D01*
X44403520D02*
Y47193590D01*
X44394150Y47184220D01*
X44614770Y46355280D02*
Y46511280D01*
X44676650Y45486720D02*
X44671960Y45482030D01*
X44662580Y45477340D01*
X44648520D01*
X44639150Y45482030D01*
X44634460Y45486720D01*
X44629770Y45496090D01*
Y45514840D01*
X44634460Y45524220D01*
X44639150Y45528910D01*
X44648520Y45533590D01*
X44662580D01*
X44671960Y45528910D01*
X44676650Y45524220D01*
X44709460Y45482030D02*
X44718830Y45477340D01*
X44728210D01*
X44737580Y45482030D01*
X44742270Y45491410D01*
X44737580Y45500780D01*
X44728210Y45505470D01*
X44718830D01*
X44728210D02*
X44737580Y45510160D01*
X44742270Y45519530D01*
X44737580Y45528910D01*
X44728210Y45533590D01*
X44718830D01*
X44709460Y45528910D01*
X44736650Y46406720D02*
X44731960Y46402030D01*
X44722580Y46397340D01*
X44708520D01*
X44699150Y46402030D01*
X44694460Y46406720D01*
X44689770Y46416090D01*
Y46434840D01*
X44694460Y46444220D01*
X44699150Y46448910D01*
X44708520Y46453590D01*
X44722580D01*
X44731960Y46448910D01*
X44736650Y46444220D01*
X44764770Y46411410D02*
X44769460Y46420780D01*
X44778830Y46425470D01*
X44788210D01*
X44797580Y46420780D01*
X44802270Y46411410D01*
X44797580Y46402030D01*
X44788210Y46397340D01*
X44778830D01*
X44769460Y46402030D01*
X44764770Y46411410D01*
Y46425470D01*
X44769460Y46439530D01*
X44778830Y46448910D01*
X44788210Y46453590D01*
X44834460Y47332030D02*
X44843830Y47327340D01*
X44853210D01*
X44862580Y47332030D01*
X44867270Y47341410D01*
Y47369530D01*
X44862580Y47378910D01*
X44853210Y47383590D01*
X44843830D01*
X44834460Y47378910D01*
X44829770Y47369530D01*
Y47341410D01*
X44834460Y47332030D01*
X44862580Y47378910D01*
X44904770Y47383590D02*
X44928210Y47327340D01*
X44951650Y47383590D01*
X44849770Y44712030D02*
X44859150Y44707340D01*
X44873210D01*
X44882580Y44712030D01*
X44887270Y44721410D01*
Y44726090D01*
X44882580Y44735470D01*
X44873210Y44740160D01*
X44849770D01*
Y44763590D01*
X44887270D01*
X44924770D02*
X44948210Y44707340D01*
X44971650Y44763590D01*
X44999770Y44707340D02*
X45046650D01*
X44864520Y44603280D02*
G75*
G03*
X44959770Y44508030I95250J0D01*
G01*
G75*
G03*
X45055020Y44603280I0J95250D01*
G01*
G75*
G03*
X44959770Y44698530I-95250J0D01*
G01*
G75*
G03*
X44864520Y44603280I0J-95250D01*
G01*
X44864770Y46355280D02*
Y46511280D01*
X44899770Y47118030D02*
G75*
G03*
X44995020Y47213280I0J95250D01*
G01*
G75*
G03*
X44899770Y47308530I-95250J0D01*
G01*
G75*
G03*
X44804520Y47213280I0J-95250D01*
G01*
G75*
G03*
X44899770Y47118030I95250J0D01*
G01*
X45036650Y45486720D02*
X45031960Y45482030D01*
X45022580Y45477340D01*
X45008520D01*
X44999150Y45482030D01*
X44994460Y45486720D01*
X44989770Y45496090D01*
Y45514840D01*
X44994460Y45524220D01*
X44999150Y45528910D01*
X45008520Y45533590D01*
X45022580D01*
X45031960Y45528910D01*
X45036650Y45524220D01*
X45102270Y45477340D02*
X45064770D01*
X45097580Y45510160D01*
X45102270Y45519530D01*
X45097580Y45528910D01*
X45088210Y45533590D01*
X45074150D01*
X45064770Y45528910D01*
X45019770Y44215620D02*
Y44271870D01*
X45052580D01*
X45061960Y44267190D01*
X45066650Y44257810D01*
X45061960Y44248440D01*
X45052580Y44243750D01*
X45019770D01*
X45052580D02*
X45066650Y44215620D01*
X45118210D02*
Y44271870D01*
X45094770Y44234370D01*
X45132270D01*
X45394940Y45486720D02*
X45390250Y45482030D01*
X45380870Y45477340D01*
X45366810D01*
X45357440Y45482030D01*
X45352750Y45486720D01*
X45348060Y45496090D01*
Y45514840D01*
X45352750Y45524220D01*
X45357440Y45528910D01*
X45366810Y45533590D01*
X45380870D01*
X45390250Y45528910D01*
X45394940Y45524220D01*
X45432440Y45477340D02*
X45451190D01*
X45441810D02*
Y45533590D01*
X45432440Y45524220D01*
X45516650Y46676720D02*
X45511960Y46672030D01*
X45502580Y46667340D01*
X45488520D01*
X45479150Y46672030D01*
X45474460Y46676720D01*
X45469770Y46686090D01*
Y46704840D01*
X45474460Y46714220D01*
X45479150Y46718910D01*
X45488520Y46723590D01*
X45502580D01*
X45511960Y46718910D01*
X45516650Y46714220D01*
X45544770Y46667340D02*
X45582270Y46723590D01*
X45544770D01*
X46244920Y45648280D02*
X46124770D01*
Y46358280D01*
X46244920D01*
X46250770Y47093280D02*
Y46893280D01*
X46299770Y47191090D02*
Y47247340D01*
X46332580D01*
X46341960Y47242660D01*
X46346650Y47233280D01*
X46341960Y47223910D01*
X46332580Y47219220D01*
X46299770D01*
X46332580D02*
X46346650Y47191090D01*
X46384150D02*
X46402900D01*
X46393520D02*
Y47247340D01*
X46384150Y47237970D01*
X46389770Y45987340D02*
Y46043590D01*
X46417900D01*
X46427270Y46038910D01*
X46431960Y46034220D01*
X46436650Y46024840D01*
Y46006090D01*
X46431960Y45996720D01*
X46427270Y45992030D01*
X46417900Y45987340D01*
X46389770D01*
X46474150D02*
X46492900D01*
X46483520D02*
Y46043590D01*
X46474150Y46034220D01*
X46428770Y47093280D02*
Y46893280D01*
X46469770Y44813590D02*
Y44757340D01*
X46516650D01*
X46554150D02*
X46572900D01*
X46563520D02*
Y44813590D01*
X46554150Y44804220D01*
X46614620Y45648280D02*
X46734770D01*
Y46358280D01*
X46614620D01*
X46819770Y45904280D02*
Y45962280D01*
X46893210Y46266400D02*
X46888520Y46271090D01*
X46883830Y46280470D01*
Y46294530D01*
X46888520Y46303900D01*
X46893210Y46308590D01*
X46902580Y46313280D01*
X46921330D01*
X46930710Y46308590D01*
X46935400Y46303900D01*
X46940080Y46294530D01*
Y46280470D01*
X46935400Y46271090D01*
X46930710Y46266400D01*
X46911960Y46224220D02*
Y46214840D01*
X46916650Y46205470D01*
X46926020Y46200780D01*
X46935400Y46205470D01*
X46940080Y46214840D01*
Y46224220D01*
X46935400Y46233590D01*
X46926020Y46238280D01*
X46916650Y46233590D01*
X46911960Y46224220D01*
X46907270Y46233590D01*
X46897900Y46238280D01*
X46888520Y46233590D01*
X46883830Y46224220D01*
Y46214840D01*
X46888520Y46205470D01*
X46897900Y46200780D01*
X46907270Y46205470D01*
X46911960Y46214840D01*
X46999770Y45904280D02*
Y45962280D01*
X47093210Y46266400D02*
X47088520Y46271090D01*
X47083830Y46280470D01*
Y46294530D01*
X47088520Y46303900D01*
X47093210Y46308590D01*
X47102580Y46313280D01*
X47121330D01*
X47130710Y46308590D01*
X47135400Y46303900D01*
X47140080Y46294530D01*
Y46280470D01*
X47135400Y46271090D01*
X47130710Y46266400D01*
X47083830Y46224220D02*
X47088520Y46214840D01*
X47097900Y46205470D01*
X47111960Y46200780D01*
X47126020D01*
X47135400Y46205470D01*
X47140080Y46214840D01*
Y46224220D01*
X47135400Y46233590D01*
X47126020Y46238280D01*
X47116650Y46233590D01*
X47111960Y46224220D01*
Y46214840D01*
X47116650Y46205470D01*
X47126020Y46200780D01*
X47253210Y46341400D02*
X47248520Y46346090D01*
X47243830Y46355470D01*
Y46369530D01*
X47248520Y46378900D01*
X47253210Y46383590D01*
X47262580Y46388280D01*
X47281330D01*
X47290710Y46383590D01*
X47295400Y46378900D01*
X47300080Y46369530D01*
Y46355470D01*
X47295400Y46346090D01*
X47290710Y46341400D01*
X47243830Y46303900D02*
Y46285150D01*
Y46294530D02*
X47300080D01*
X47290710Y46303900D01*
X47248520Y46233590D02*
X47243830Y46224220D01*
Y46214840D01*
X47248520Y46205470D01*
X47257900Y46200780D01*
X47286020D01*
X47295400Y46205470D01*
X47300080Y46214840D01*
Y46224220D01*
X47295400Y46233590D01*
X47286020Y46238280D01*
X47257900D01*
X47248520Y46233590D01*
X47295400Y46205470D01*
X47406060Y46333280D02*
G75*
G03*
X47501310Y46238030I95250J0D01*
G01*
G75*
G03*
X47596560Y46333280I0J95250D01*
G01*
G75*
G03*
X47501310Y46428530I-95250J0D01*
G01*
G75*
G03*
X47406060Y46333280I0J-95250D01*
G01*
X47424520Y44783280D02*
G75*
G03*
X47519770Y44688030I95250J0D01*
G01*
G75*
G03*
X47615020Y44783280I0J95250D01*
G01*
G75*
G03*
X47519770Y44878530I-95250J0D01*
G01*
G75*
G03*
X47424520Y44783280I0J-95250D01*
G01*
X47527810Y45352660D02*
X47933810D01*
Y45530460D01*
X47527810D01*
Y45352660D01*
X47619770Y46452590D02*
X47666650D01*
X47699460Y46457280D02*
X47708830Y46452590D01*
X47718210D01*
X47727580Y46457280D01*
X47732270Y46466660D01*
Y46494780D01*
X47727580Y46504160D01*
X47718210Y46508840D01*
X47708830D01*
X47699460Y46504160D01*
X47694770Y46494780D01*
Y46466660D01*
X47699460Y46457280D01*
X47727580Y46504160D01*
X47769770Y46508840D02*
X47793210Y46452590D01*
X47816650Y46508840D01*
X47844770Y46452590D02*
X47891650D01*
X47659770Y44757340D02*
Y44813590D01*
X47692580D01*
X47701960Y44808910D01*
X47706650Y44799530D01*
X47701960Y44790160D01*
X47692580Y44785470D01*
X47659770D01*
X47734770Y44757340D02*
Y44813590D01*
Y44785470D02*
X47781650D01*
Y44757340D02*
Y44813590D01*
X47684520Y46343280D02*
G75*
G03*
X47779770Y46248030I95250J0D01*
G01*
G75*
G03*
X47875020Y46343280I0J95250D01*
G01*
G75*
G03*
X47779770Y46438530I-95250J0D01*
G01*
G75*
G03*
X47684520Y46343280I0J-95250D01*
G01*
X47944520Y46353280D02*
G75*
G03*
X48039770Y46258030I95250J0D01*
G01*
G75*
G03*
X48135020Y46353280I0J95250D01*
G01*
G75*
G03*
X48039770Y46448530I-95250J0D01*
G01*
G75*
G03*
X47944520Y46353280I0J-95250D01*
G01*
X47964770Y45610780D02*
X47574770D01*
X47964770Y46115780D02*
X47574770D01*
X48009770Y46587340D02*
Y46643590D01*
X48042580D01*
X48051960Y46638910D01*
X48056650Y46629530D01*
X48051960Y46620160D01*
X48042580Y46615470D01*
X48009770D01*
X48042580D02*
X48056650Y46587340D01*
X48122270D02*
X48084770D01*
X48117580Y46620160D01*
X48122270Y46629530D01*
X48117580Y46638910D01*
X48108210Y46643590D01*
X48094150D01*
X48084770Y46638910D01*
X48009770Y46807340D02*
Y46863590D01*
X48042580D01*
X48051960Y46858910D01*
X48056650Y46849530D01*
X48051960Y46840160D01*
X48042580Y46835470D01*
X48009770D01*
X48042580D02*
X48056650Y46807340D01*
X48089460Y46812030D02*
X48098830Y46807340D01*
X48108210D01*
X48117580Y46812030D01*
X48122270Y46821410D01*
X48117580Y46830780D01*
X48108210Y46835470D01*
X48098830D01*
X48108210D02*
X48117580Y46840160D01*
X48122270Y46849530D01*
X48117580Y46858910D01*
X48108210Y46863590D01*
X48098830D01*
X48089460Y46858910D01*
D02*
D13*
X44636770Y44144380D02*
Y44322180D01*
X44980770D01*
Y44144380D01*
X44636770D01*
X47616770Y46534380D02*
Y46712180D01*
X47960770D01*
Y46534380D01*
X47616770D01*
X47962770Y46932180D02*
Y46754380D01*
X47618770D01*
Y46932180D01*
X47962770D01*
D02*
D14*
X44589770Y46188280D02*
X44889770D01*
Y46678280D01*
X44589770D01*
Y46188280D01*
X45160570Y45889080D02*
Y45737480D01*
X44858970D01*
Y45889080D01*
X45160570D01*
X46099770Y45525280D02*
Y46481280D01*
X46759770D01*
Y45525280D01*
X46099770D01*
X46435770Y47162280D02*
Y46824280D01*
X46243770D01*
Y47162280D01*
X46435770D01*
X46793970Y46164080D02*
X47025570D01*
Y45702480D01*
X46793970D01*
Y46164080D01*
X47035770Y46031780D02*
X47183770D01*
Y45734780D01*
X47035770D01*
Y46031780D01*
X47195770D02*
X47343770D01*
Y45734780D01*
X47195770D01*
Y46031780D01*
X47397270Y46133280D02*
Y45593280D01*
X48142270D01*
Y46133280D01*
X47397270D01*
D02*
D15*
X43970270Y47341280D02*
X44757270D01*
Y46985280D01*
X43970270D01*
Y47341280D01*
D02*
D16*
X44769770Y45828520D02*
Y45792330D01*
X44799930D01*
X44842160D02*
X44818030D01*
X44839140Y45813440D01*
X44842160Y45819480D01*
X44839140Y45825510D01*
X44833110Y45828520D01*
X44824060D01*
X44818030Y45825510D01*
X0Y0D02*
M02*
