G04 DesignSpark PCB Gerber Version 12.0 Build 5942*
%FSLAX35Y35*%
%MOMM*%
%ADD81R,0.90000X1.40000*%
%ADD83R,0.94000X1.02000*%
%ADD25R,1.20000X1.52400*%
%ADD82R,2.15000X2.20000*%
%ADD74R,2.15000X2.30000*%
%ADD29R,2.95000X4.90000*%
%ADD27R,3.35000X11.60000*%
%ADD76R,4.15000X4.82600*%
%ADD23R,3.00000X3.00000*%
%ADD12C,0.12700*%
%ADD18C,0.45000*%
%ADD17C,0.54000*%
%ADD21C,0.80000*%
%ADD19C,0.81000*%
%ADD71C,0.81280*%
%ADD70C,1.00000*%
%ADD79C,1.24000*%
%ADD87C,1.25590*%
%ADD85C,1.25900*%
%ADD20C,1.42240*%
%ADD75C,1.75000*%
%ADD22C,4.00000*%
%AMT84*0 Bullet Pad at angle 90*4,1,31,0.50800,-0.62950,0.50800,0.62950,0.12150,0.62950,0.05100,0.62550,-0.01860,0.61370,-0.08640,0.59420,-0.15160,0.56720,-0.21340,0.53310,-0.27100,0.49230,-0.32360,0.44530,-0.37070,0.39270,-0.41160,0.33510,-0.44580,0.27330,-0.47280,0.20810,-0.49240,0.14030,-0.50420,0.07070,-0.50820,0.00020,-0.50430,-0.07030,-0.49250,-0.13990,-0.47300,-0.20780,-0.44600,-0.27310,-0.41190,-0.33490,-0.37110,-0.39250,-0.32410,-0.44520,-0.27150,-0.49230,-0.21390,-0.53320,-0.15210,-0.56740,-0.08690,-0.59450,-0.01900,-0.61410,0.05060,-0.62600,0.12150,-0.62950,0.50800,-0.62950,0*%
%ADD84T84*%
%ADD28R,1.55000X0.60000*%
%ADD78R,0.98000X0.92000*%
%ADD80R,1.42000X1.00000*%
%ADD73R,2.20000X1.10000*%
%ADD72R,1.47320X1.42240*%
%ADD77R,1.82000X1.44000*%
%ADD24R,2.25000X1.75000*%
%ADD26R,3.07000X2.33000*%
%AMT86*0 Bullet Pad at angle 270*4,1,31,-0.50800,0.62800,-0.50800,-0.62800,-0.12000,-0.62800,-0.04970,-0.62410,0.01970,-0.61230,0.08740,-0.59280,0.15250,-0.56590,0.21410,-0.53180,0.27150,-0.49110,0.32400,-0.44420,0.37090,-0.39170,0.41170,-0.33430,0.44580,-0.27270,0.47280,-0.20760,0.49230,-0.13990,0.50410,-0.07050,0.50810,-0.00020,0.50420,0.07010,0.49240,0.13950,0.47290,0.20720,0.44600,0.27230,0.41200,0.33400,0.37130,0.39150,0.32440,0.44400,0.27190,0.49100,0.21450,0.53180,0.15290,0.56590,0.08780,0.59290,0.02010,0.61240,-0.04930,0.62420,-0.12000,0.62800,-0.50800,0.62800,0*%
%ADD86T86*%
X0Y0D02*
D02*
D12*
X43319770Y46283280D02*
Y45783280D01*
X43418880D01*
Y46154600D01*
X43821580D01*
Y45783280D01*
X44089250D01*
Y46443300D01*
G75*
G02*
X44119730Y46473780I30480J0D01*
G01*
X44999730D01*
G75*
G02*
X45022750Y46463280I0J-30480D01*
G01*
X45029770D01*
Y46963280D01*
X43329770D01*
Y46283280D01*
X43319770D01*
X43446130Y46627400D02*
X43794330D01*
Y46279150D01*
X43446130D01*
Y46627400D01*
X44170930Y46844600D02*
X44488630D01*
Y46511900D01*
X44170930D01*
Y46844600D01*
X44578430Y46704600D02*
X44901130D01*
Y46491900D01*
X44578430D01*
Y46704600D01*
X43326120Y46283280D02*
G36*
X43326120Y46283280D02*
Y45789630D01*
X43418880D01*
Y46154600D01*
X43821580D01*
Y45789630D01*
X44089250D01*
Y46443300D01*
G75*
G02*
X44090930Y46453270I30490J-10D01*
G01*
X43794330D01*
Y46279150D01*
X43446130D01*
Y46453270D01*
X43329770D01*
Y46283280D01*
X43326120D01*
G37*
X43329770Y46678250D02*
G36*
X43329770Y46678250D02*
Y46453270D01*
X43446130D01*
Y46627400D01*
X43794330D01*
Y46453270D01*
X44090930D01*
G75*
G02*
X44119730Y46473780I28810J-9980D01*
G01*
X44999730D01*
G75*
G02*
X45022750Y46463280I-10J-30500D01*
G01*
X45023420D01*
Y46678250D01*
X44901130D01*
Y46491900D01*
X44578430D01*
Y46678250D01*
X44488630D01*
Y46511900D01*
X44170930D01*
Y46678250D01*
X43329770D01*
G37*
Y46956930D02*
G36*
X43329770Y46956930D02*
Y46678250D01*
X44170930D01*
Y46844600D01*
X44488630D01*
Y46678250D01*
X44578430D01*
Y46704600D01*
X44901130D01*
Y46678250D01*
X45023420D01*
Y46956930D01*
X43329770D01*
G37*
X44029770Y45113280D02*
Y44413280D01*
X44069770Y44373280D01*
X44349770D01*
X44389770Y44333280D01*
Y44083280D01*
X44419770Y44053280D01*
X46389770D01*
X46479770Y44143280D01*
Y45343280D01*
X46399770Y45423280D01*
X46105210D01*
G75*
G02*
X46099740Y45422790I-5440J29950D01*
G01*
X45869280D01*
X45829770Y45383280D01*
Y45233280D01*
X45749770Y45153280D01*
X44069770D01*
X44029770Y45113280D01*
X45840930Y45389600D02*
X46228630D01*
Y44176900D01*
X45840930D01*
Y45389600D01*
X44095930Y45049600D02*
X44363630D01*
Y44776900D01*
X44095930D01*
Y45049600D01*
X44426130Y44327400D02*
X44564330D01*
Y44279900D01*
X44624630D01*
Y44333600D01*
X44792930D01*
Y44132950D01*
X44624630D01*
Y44186650D01*
X44564330D01*
Y44139150D01*
X44426130D01*
Y44327400D01*
X44559780Y44700750D02*
G75*
G02*
X44657250Y44603280I0J-97470D01*
G01*
G75*
G02*
X44559780Y44505810I-97470J0D01*
G01*
G75*
G02*
X44462310Y44603280I0J97470D01*
G01*
G75*
G02*
X44559780Y44700750I97470J0D01*
G01*
X44550930Y45137100D02*
X44828630D01*
Y44909400D01*
X44550930D01*
Y45137100D01*
X44759770Y44700750D02*
G75*
G02*
X44857240Y44603280I0J-97470D01*
G01*
G75*
G02*
X44759770Y44505810I-97470J0D01*
G01*
G75*
G02*
X44662300Y44603280I0J97470D01*
G01*
G75*
G02*
X44759770Y44700750I97470J0D01*
G01*
X44822430Y44334800D02*
X44995130D01*
Y44129700D01*
X44822430D01*
Y44334800D01*
X44871420Y44603280D02*
G75*
G02*
X45048120I88350J0D01*
G01*
G75*
G02*
X44871420I-88350J0D01*
G01*
X44910930Y45137100D02*
X45188630D01*
Y44909400D01*
X44910930D01*
Y45137100D01*
X45159770Y44700750D02*
G75*
G02*
X45257240Y44603280I0J-97470D01*
G01*
G75*
G02*
X45159770Y44505810I-97470J0D01*
G01*
G75*
G02*
X45062300Y44603280I0J97470D01*
G01*
G75*
G02*
X45159770Y44700750I97470J0D01*
G01*
X45250930Y45147100D02*
X45528630D01*
Y44919400D01*
X45250930D01*
Y45147100D01*
X45359770Y44700750D02*
G75*
G02*
X45457240Y44603280I0J-97470D01*
G01*
G75*
G02*
X45359770Y44505810I-97470J0D01*
G01*
G75*
G02*
X45262300Y44603280I0J97470D01*
G01*
G75*
G02*
X45359770Y44700750I97470J0D01*
G01*
X44389770Y44233270D02*
G36*
X44389770Y44233270D02*
Y44083280D01*
X44413420Y44059630D01*
X46396120D01*
X46473420Y44136930D01*
Y44233270D01*
X46228630D01*
Y44176900D01*
X45840930D01*
Y44233270D01*
X44995130D01*
Y44129700D01*
X44822430D01*
Y44233270D01*
X44792930D01*
Y44132950D01*
X44624630D01*
Y44186650D01*
X44564330D01*
Y44139150D01*
X44426130D01*
Y44233270D01*
X44389770D01*
G37*
X44036120Y44603280D02*
G36*
X44036120Y44603280D02*
Y44406930D01*
X44069770Y44373280D01*
X44349770D01*
X44389770Y44333280D01*
Y44233270D01*
X44426130D01*
Y44327400D01*
X44564330D01*
Y44279900D01*
X44624630D01*
Y44333600D01*
X44792930D01*
Y44233270D01*
X44822430D01*
Y44334800D01*
X44995130D01*
Y44233270D01*
X45840930D01*
Y44603280D01*
X45457240D01*
G75*
G02*
X45359770Y44505810I-97470J0D01*
G01*
G75*
G02*
X45262300Y44603280I0J97470D01*
G01*
X45257240D01*
G75*
G02*
X45159770Y44505810I-97470J0D01*
G01*
G75*
G02*
X45062300Y44603280I0J97470D01*
G01*
X45048120D01*
G75*
G02*
X44871420I-88350J0D01*
G01*
X44857240D01*
G75*
G02*
X44759770Y44505810I-97470J0D01*
G01*
G75*
G02*
X44662300Y44603280I0J97470D01*
G01*
X44657250D01*
G75*
G02*
X44559780Y44505810I-97470J0D01*
G01*
G75*
G02*
X44462310Y44603280I0J97470D01*
G01*
X44036120D01*
G37*
X46228630D02*
G36*
X46228630Y44603280D02*
Y44233270D01*
X46473420D01*
Y44603280D01*
X46228630D01*
G37*
X44036120Y44783250D02*
G36*
X44036120Y44783250D02*
Y44603280D01*
X44462310D01*
G75*
G02*
X44559780Y44700750I97470J0D01*
G01*
G75*
G02*
X44657250Y44603280I0J-97470D01*
G01*
X44662300D01*
G75*
G02*
X44759770Y44700750I97470J0D01*
G01*
G75*
G02*
X44857240Y44603280I0J-97470D01*
G01*
X44871420D01*
G75*
G02*
X45048120I88350J0D01*
G01*
X45062300D01*
G75*
G02*
X45159770Y44700750I97470J0D01*
G01*
G75*
G02*
X45257240Y44603280I0J-97470D01*
G01*
X45262300D01*
G75*
G02*
X45359770Y44700750I97470J0D01*
G01*
G75*
G02*
X45457240Y44603280I0J-97470D01*
G01*
X45840930D01*
Y44783250D01*
X44363630D01*
Y44776900D01*
X44095930D01*
Y44783250D01*
X44036120D01*
G37*
X46228630D02*
G36*
X46228630Y44783250D02*
Y44603280D01*
X46473420D01*
Y44783250D01*
X46228630D01*
G37*
X44036120Y45023250D02*
G36*
X44036120Y45023250D02*
Y44783250D01*
X44095930D01*
Y45023250D01*
X44036120D01*
G37*
X44363630D02*
G36*
X44363630Y45023250D02*
Y44783250D01*
X45840930D01*
Y45023250D01*
X45528630D01*
Y44919400D01*
X45250930D01*
Y45023250D01*
X45188630D01*
Y44909400D01*
X44910930D01*
Y45023250D01*
X44828630D01*
Y44909400D01*
X44550930D01*
Y45023250D01*
X44363630D01*
G37*
X46228630D02*
G36*
X46228630Y45023250D02*
Y44783250D01*
X46473420D01*
Y45023250D01*
X46228630D01*
G37*
X44036120Y45119630D02*
G36*
X44036120Y45119630D02*
Y45023250D01*
X44095930D01*
Y45049600D01*
X44363630D01*
Y45023250D01*
X44550930D01*
Y45137100D01*
X44828630D01*
Y45023250D01*
X44910930D01*
Y45137100D01*
X45188630D01*
Y45023250D01*
X45250930D01*
Y45147100D01*
X45528630D01*
Y45023250D01*
X45840930D01*
Y45389600D01*
X46228630D01*
Y45023250D01*
X46473420D01*
Y45349630D01*
X46406120Y45416930D01*
X45863420D01*
X45829770Y45383280D01*
Y45233280D01*
X45749770Y45153280D01*
X44069770D01*
X44036120Y45119630D01*
G37*
X44119730Y46443300D02*
Y45733300D01*
X44832430D01*
Y45915600D01*
X44999730D01*
Y46443300D01*
X44119730D01*
X44170930Y46414600D02*
X44488630D01*
Y46081900D01*
X44170930D01*
Y46414600D01*
X44578430Y46374600D02*
X44901130D01*
Y46161900D01*
X44578430D01*
Y46374600D01*
X44126080Y46248250D02*
G36*
X44126080Y46248250D02*
Y45739650D01*
X44832430D01*
Y45915600D01*
X44993380D01*
Y46248250D01*
X44901130D01*
Y46161900D01*
X44578430D01*
Y46248250D01*
X44488630D01*
Y46081900D01*
X44170930D01*
Y46248250D01*
X44126080D01*
G37*
Y46436950D02*
G36*
X44126080Y46436950D02*
Y46248250D01*
X44170930D01*
Y46414600D01*
X44488630D01*
Y46248250D01*
X44578430D01*
Y46374600D01*
X44901130D01*
Y46248250D01*
X44993380D01*
Y46436950D01*
X44126080D01*
G37*
X44439770Y45603280D02*
Y45243280D01*
X44489770Y45193280D01*
X45719770D01*
X45779770Y45253280D01*
Y45413280D01*
X45819770Y45453280D01*
X46099770D01*
X46189770Y45543280D01*
Y45903280D01*
X47029770D01*
Y45883280D01*
X47349770D01*
X47368650Y45864400D01*
X47499730D01*
G75*
G02*
X47511710Y45863280I0J-64630D01*
G01*
X47615930D01*
Y45993280D01*
X47389770D01*
Y46973280D01*
X45799770D01*
Y45993280D01*
X45469770Y45663280D01*
X44499770D01*
X44439770Y45603280D01*
X47415930Y45963100D02*
X47583630D01*
Y45890400D01*
X47415930D01*
Y45963100D01*
X46262430Y46956100D02*
X46417130D01*
Y46843400D01*
X46262430D01*
Y46956100D01*
X46269930Y46462600D02*
X46589630D01*
Y46216900D01*
X46269930D01*
Y46462600D01*
X46812430Y46145200D02*
X47007130D01*
Y45988500D01*
X46812430D01*
Y46145200D01*
X47054430Y46013100D02*
X47165130D01*
Y45908400D01*
X47054430D01*
Y46013100D01*
X47214430D02*
X47325130D01*
Y45908400D01*
X47214430D01*
Y46013100D01*
X44553130Y45434900D02*
X44826430D01*
Y45211650D01*
X44553130D01*
Y45434900D01*
X44913130D02*
X45186430D01*
Y45211650D01*
X44913130D01*
Y45434900D01*
X45253130Y45444900D02*
X45526430D01*
Y45221650D01*
X45253130D01*
Y45444900D01*
X44446120Y45323270D02*
G36*
X44446120Y45323270D02*
Y45236930D01*
X44483420Y45199630D01*
X45726120D01*
X45779770Y45253280D01*
Y45323270D01*
X45526430D01*
Y45221650D01*
X45253130D01*
Y45323270D01*
X45186430D01*
Y45211650D01*
X44913130D01*
Y45323270D01*
X44826430D01*
Y45211650D01*
X44553130D01*
Y45323270D01*
X44446120D01*
G37*
Y45609630D02*
G36*
X44446120Y45609630D02*
Y45323270D01*
X44553130D01*
Y45434900D01*
X44826430D01*
Y45323270D01*
X44913130D01*
Y45434900D01*
X45186430D01*
Y45323270D01*
X45253130D01*
Y45444900D01*
X45526430D01*
Y45323270D01*
X45779770D01*
Y45413280D01*
X45819770Y45453280D01*
X46099770D01*
X46189770Y45543280D01*
Y45903280D01*
X47029770D01*
Y45883280D01*
X47349770D01*
X47368650Y45864400D01*
X47499730D01*
G75*
G02*
X47511710Y45863280I20J-64420D01*
G01*
X47609580D01*
Y45926750D01*
X47583630D01*
Y45890400D01*
X47415930D01*
Y45926750D01*
X47325130D01*
Y45908400D01*
X47214430D01*
Y45926750D01*
X47165130D01*
Y45908400D01*
X47054430D01*
Y45926750D01*
X45733240D01*
X45469770Y45663280D01*
X44499770D01*
X44446120Y45609630D01*
G37*
X45799770Y45993280D02*
G36*
X45799770Y45993280D02*
X45733240Y45926750D01*
X47054430D01*
Y46013100D01*
X47165130D01*
Y45926750D01*
X47214430D01*
Y46013100D01*
X47325130D01*
Y45926750D01*
X47415930D01*
Y45963100D01*
X47583630D01*
Y45926750D01*
X47609580D01*
Y45993280D01*
X47389770D01*
Y46066850D01*
X47007130D01*
Y45988500D01*
X46812430D01*
Y46066850D01*
X45799770D01*
Y45993280D01*
G37*
Y46339750D02*
G36*
X45799770Y46339750D02*
Y46066850D01*
X46812430D01*
Y46145200D01*
X47007130D01*
Y46066850D01*
X47389770D01*
Y46339750D01*
X46589630D01*
Y46216900D01*
X46269930D01*
Y46339750D01*
X45799770D01*
G37*
Y46899750D02*
G36*
X45799770Y46899750D02*
Y46339750D01*
X46269930D01*
Y46462600D01*
X46589630D01*
Y46339750D01*
X47389770D01*
Y46899750D01*
X46417130D01*
Y46843400D01*
X46262430D01*
Y46899750D01*
X45799770D01*
G37*
Y46966930D02*
G36*
X45799770Y46966930D02*
Y46899750D01*
X46262430D01*
Y46956100D01*
X46417130D01*
Y46899750D01*
X47389770D01*
Y46966930D01*
X45799770D01*
G37*
X46239770Y45833280D02*
Y45513280D01*
X46299280Y45453770D01*
X46399740D01*
G75*
G02*
X46405210Y45453280I30J-30440D01*
G01*
X46479770D01*
X46549770Y45383280D01*
Y44143280D01*
X46639770Y44053280D01*
X47639770D01*
X47729770Y44143280D01*
Y45523280D01*
X47689770Y45563280D01*
X47629770D01*
X47599770Y45593280D01*
Y45594150D01*
X47598130D01*
Y45616400D01*
X47395930D01*
Y45729100D01*
X47598130D01*
Y45743280D01*
X47531110D01*
G75*
G02*
X47499730Y45735150I-31380J56490D01*
G01*
X47024930D01*
Y45703550D01*
X46794630D01*
Y45748420D01*
X46749770Y45793280D01*
Y45833280D01*
X46710260Y45872790D01*
X46279280D01*
X46239770Y45833280D01*
X47431420Y44783280D02*
G75*
G02*
X47608120I88350J0D01*
G01*
G75*
G02*
X47431420I-88350J0D01*
G01*
X47510330Y45538500D02*
X47710330D01*
Y45343600D01*
X47510330D01*
Y45538500D01*
X46870930Y45389600D02*
X47258630D01*
Y44176900D01*
X46870930D01*
Y45389600D01*
X46249930Y45809600D02*
X46609630D01*
Y45523900D01*
X46249930D01*
Y45809600D01*
X46549770Y44783280D02*
G36*
X46549770Y44783280D02*
Y44143280D01*
X46633420Y44059630D01*
X47646120D01*
X47723420Y44136930D01*
Y44783280D01*
X47608120D01*
G75*
G02*
X47431420I-88350J0D01*
G01*
X47258630D01*
Y44176900D01*
X46870930D01*
Y44783280D01*
X46549770D01*
G37*
Y45383280D02*
G36*
X46549770Y45383280D02*
Y44783280D01*
X46870930D01*
Y45389600D01*
X47258630D01*
Y44783280D01*
X47431420D01*
G75*
G02*
X47608120I88350J0D01*
G01*
X47723420D01*
Y45441050D01*
X47710330D01*
Y45343600D01*
X47510330D01*
Y45441050D01*
X46492000D01*
X46549770Y45383280D01*
G37*
X46246120Y45666750D02*
G36*
X46246120Y45666750D02*
Y45506930D01*
X46299280Y45453770D01*
X46399740D01*
G75*
G02*
X46405210Y45453280I70J-30020D01*
G01*
X46479770D01*
X46492000Y45441050D01*
X47510330D01*
Y45538500D01*
X47710330D01*
Y45441050D01*
X47723420D01*
Y45529630D01*
X47689770Y45563280D01*
X47629770D01*
X47599770Y45593280D01*
Y45594150D01*
X47598130D01*
Y45616400D01*
X47395930D01*
Y45666750D01*
X46609630D01*
Y45523900D01*
X46249930D01*
Y45666750D01*
X46246120D01*
G37*
Y45839630D02*
G36*
X46246120Y45839630D02*
Y45666750D01*
X46249930D01*
Y45809600D01*
X46609630D01*
Y45666750D01*
X47395930D01*
Y45729100D01*
X47598130D01*
Y45743280D01*
X47531110D01*
G75*
G02*
X47499730Y45735150I-31410J56610D01*
G01*
X47024930D01*
Y45703550D01*
X46794630D01*
Y45748420D01*
X46749770Y45793280D01*
Y45833280D01*
X46716610Y45866440D01*
X46272930D01*
X46246120Y45839630D01*
G37*
D02*
D17*
X43497230Y45953280D02*
X43398230D01*
X43620230Y46076280D02*
Y46175300D01*
X43743230Y45953280D02*
X43842230D01*
X44149270Y44913280D02*
X44075230D01*
X44229770Y44830280D02*
Y44756300D01*
Y44996280D02*
Y45070300D01*
X44241360Y46589870D02*
X44150230Y46498740D01*
X44241360Y46766690D02*
X44150230Y46857820D01*
X44249270Y46248280D02*
X44150230D01*
X44310270Y44913280D02*
X44384230D01*
X44329770Y46160280D02*
Y46061300D01*
X44410270Y46248280D02*
X44509230D01*
X44418180Y46589870D02*
X44509230Y46498820D01*
X44418180Y46766690D02*
X44509230Y46857740D01*
X44528580Y44572080D02*
X44476260Y44519760D01*
X44528580Y44634480D02*
X44476260Y44686800D01*
X44590980Y44572080D02*
X44643300Y44519760D01*
X44590980Y44634480D02*
X44643300Y44686800D01*
X44604270Y45023280D02*
X44530230D01*
X44656770Y46268280D02*
X44557730D01*
X44656770Y46598280D02*
X44557730D01*
X44689770Y44962780D02*
Y44888800D01*
X44728570Y44572080D02*
X44676250Y44519760D01*
X44728570Y44634480D02*
X44676250Y44686800D01*
X44739770Y46240280D02*
Y46141300D01*
Y46254640D02*
Y46155640D01*
Y46281920D02*
Y46380920D01*
Y46296280D02*
Y46395300D01*
Y46626280D02*
Y46725300D01*
X44775270Y45023280D02*
X44849230D01*
X44790970Y44572080D02*
X44843290Y44519760D01*
X44790970Y44634480D02*
X44843290Y44686800D01*
X44822770Y46268280D02*
X44921730D01*
X44822770Y46598280D02*
X44921730D01*
X44908770Y44183080D02*
Y44109100D01*
Y44281480D02*
Y44355500D01*
X44910770Y45813280D02*
X44811730D01*
X44930770Y45837280D02*
Y45936300D01*
X44935020Y44578530D02*
X44882700Y44526210D01*
X44935020Y44628030D02*
X44882700Y44680350D01*
X44941770Y44232280D02*
X45015730D01*
X44964270Y45023280D02*
X44890230D01*
X44984520Y44578530D02*
X45036840Y44526210D01*
X44984520Y44628030D02*
X45036840Y44680350D01*
X45049770Y44962780D02*
Y44888800D01*
X45128570Y44572080D02*
X45076250Y44519760D01*
X45128570Y44634480D02*
X45076250Y44686800D01*
X45135270Y45023280D02*
X45209230D01*
X45190970Y44572080D02*
X45243290Y44519760D01*
X45190970Y44634480D02*
X45243290Y44686800D01*
X45304280Y45033280D02*
X45230280D01*
X45328570Y44572080D02*
X45276250Y44519760D01*
X45328570Y44634480D02*
X45276250Y44686800D01*
X45389780Y44972780D02*
Y44898800D01*
X45390970Y44572080D02*
X45443290Y44519760D01*
X45390970Y44634480D02*
X45443290Y44686800D01*
X45475280Y45033280D02*
X45549280D01*
X45886360Y44634870D02*
X45820230Y44568740D01*
X45886360Y44931690D02*
X45820230Y44997820D01*
X46183180Y44634870D02*
X46249230Y44568820D01*
X46183180Y44931690D02*
X46249230Y44997740D01*
X46295770Y46899780D02*
X46241730D01*
X46303270Y46339780D02*
X46249230D01*
X46339770Y46876780D02*
Y46822800D01*
X46383770Y46899780D02*
X46437730D01*
X46429770Y45577280D02*
Y45503300D01*
Y45756280D02*
Y45830300D01*
Y46250280D02*
Y46196300D01*
Y46429280D02*
Y46483300D01*
X46556270Y45666780D02*
X46630230D01*
X46556270Y46339780D02*
X46610230D01*
X46845770Y46066880D02*
X46791730D01*
X46909770Y46021880D02*
Y45967900D01*
Y46111880D02*
Y46165900D01*
X46924270Y44783280D02*
X46850230D01*
X46973770Y46066880D02*
X47027730D01*
X47064770Y44230280D02*
Y44156300D01*
Y45336280D02*
Y45410300D01*
X47087770Y45960780D02*
X47033730D01*
X47109770Y45979780D02*
Y46033800D01*
X47131770Y45960780D02*
X47185730D01*
X47205270Y44783280D02*
X47279230D01*
X47247770Y45960780D02*
X47193730D01*
X47269770Y45979780D02*
Y46033800D01*
X47291770Y45960780D02*
X47345730D01*
X47449270Y45672780D02*
X47375230D01*
X47449270Y45926780D02*
X47395230D01*
X47484770Y44783280D02*
X47410770D01*
X47499770Y45669780D02*
Y45595800D01*
X47519770Y44748280D02*
Y44674280D01*
Y44818280D02*
Y44892280D01*
X47554770Y44783280D02*
X47628770D01*
X47563650Y45441060D02*
X47489630D01*
X47610310Y45396940D02*
Y45322900D01*
D02*
D18*
X44305230Y44233280D02*
X43979770D01*
X44708770D02*
X44495230D01*
X44739770Y46268280D02*
X46429770Y45666780D02*
Y45649780D01*
X46636270Y45443280D01*
X47489270D01*
X47499770Y45453780D01*
Y45672780D01*
X46429770Y46339780D02*
X46723270D01*
X46909770Y46153280D01*
Y46066880D01*
X47064770Y44783280D02*
Y45443280D01*
X47592530D01*
X47594750Y45441060D01*
X47610310D01*
X47499770Y45672780D02*
Y45441060D01*
X47610310D01*
X47499770Y46053780D02*
Y46331740D01*
X47501310Y46333280D01*
X47688770Y46623280D02*
X47689770D01*
X47690770Y46844280D02*
Y46833280D01*
X47689770D01*
X47779770Y46343280D02*
Y45873280D01*
X47769770Y45863280D01*
X47851310Y45441060D02*
X47977550D01*
X48039770Y45503280D01*
Y45672780D01*
X47888770Y46622280D02*
Y46841280D01*
X47890770Y46843280D01*
X48039770Y46053780D02*
Y46383280D01*
X47888770Y46534280D01*
Y46622280D01*
D02*
D19*
X45088770Y45813280D02*
X45459770D01*
X45529770Y45883280D01*
Y46280130D01*
X45529410Y46280490D01*
Y46329770D01*
X46909770Y45799680D02*
X47499770Y45799780D02*
X46909870D01*
X46909770Y45799680D01*
X47499770Y45926780D02*
X47706270D01*
X47769770Y45863280D01*
D02*
D70*
X44229770Y45353280D02*
Y45383280D01*
X44159770Y45453280D01*
X43619770D01*
X44329770Y46248280D02*
X44719770D01*
X44739770Y46268280D01*
X44334770Y45603280D02*
X44329770D01*
X44229770Y45503280D01*
Y45353280D01*
X44739770Y46268280D02*
Y45913280D01*
X44829770Y45823280D01*
X44920770D01*
X44930770Y45813280D01*
X44739770Y46598280D02*
X44409770D01*
X44329770Y46678280D01*
X46339770Y47086780D02*
X45539520D01*
X45529410Y47076670D01*
D02*
D71*
X43979770Y44233280D03*
X44739770Y46268280D03*
X47689770Y46623280D03*
Y46833280D03*
D02*
D20*
X44559780Y44603280D03*
X44759770D03*
X45159770D03*
X45359770D03*
X45529410Y46329770D03*
X46909770Y45799680D03*
D02*
D21*
X47701770Y45713280D03*
Y45863280D03*
Y46013280D03*
X47831770Y45713280D03*
Y45863280D03*
Y46013280D03*
D02*
D22*
X43450230Y44225000D03*
Y47215000D03*
X48000230Y44225000D03*
Y47215000D03*
D02*
D23*
X43619770Y44953280D03*
Y45453280D03*
X43620230Y45953280D03*
Y46453280D03*
D02*
D24*
X44689770Y45023280D03*
Y45323280D03*
X45049770Y45023280D03*
Y45323280D03*
X45389780Y45033280D03*
Y45333280D03*
D02*
D25*
X44708770Y44233280D03*
X44908770Y44232280D03*
X47688770Y46623280D03*
X47690770Y46844280D03*
X47888770Y46622280D03*
X47890770Y46843280D03*
D02*
D26*
X46429770Y45666780D03*
Y46339780D03*
D02*
D27*
X46034770Y44783280D03*
X47064770D03*
D02*
D28*
X47499770Y45672780D03*
Y45799780D03*
Y45926780D03*
Y46053780D03*
X48039770Y45672780D03*
Y45799780D03*
Y45926780D03*
Y46053780D03*
D02*
D29*
X47769770Y45863280D03*
D02*
D72*
X47610310Y45441060D03*
X47851310D03*
D02*
D73*
X44739770Y46268280D03*
Y46598280D03*
D02*
D74*
X44329770Y46248280D03*
Y46678280D03*
D02*
D75*
X44109770Y47163280D03*
X44617770D03*
D02*
D76*
X45529410Y46329770D03*
Y47076670D03*
D02*
D77*
X46909770Y45799680D03*
Y46066880D03*
D02*
D78*
X47109770Y45805780D03*
Y45960780D03*
X47269770Y45805780D03*
Y45960780D03*
D02*
D79*
X44899770Y47213280D03*
X44959770Y44603280D03*
X47501310Y46333280D03*
X47519770Y44783280D03*
X47779770Y46343280D03*
X48039770Y46353280D03*
D02*
D80*
X46339770Y46899780D03*
Y47086780D03*
D02*
D81*
X44305230Y44233280D03*
X44495230D03*
D02*
D82*
X44229770Y44913280D03*
Y45353280D03*
D02*
D83*
X44930770Y45813280D03*
X45088770D03*
D02*
D84*
X44334770Y45603280D03*
D02*
D86*
X44484770D03*
X0Y0D02*
M02*
