G05
M48
;#@! TF.GenerationSoftware,DesignSpark,DesignSpark PCB,12.0.5940
;#@! TF.CreationDate,2025-08-05T08:41:58+00:00*
;#@! TF.FileFunction,Plated,1,4,PTH
;FILE_FORMAT=3:5
;TYPE=PLATED
INCH,TZ
FMAT,2
T1C000.01575
T2C000.01600
T3C000.03150
T4C000.03189
T5C000.03200
T6C000.04331
T7C000.12811
%
T001
X179838Y70261
X179838Y76167
X179838Y82072
X184956Y70261
X184956Y76167
X184956Y82072
T002
X33303Y11993
X63224Y92111
X179366Y106088
X179366Y114356
T003
X69523Y129316
X71885Y26560
X171946Y94670
X172673Y33647
X182909Y95064
X193145Y95458
T004
X38421Y127348
X58421Y127348
T005
X56138Y26560
X64011Y26560
X79759Y26560
X87633Y26560
X94312Y94532
X148657Y73663
T006
X19130Y40340
X19130Y60025
X19148Y79710
X19148Y99395
T007
X12455Y11667
X12455Y129384
X191589Y11667
X191589Y129384
M30
