G04 DesignSpark PCB Gerber Version 12.0 Build 5942*
%FSLAX35Y35*%
%MOMM*%
%ADD101R,0.81000X1.31000*%
%ADD103R,0.84600X0.92600*%
%ADD89R,1.08000X1.40400*%
%ADD102R,1.93500X1.98500*%
%ADD96R,1.93500X2.08500*%
%ADD93R,2.65500X4.60500*%
%ADD91R,3.01500X11.26500*%
%ADD97R,3.73500X4.41100*%
%ADD16C,0.02540*%
%ADD107C,1.13030*%
%ADD105C,1.13320*%
%AMT104*0 Bullet Pad at angle 90*4,1,30,0.44510,-0.56660,0.44510,0.56660,0.12150,0.56660,0.05570,0.56280,-0.00920,0.55140,-0.07230,0.53250,-0.13280,0.50640,-0.18990,0.47350,-0.24280,0.43420,-0.29070,0.38900,-0.33310,0.33850,-0.36930,0.28340,-0.39890,0.22450,-0.42140,0.16260,-0.43660,0.09850,-0.44430,0.03300,-0.44430,-0.03290,-0.43670,-0.09840,-0.42150,-0.16250,-0.39900,-0.22440,-0.36940,-0.28330,-0.33320,-0.33840,-0.29080,-0.38890,-0.24290,-0.43410,-0.19000,-0.47350,-0.13290,-0.50650,-0.07240,-0.53260,-0.00930,-0.55150,0.05560,-0.56300,0.12150,-0.56660,0.44510,-0.56660,0*%
%ADD104T104*%
%ADD92R,1.49000X0.54000*%
%ADD99R,0.88800X0.82800*%
%ADD100R,1.32000X0.90000*%
%ADD95R,2.09000X0.99000*%
%ADD94R,1.33100X1.28020*%
%ADD98R,1.67600X1.29600*%
%ADD88R,2.07500X1.57500*%
%ADD90R,2.83700X2.09700*%
%AMT106*0 Bullet Pad at angle 270*4,1,30,-0.44520,0.56520,-0.44520,-0.56520,-0.12000,-0.56520,-0.05440,-0.56140,0.01030,-0.55000,0.07330,-0.53120,0.13370,-0.50520,0.19060,-0.47230,0.24330,-0.43310,0.29110,-0.38800,0.33340,-0.33770,0.36950,-0.28280,0.39900,-0.22410,0.42150,-0.16230,0.43670,-0.09830,0.44430,-0.03300,0.44430,0.03270,0.43670,0.09800,0.42160,0.16200,0.39910,0.22380,0.36960,0.28250,0.33350,0.33740,0.29130,0.38780,0.24350,0.43290,0.19080,0.47220,0.13390,0.50510,0.07360,0.53120,0.01060,0.55010,-0.05410,0.56150,-0.12000,0.56520,-0.44520,0.56520,0*%
%ADD106T106*%
X0Y0D02*
D02*
D16*
X4765890Y1779630D02*
X4505890D01*
Y2089630D01*
X4765890D01*
Y1779630D01*
G36*
X4765890Y1779630D02*
X4505890D01*
Y2089630D01*
X4765890D01*
Y1779630D01*
G37*
D02*
D88*
X1555890Y1094630D03*
Y1394630D03*
X1915890Y1094630D03*
Y1394630D03*
X2255900Y1104630D03*
Y1404630D03*
D02*
D89*
X1574890Y304630D03*
X1774890Y303630D03*
X4554890Y2694630D03*
X4556890Y2915630D03*
X4754890Y2693630D03*
X4756890Y2914630D03*
D02*
D90*
X3295890Y1738130D03*
Y2411130D03*
D02*
D91*
X2900890Y854630D03*
X3930890D03*
D02*
D92*
X4365890Y1744130D03*
Y1871130D03*
Y1998130D03*
Y2125130D03*
X4905890Y1744130D03*
Y1871130D03*
Y1998130D03*
Y2125130D03*
D02*
D93*
X4635890Y1934630D03*
D02*
D94*
X4476430Y1512410D03*
X4717430D03*
D02*
D95*
X1605890Y2339630D03*
Y2669630D03*
D02*
D96*
X1195890Y2319630D03*
Y2749630D03*
D02*
D97*
X2395530Y2401120D03*
Y3148020D03*
D02*
D98*
X3775890Y1871030D03*
Y2138230D03*
D02*
D99*
X3975890Y1877130D03*
Y2032130D03*
X4135890Y1877130D03*
Y2032130D03*
D02*
D100*
X3205890Y2971130D03*
Y3158130D03*
D02*
D101*
X1171350Y304630D03*
X1361350D03*
D02*
D102*
X1095890Y984630D03*
Y1424630D03*
D02*
D103*
X1796890Y1884630D03*
X1954890D03*
D02*
D104*
X1200890Y1674630D03*
D02*
D106*
X1350890D03*
X0Y0D02*
M02*
