G04 DesignSpark PCB Gerber Version 12.0 Build 5942*
%FSLAX35Y35*%
%MOMM*%
%ADD23R,3.00000X3.00000*%
%ADD18C,0.45000*%
%ADD21C,0.80000*%
%ADD19C,0.81000*%
%ADD71C,0.81280*%
%ADD79C,1.24000*%
%ADD20C,1.42240*%
%ADD75C,1.75000*%
%ADD22C,4.00000*%
X0Y0D02*
D02*
D18*
X1483890Y3234630D02*
Y2656630D01*
X1615890Y2524630D01*
Y2349630D01*
X1605890Y2339630D01*
D02*
D19*
X486350Y2524630D02*
Y2745090D01*
X975890Y3234630D01*
X2395530Y2401120D02*
X2809400D01*
X3335890Y1874630D01*
X3762290D01*
X3765890Y1871030D01*
X3775890D01*
D02*
D71*
X845890Y304630D03*
X1605890Y2339630D03*
X4555890Y2694630D03*
Y2904630D03*
D02*
D20*
X1425900Y674630D03*
X1625890D03*
X2025890D03*
X2225890D03*
X2395530Y2401120D03*
X3775890Y1871030D03*
D02*
D21*
X4567890Y1784630D03*
Y1934630D03*
Y2084630D03*
X4697890Y1784630D03*
Y1934630D03*
Y2084630D03*
D02*
D22*
X316350Y296350D03*
Y3286350D03*
X4866350Y296350D03*
Y3286350D03*
D02*
D23*
X485890Y1024630D03*
Y1524630D03*
X486350Y2024630D03*
Y2524630D03*
D02*
D75*
X975890Y3234630D03*
X1483890D03*
D02*
D79*
X1765890Y3284630D03*
X1825890Y674630D03*
X4367430Y2404630D03*
X4385890Y854630D03*
X4645890Y2414630D03*
X4905890Y2424630D03*
X0Y0D02*
M02*
