G04 DesignSpark PCB Gerber Version 12.0 Build 5942*
%FSLAX35Y35*%
%MOMM*%
%ADD21R,3.00000X3.00000*%
%ADD131C,0.00001*%
%ADD19C,0.81280*%
%ADD74C,1.21700*%
%ADD78C,1.24000*%
%ADD17C,1.42240*%
%AMT18*0 Rounded Rectangle Pad at angle 90*4,1,28,0.42500,-0.21200,0.42500,0.21200,0.42160,0.23790,0.41160,0.26200,0.39570,0.28270,0.37500,0.29860,0.35090,0.30860,0.32500,0.31200,-0.32500,0.31200,-0.35090,0.30860,-0.37500,0.29860,-0.39570,0.28270,-0.41160,0.26200,-0.42160,0.23790,-0.42500,0.21200,-0.42500,-0.21200,-0.42160,-0.23790,-0.41160,-0.26200,-0.39570,-0.28270,-0.37500,-0.29860,-0.35090,-0.30860,-0.32500,-0.31200,0.32500,-0.31200,0.35090,-0.30860,0.37500,-0.29860,0.39570,-0.28270,0.41160,-0.26200,0.42160,-0.23790,0.42500,-0.21200,0*%
%ADD18T18*%
%ADD70C,1.52400*%
%ADD20C,4.00000*%
X0Y0D02*
D02*
D17*
X45329540Y44493280D03*
X48179540Y44633280D03*
Y44833280D03*
Y45233280D03*
Y45433280D03*
D02*
D18*
X46376250Y46058500D03*
D02*
D19*
X44649540Y44494000D03*
X45390000Y46225000D03*
X45639540Y44893280D03*
D02*
D70*
X46597500Y45282500D03*
Y45657500D03*
X46785000Y45470000D03*
X46972500Y45282500D03*
Y45657500D03*
D02*
D20*
X43190000Y44225000D03*
Y47215000D03*
X48200000Y44225000D03*
Y47215000D03*
D02*
D21*
X43360000Y46035000D03*
Y46535000D03*
X43370000Y44855000D03*
Y45355000D03*
D02*
D74*
X43870000Y46147000D03*
Y46655000D03*
D02*
D78*
X43880000Y45834990D03*
X43890000Y45315000D03*
X45649540Y45573280D03*
X46039540D03*
X46120000Y46665000D03*
X46285000Y44763280D03*
X47289540D03*
X48179540Y45033280D03*
D02*
D131*
X42943350Y47441650D02*
Y43998350D01*
X43096960D01*
G75*
G02*
X42946490Y44198000I93040J226650D01*
G01*
X42991830D01*
G75*
G03*
X43163000Y44026830I198170J27000D01*
G01*
Y43998350D01*
X43217000D01*
Y44026830D01*
G75*
G03*
X43388170Y44198000I-27000J198170D01*
G01*
X43433510D01*
G75*
G02*
X43283040Y43998350I-243510J27000D01*
G01*
X48106960D01*
G75*
G02*
X47956490Y44198000I93040J226650D01*
G01*
X48001830D01*
G75*
G03*
X48173000Y44026830I198170J27000D01*
G01*
Y43998350D01*
X48227000D01*
Y44026830D01*
G75*
G03*
X48398170Y44198000I-27000J198170D01*
G01*
X48443510D01*
G75*
G02*
X48293040Y43998350I-243510J27000D01*
G01*
X48496650D01*
Y45596930D01*
X47435890D01*
Y44953280D01*
G75*
G02*
X47435430Y44950920I-6350J10D01*
G01*
X47435890Y44613290D01*
G75*
G02*
Y44613280I-6370J0D01*
G01*
G75*
G02*
X47429540Y44606930I-6350J0D01*
G01*
X43679540D01*
G75*
G02*
X43673190Y44613280I0J6350D01*
G01*
Y45603280D01*
Y45643280D01*
Y45703280D01*
G75*
G02*
X43679540Y45709630I6350J0D01*
G01*
X46383190D01*
Y46009520D01*
X46325970D01*
G75*
G02*
X46315970Y46019520I0J10000D01*
G01*
Y46097480D01*
G75*
G02*
X46325970Y46107480I10000J0D01*
G01*
X46383190D01*
Y46256930D01*
X45919540D01*
G75*
G02*
X45913190Y46263280I0J6350D01*
G01*
Y46963280D01*
G75*
G02*
X45919540Y46969630I6350J0D01*
G01*
X47429540D01*
G75*
G02*
X47435890Y46963280I0J-6350D01*
G01*
Y45709630D01*
X48496650D01*
Y47441650D01*
X48293040D01*
G75*
G02*
X48443510Y47242000I-93040J-226650D01*
G01*
X48398170D01*
G75*
G03*
X48227000Y47413170I-198170J-27000D01*
G01*
Y47441650D01*
X48173000D01*
Y47413170D01*
G75*
G03*
X48001830Y47242000I27000J-198170D01*
G01*
X47956490D01*
G75*
G02*
X48106960Y47441650I243510J-27000D01*
G01*
X43283040D01*
G75*
G02*
X43433510Y47242000I-93040J-226650D01*
G01*
X43388170D01*
G75*
G03*
X43217000Y47413170I-198170J-27000D01*
G01*
Y47441650D01*
X43163000D01*
Y47413170D01*
G75*
G03*
X42991830Y47242000I27000J-198170D01*
G01*
X42946490D01*
G75*
G02*
X43096960Y47441650I243510J-27000D01*
G01*
X42943350D01*
X48227000Y47016830D02*
G75*
G03*
X48398170Y47188000I-27000J198170D01*
G01*
X48443510D01*
G75*
G02*
X48227000Y46971490I-243510J27000D01*
G01*
Y47016830D01*
X43824190Y45807990D02*
G75*
G03*
X43853000Y45779180I55810J27000D01*
G01*
Y45731450D01*
G75*
G02*
X43776460Y45807990I27000J103540D01*
G01*
X43824190D01*
X43853000Y45938530D02*
Y45890800D01*
G75*
G03*
X43824190Y45861990I27000J-55810D01*
G01*
X43776460D01*
G75*
G02*
X43853000Y45938530I103540J-27000D01*
G01*
X43791370Y46147000D02*
G75*
G02*
X43948630I78630J0D01*
G01*
G75*
G02*
X43791370I-78630J0D01*
G01*
X43907000Y45779180D02*
G75*
G03*
X43935810Y45807990I-27000J55810D01*
G01*
X43983540D01*
G75*
G02*
X43907000Y45731450I-103540J27000D01*
G01*
Y45779180D01*
Y45938530D02*
G75*
G02*
X43983540Y45861990I-27000J-103540D01*
G01*
X43935810D01*
G75*
G03*
X43907000Y45890800I-55810J-27000D01*
G01*
Y45938530D01*
X43791370Y46655000D02*
G75*
G02*
X43948630I78630J0D01*
G01*
G75*
G02*
X43791370I-78630J0D01*
G01*
X45331580Y46225000D02*
G75*
G02*
X45448420I58420J0D01*
G01*
G75*
G02*
X45331580I-58420J0D01*
G01*
X48001830Y47188000D02*
G75*
G03*
X48173000Y47016830I198170J27000D01*
G01*
Y46971490D01*
G75*
G02*
X47956490Y47188000I27000J243510D01*
G01*
X48001830D01*
X43165000Y46008000D02*
X43210000D01*
Y45885000D01*
X43333000D01*
Y45840000D01*
X43165000D01*
Y46008000D01*
X43175000Y45328000D02*
X43220000D01*
Y45205000D01*
X43343000D01*
Y45160000D01*
X43175000D01*
Y45328000D01*
X43202220Y45022780D02*
X43537780D01*
Y44687220D01*
X43202220D01*
Y45022780D01*
X43217000Y44468510D02*
G75*
G02*
X43433510Y44252000I-27000J-243510D01*
G01*
X43388170D01*
G75*
G03*
X43217000Y44423170I-198170J-27000D01*
G01*
Y44468510D01*
X43175000Y45550000D02*
X43343000D01*
Y45505000D01*
X43220000D01*
Y45382000D01*
X43175000D01*
Y45550000D01*
X43165000Y46230000D02*
X43333000D01*
Y46185000D01*
X43210000D01*
Y46062000D01*
X43165000D01*
Y46230000D01*
X43192220Y46702780D02*
X43527780D01*
Y46367220D01*
X43192220D01*
Y46702780D01*
X43387000Y45885000D02*
X43510000D01*
Y46008000D01*
X43555000D01*
Y45840000D01*
X43387000D01*
Y45885000D01*
X43397000Y45205000D02*
X43520000D01*
Y45328000D01*
X43565000D01*
Y45160000D01*
X43397000D01*
Y45205000D01*
Y45550000D02*
X43565000D01*
Y45382000D01*
X43520000D01*
Y45505000D01*
X43397000D01*
Y45550000D01*
X43387000Y46230000D02*
X43555000D01*
Y46062000D01*
X43510000D01*
Y46185000D01*
X43387000D01*
Y46230000D01*
X43217000Y47016830D02*
G75*
G03*
X43388170Y47188000I-27000J198170D01*
G01*
X43433510D01*
G75*
G02*
X43217000Y46971490I-243510J27000D01*
G01*
Y47016830D01*
X43163000Y44468510D02*
Y44423170D01*
G75*
G03*
X42991830Y44252000I27000J-198170D01*
G01*
X42946490D01*
G75*
G02*
X43163000Y44468510I243510J-27000D01*
G01*
X42991830Y47188000D02*
G75*
G03*
X43163000Y47016830I198170J27000D01*
G01*
Y46971490D01*
G75*
G02*
X42946490Y47188000I27000J243510D01*
G01*
X42991830D01*
X48173000Y44468510D02*
Y44423170D01*
G75*
G03*
X48001830Y44252000I27000J-198170D01*
G01*
X47956490D01*
G75*
G02*
X48173000Y44468510I243510J-27000D01*
G01*
X48090640Y44633280D02*
G75*
G02*
X48268440I88900J0D01*
G01*
G75*
G02*
X48090640I-88900J0D01*
G01*
X48227000Y44468510D02*
G75*
G02*
X48443510Y44252000I-27000J-243510D01*
G01*
X48398170D01*
G75*
G03*
X48227000Y44423170I-198170J-27000D01*
G01*
Y44468510D01*
X48090640Y44833280D02*
G75*
G02*
X48268440I88900J0D01*
G01*
G75*
G02*
X48090640I-88900J0D01*
G01*
Y45233280D02*
G75*
G02*
X48268440I88900J0D01*
G01*
G75*
G02*
X48090640I-88900J0D01*
G01*
X48179540Y45113060D02*
G75*
G02*
X48259320Y45033280I0J-79780D01*
G01*
G75*
G02*
X48179540Y44953500I-79780J0D01*
G01*
G75*
G02*
X48099760Y45033280I0J79780D01*
G01*
G75*
G02*
X48179540Y45113060I79780J0D01*
G01*
X48090640Y45433280D02*
G75*
G02*
X48268440I88900J0D01*
G01*
G75*
G02*
X48090640I-88900J0D01*
G01*
X44591120Y44494000D02*
G75*
G02*
X44707960I58420J0D01*
G01*
G75*
G02*
X44591120I-58420J0D01*
G01*
X45240640Y44493280D02*
G75*
G02*
X45418440I88900J0D01*
G01*
G75*
G02*
X45240640I-88900J0D01*
G01*
X42943350Y44360250D02*
G36*
X42943350Y44360250D02*
Y43998350D01*
X43096960D01*
G75*
G02*
X42946490Y44198000I93030J226640D01*
G01*
X42991830D01*
G75*
G03*
X43163000Y44026830I198180J27010D01*
G01*
Y43998350D01*
X43217000D01*
Y44026830D01*
G75*
G03*
X43388170Y44198000I-27010J198180D01*
G01*
X43433510D01*
G75*
G02*
X43283040Y43998350I-243500J26990D01*
G01*
X48106960D01*
G75*
G02*
X47956490Y44198000I93030J226640D01*
G01*
X48001830D01*
G75*
G03*
X48173000Y44026830I198180J27010D01*
G01*
Y43998350D01*
X48227000D01*
Y44026830D01*
G75*
G03*
X48398170Y44198000I-27010J198180D01*
G01*
X48443510D01*
G75*
G02*
X48293040Y43998350I-243500J26990D01*
G01*
X48496650D01*
Y44360250D01*
X48404280D01*
G75*
G02*
X48443510Y44252000I-204300J-135270D01*
G01*
X48398170D01*
G75*
G03*
X48347330Y44360250I-198180J-27010D01*
G01*
X48052670D01*
G75*
G03*
X48001830Y44252000I147340J-135260D01*
G01*
X47956490D01*
G75*
G02*
X47995720Y44360250I243530J-27020D01*
G01*
X43394280D01*
G75*
G02*
X43433510Y44252000I-204300J-135270D01*
G01*
X43388170D01*
G75*
G03*
X43337330Y44360250I-198180J-27010D01*
G01*
X43042670D01*
G75*
G03*
X42991830Y44252000I147340J-135260D01*
G01*
X42946490D01*
G75*
G02*
X42985720Y44360250I243530J-27020D01*
G01*
X42943350D01*
G37*
Y44494000D02*
G36*
X42943350Y44494000D02*
Y44360250D01*
X42985720D01*
G75*
G02*
X43163000Y44468510I204300J-135260D01*
G01*
Y44423170D01*
G75*
G03*
X43042670Y44360250I27010J-198180D01*
G01*
X43337330D01*
G75*
G03*
X43217000Y44423170I-147340J-135260D01*
G01*
Y44468510D01*
G75*
G02*
X43394280Y44360250I-27020J-243520D01*
G01*
X47995720D01*
G75*
G02*
X48173000Y44468510I204300J-135260D01*
G01*
Y44423170D01*
G75*
G03*
X48052670Y44360250I27010J-198180D01*
G01*
X48347330D01*
G75*
G03*
X48227000Y44423170I-147340J-135260D01*
G01*
Y44468510D01*
G75*
G02*
X48404280Y44360250I-27020J-243520D01*
G01*
X48496650D01*
Y44494000D01*
X45418440D01*
G75*
G02*
Y44493280I-88910J-360D01*
G01*
G75*
G02*
X45240640I-88900J0D01*
G01*
G75*
G02*
Y44494000I88910J360D01*
G01*
X44707960D01*
G75*
G02*
X44591120I-58420J0D01*
G01*
X42943350D01*
G37*
Y44633280D02*
G36*
X42943350Y44633280D02*
Y44494000D01*
X44591120D01*
G75*
G02*
X44707960I58420J0D01*
G01*
X45240640D01*
G75*
G02*
X45418440I88900J-720D01*
G01*
X48496650D01*
Y44633280D01*
X48268440D01*
G75*
G02*
X48090640I-88900J0D01*
G01*
X47435860D01*
X47435890Y44613290D01*
Y44613280D01*
G75*
G02*
X47429540Y44606930I-6350J0D01*
G01*
X43679540D01*
G75*
G02*
X43673190Y44613280I0J6350D01*
G01*
Y44633280D01*
X42943350D01*
G37*
Y44855000D02*
G36*
X42943350Y44855000D02*
Y44633280D01*
X43673190D01*
Y44855000D01*
X43537780D01*
Y44687220D01*
X43202220D01*
Y44855000D01*
X42943350D01*
G37*
X47435560D02*
G36*
X47435560Y44855000D02*
X47435860Y44633280D01*
X48090640D01*
G75*
G02*
X48268440I88900J0D01*
G01*
X48496650D01*
Y44855000D01*
X48265750D01*
G75*
G02*
X48268440Y44833280I-86210J-21700D01*
G01*
G75*
G02*
X48090640I-88900J0D01*
G01*
G75*
G02*
X48093330Y44855000I88900J20D01*
G01*
X47435560D01*
G37*
X42943350Y45033280D02*
G36*
X42943350Y45033280D02*
Y44855000D01*
X43202220D01*
Y45022780D01*
X43537780D01*
Y44855000D01*
X43673190D01*
Y45033280D01*
X42943350D01*
G37*
X47435430Y44950920D02*
G36*
X47435430Y44950920D02*
X47435560Y44855000D01*
X48093330D01*
G75*
G02*
X48265750I86210J-21720D01*
G01*
X48496650D01*
Y45033280D01*
X48259320D01*
G75*
G02*
X48179540Y44953500I-79780J0D01*
G01*
G75*
G02*
X48099760Y45033280I0J79780D01*
G01*
X47435890D01*
Y44953280D01*
G75*
G02*
X47435430Y44950920I-6520J50D01*
G01*
G37*
X42943350Y45244000D02*
G36*
X42943350Y45244000D02*
Y45033280D01*
X43673190D01*
Y45244000D01*
X43565000D01*
Y45160000D01*
X43397000D01*
Y45205000D01*
X43520000D01*
Y45244000D01*
X43220000D01*
Y45205000D01*
X43343000D01*
Y45160000D01*
X43175000D01*
Y45244000D01*
X42943350D01*
G37*
X47435890D02*
G36*
X47435890Y45244000D02*
Y45033280D01*
X48099760D01*
G75*
G02*
X48179540Y45113060I79780J0D01*
G01*
G75*
G02*
X48259320Y45033280I0J-79780D01*
G01*
X48496650D01*
Y45244000D01*
X48267790D01*
G75*
G02*
X48268440Y45233280I-88260J-10730D01*
G01*
G75*
G02*
X48090640I-88900J0D01*
G01*
G75*
G02*
X48091290Y45244000I88910J-10D01*
G01*
X47435890D01*
G37*
X42943350Y45466000D02*
G36*
X42943350Y45466000D02*
Y45244000D01*
X43175000D01*
Y45328000D01*
X43220000D01*
Y45244000D01*
X43520000D01*
Y45328000D01*
X43565000D01*
Y45244000D01*
X43673190D01*
Y45466000D01*
X43565000D01*
Y45382000D01*
X43520000D01*
Y45466000D01*
X43220000D01*
Y45382000D01*
X43175000D01*
Y45466000D01*
X42943350D01*
G37*
X47435890D02*
G36*
X47435890Y45466000D02*
Y45244000D01*
X48091290D01*
G75*
G02*
X48267790I88250J-10720D01*
G01*
X48496650D01*
Y45466000D01*
X48262200D01*
G75*
G02*
X48268440Y45433280I-82660J-32720D01*
G01*
G75*
G02*
X48090640I-88900J0D01*
G01*
G75*
G02*
X48096880Y45466000I88900J0D01*
G01*
X47435890D01*
G37*
X42943350Y45769720D02*
G36*
X42943350Y45769720D02*
Y45466000D01*
X43175000D01*
Y45550000D01*
X43343000D01*
Y45505000D01*
X43220000D01*
Y45466000D01*
X43520000D01*
Y45505000D01*
X43397000D01*
Y45550000D01*
X43565000D01*
Y45466000D01*
X43673190D01*
Y45603280D01*
Y45643280D01*
Y45703280D01*
G75*
G02*
X43679540Y45709630I6350J0D01*
G01*
X46383190D01*
Y45769720D01*
X43964790D01*
G75*
G02*
X43907000Y45731450I-84800J65290D01*
G01*
Y45769720D01*
X43853000D01*
Y45731450D01*
G75*
G02*
X43795210Y45769720I27010J103560D01*
G01*
X42943350D01*
G37*
X47435890Y45596930D02*
G36*
X47435890Y45596930D02*
Y45466000D01*
X48096880D01*
G75*
G02*
X48262200I82660J-32720D01*
G01*
X48496650D01*
Y45596930D01*
X47435890D01*
G37*
Y45769720D02*
G36*
X47435890Y45769720D02*
Y45709630D01*
X48496650D01*
Y45769720D01*
X47435890D01*
G37*
X42943350Y45900260D02*
G36*
X42943350Y45900260D02*
Y45769720D01*
X43795210D01*
G75*
G02*
X43776460Y45807990I84810J65280D01*
G01*
X43824190D01*
G75*
G03*
X43853000Y45779180I55800J26990D01*
G01*
Y45769720D01*
X43907000D01*
Y45779180D01*
G75*
G03*
X43935810Y45807990I-26990J55800D01*
G01*
X43983540D01*
G75*
G02*
X43964790Y45769720I-103560J27010D01*
G01*
X46383190D01*
Y45900260D01*
X43964790D01*
G75*
G02*
X43983540Y45861990I-84810J-65280D01*
G01*
X43935810D01*
G75*
G03*
X43907000Y45890800I-55800J-26990D01*
G01*
Y45900260D01*
X43853000D01*
Y45890800D01*
G75*
G03*
X43824190Y45861990I26990J-55800D01*
G01*
X43776460D01*
G75*
G02*
X43795210Y45900260I103560J-27010D01*
G01*
X43555000D01*
Y45840000D01*
X43387000D01*
Y45885000D01*
X43510000D01*
Y45900260D01*
X43210000D01*
Y45885000D01*
X43333000D01*
Y45840000D01*
X43165000D01*
Y45900260D01*
X42943350D01*
G37*
X47435890D02*
G36*
X47435890Y45900260D02*
Y45769720D01*
X48496650D01*
Y45900260D01*
X47435890D01*
G37*
X42943350Y46147000D02*
G36*
X42943350Y46147000D02*
Y45900260D01*
X43165000D01*
Y46008000D01*
X43210000D01*
Y45900260D01*
X43510000D01*
Y46008000D01*
X43555000D01*
Y45900260D01*
X43795210D01*
G75*
G02*
X43853000Y45938530I84800J-65290D01*
G01*
Y45900260D01*
X43907000D01*
Y45938530D01*
G75*
G02*
X43964790Y45900260I-27010J-103560D01*
G01*
X46383190D01*
Y46009520D01*
X46325970D01*
G75*
G02*
X46315970Y46019520I0J10000D01*
G01*
Y46097480D01*
G75*
G02*
X46325970Y46107480I10000J0D01*
G01*
X46383190D01*
Y46147000D01*
X43948630D01*
G75*
G02*
X43791370I-78630J0D01*
G01*
X43555000D01*
Y46062000D01*
X43510000D01*
Y46147000D01*
X43210000D01*
Y46062000D01*
X43165000D01*
Y46147000D01*
X42943350D01*
G37*
X47435890D02*
G36*
X47435890Y46147000D02*
Y45900260D01*
X48496650D01*
Y46147000D01*
X47435890D01*
G37*
X42943350Y46225000D02*
G36*
X42943350Y46225000D02*
Y46147000D01*
X43165000D01*
Y46225000D01*
X42943350D01*
G37*
X43210000Y46185000D02*
G36*
X43210000Y46185000D02*
Y46147000D01*
X43510000D01*
Y46185000D01*
X43387000D01*
Y46225000D01*
X43333000D01*
Y46185000D01*
X43210000D01*
G37*
X43555000Y46225000D02*
G36*
X43555000Y46225000D02*
Y46147000D01*
X43791370D01*
G75*
G02*
X43860070Y46225000I78630J0D01*
G01*
X43555000D01*
G37*
X43879930D02*
G36*
X43879930Y46225000D02*
G75*
G02*
X43948630Y46147000I-9930J-78000D01*
G01*
X46383190D01*
Y46225000D01*
X45448420D01*
G75*
G02*
X45331580I-58420J0D01*
G01*
X43879930D01*
G37*
X47435890D02*
G36*
X47435890Y46225000D02*
Y46147000D01*
X48496650D01*
Y46225000D01*
X47435890D01*
G37*
X42943350Y46655000D02*
G36*
X42943350Y46655000D02*
Y46225000D01*
X43165000D01*
Y46230000D01*
X43333000D01*
Y46225000D01*
X43387000D01*
Y46230000D01*
X43555000D01*
Y46225000D01*
X43860070D01*
G75*
G02*
X43879930I9930J-77970D01*
G01*
X45331580D01*
G75*
G02*
X45448420I58420J0D01*
G01*
X46383190D01*
Y46256930D01*
X45919540D01*
G75*
G02*
X45913190Y46263280I0J6350D01*
G01*
Y46655000D01*
X43948630D01*
G75*
G02*
X43791370I-78630J0D01*
G01*
X43527780D01*
Y46367220D01*
X43192220D01*
Y46655000D01*
X42943350D01*
G37*
X47435890D02*
G36*
X47435890Y46655000D02*
Y46225000D01*
X48496650D01*
Y46655000D01*
X47435890D01*
G37*
X42943350Y47079740D02*
G36*
X42943350Y47079740D02*
Y46655000D01*
X43192220D01*
Y46702780D01*
X43527780D01*
Y46655000D01*
X43791370D01*
G75*
G02*
X43948630I78630J0D01*
G01*
X45913190D01*
Y46963280D01*
G75*
G02*
X45919540Y46969630I6350J0D01*
G01*
X47429540D01*
G75*
G02*
X47435890Y46963280I0J-6350D01*
G01*
Y46655000D01*
X48496650D01*
Y47079740D01*
X48404280D01*
G75*
G02*
X48227000Y46971490I-204290J135280D01*
G01*
Y47016830D01*
G75*
G03*
X48347320Y47079740I-27010J198180D01*
G01*
X48052680D01*
G75*
G03*
X48173000Y47016830I147330J135270D01*
G01*
Y46971490D01*
G75*
G02*
X47995720Y47079740I27010J243530D01*
G01*
X43394280D01*
G75*
G02*
X43217000Y46971490I-204290J135280D01*
G01*
Y47016830D01*
G75*
G03*
X43337320Y47079740I-27010J198180D01*
G01*
X43042680D01*
G75*
G03*
X43163000Y47016830I147330J135270D01*
G01*
Y46971490D01*
G75*
G02*
X42985720Y47079740I27010J243530D01*
G01*
X42943350D01*
G37*
Y47441650D02*
G36*
X42943350Y47441650D02*
Y47079740D01*
X42985720D01*
G75*
G02*
X42946490Y47188000I204290J135270D01*
G01*
X42991830D01*
G75*
G03*
X43042680Y47079740I198190J27020D01*
G01*
X43337320D01*
G75*
G03*
X43388170Y47188000I-147340J135280D01*
G01*
X43433510D01*
G75*
G02*
X43394280Y47079740I-243520J27010D01*
G01*
X47995720D01*
G75*
G02*
X47956490Y47188000I204290J135270D01*
G01*
X48001830D01*
G75*
G03*
X48052680Y47079740I198190J27020D01*
G01*
X48347320D01*
G75*
G03*
X48398170Y47188000I-147340J135280D01*
G01*
X48443510D01*
G75*
G02*
X48404280Y47079740I-243520J27010D01*
G01*
X48496650D01*
Y47441650D01*
X48293040D01*
G75*
G02*
X48443510Y47242000I-93030J-226640D01*
G01*
X48398170D01*
G75*
G03*
X48227000Y47413170I-198180J-27010D01*
G01*
Y47441650D01*
X48173000D01*
Y47413170D01*
G75*
G03*
X48001830Y47242000I27010J-198180D01*
G01*
X47956490D01*
G75*
G02*
X48106960Y47441650I243500J-26990D01*
G01*
X43283040D01*
G75*
G02*
X43433510Y47242000I-93030J-226640D01*
G01*
X43388170D01*
G75*
G03*
X43217000Y47413170I-198180J-27010D01*
G01*
Y47441650D01*
X43163000D01*
Y47413170D01*
G75*
G03*
X42991830Y47242000I27010J-198180D01*
G01*
X42946490D01*
G75*
G02*
X43096960Y47441650I243500J-26990D01*
G01*
X42943350D01*
G37*
X0Y0D02*
M02*
