G05
M48
;#@! TF.GenerationSoftware,DesignSpark,DesignSpark PCB,12.0.5940
;#@! TF.CreationDate,2025-07-14T15:04:37+00:00*
;#@! TF.FileFunction,Plated,1,4,PTH
;FILE_FORMAT=3:5
;TYPE=PLATED
INCH,TZ
FMAT,2
T1C000.01531
T2C000.01575
T3C000.01600
T4C000.02795
T5C000.03150
T6C000.03200
T7C000.03500
T8C000.04331
T9C000.12811
%
T001
X18.25837Y18.13327
T002
X18.05512Y18.04921
X18.05512Y18.10827
X18.05512Y18.16732
X18.10630Y18.04921
X18.10630Y18.10827
X18.10630Y18.16732
T003
X17.57856Y17.51732
X17.87008Y18.19882
X17.96832Y17.67452
T004
X17.27165Y18.16811
X17.27165Y18.36811
T005
X17.27559Y18.04527
X17.27953Y17.84055
X17.97226Y17.94224
X18.12580Y17.94224
X18.15748Y18.37205
X18.22244Y17.62334
X18.61793Y17.62334
X18.96832Y17.72964
T006
X17.84628Y17.51704
X18.01950Y17.51704
X18.96832Y17.57216
X18.96832Y17.65090
X18.96832Y17.80838
X18.96832Y17.88712
T007
X18.34547Y17.82776
X18.34547Y17.97539
X18.41929Y17.90157
X18.49311Y17.82776
X18.49311Y17.97539
T008
X17.07087Y18.12402
X17.07087Y18.32087
X17.07480Y17.65945
X17.07480Y17.85630
T009
X17.00394Y17.41142
X17.00394Y18.58858
X18.97638Y17.41142
X18.97638Y18.58858
M30
