G04 DesignSpark PCB Gerber Version 12.0 Build 5942*
%FSLAX35Y35*%
%MOMM*%
%ADD102R,0.81000X1.31000*%
%ADD89R,1.08000X1.40400*%
%ADD91R,1.37160X2.12760*%
%ADD88R,1.57500X2.07500*%
%ADD97R,1.93500X2.08500*%
%ADD95R,2.65500X4.60500*%
%ADD93R,3.01500X3.26500*%
%ADD98R,3.73500X4.41100*%
%ADD86C,0.02540*%
%ADD94R,1.49000X0.54000*%
%ADD104R,1.11500X0.76500*%
%ADD100R,0.88800X0.82800*%
%ADD101R,1.32000X0.90000*%
%ADD96R,2.09000X0.99000*%
%ADD90R,1.33100X1.28020*%
%ADD99R,1.67600X1.29600*%
%ADD103R,1.98500X1.93500*%
%ADD92R,6.11700X5.60700*%
X0Y0D02*
D02*
D86*
X45798000Y46150000D02*
X46058000D01*
Y45840000D01*
X45798000D01*
Y46150000D01*
G36*
X45798000Y46150000D02*
X46058000D01*
Y45840000D01*
X45798000D01*
Y46150000D01*
G37*
D02*
D88*
X47570000Y45365000D03*
X47580000Y44665000D03*
Y45025000D03*
X47870000Y45365000D03*
X47880000Y44665000D03*
Y45025000D03*
D02*
D89*
X44449000Y44495000D03*
X44649000Y44494000D03*
X45638540Y45293280D03*
X45640540Y44854280D03*
X45838540Y45292280D03*
X45840540Y44853280D03*
D02*
D90*
X45619540Y45073780D03*
X45808000Y46401750D03*
X45860540Y45073780D03*
X46049000Y46401750D03*
D02*
D91*
X46556250Y44762840D03*
X47014250D03*
D02*
D92*
X46785250Y45477340D03*
D02*
D93*
X46604540Y46573280D03*
X47634540D03*
D02*
D94*
X45658000Y45804500D03*
Y45931500D03*
Y46058500D03*
Y46185500D03*
X46198000Y45804500D03*
Y45931500D03*
Y46058500D03*
Y46185500D03*
D02*
D95*
X45928000Y45995000D03*
D02*
D96*
X44710000Y46320000D03*
Y46650000D03*
D02*
D97*
X44310000Y46310000D03*
Y46740000D03*
D02*
D98*
X44890360Y45111610D03*
Y45858510D03*
D02*
D99*
X45030000Y46321400D03*
Y46588600D03*
D02*
D100*
X45290000Y46347500D03*
Y46502500D03*
X45470000Y46347500D03*
Y46502500D03*
D02*
D101*
X44180000Y45131500D03*
Y45318500D03*
D02*
D102*
X44045000Y44485000D03*
X44235000D03*
D02*
D103*
X45329540Y44493280D03*
X45769540D03*
D02*
D104*
X44159540Y45625780D03*
Y45780780D03*
X0Y0D02*
M02*
