G04 DesignSpark PCB Gerber Version 12.0 Build 5942*
%FSLAX35Y35*%
%MOMM*%
%ADD10C,0.12700*%
%ADD141C,2.54000*%
X0Y0D02*
D02*
D10*
X43467810Y44375810D02*
X43499560D01*
X43483690D02*
Y44471060D01*
X43467810D02*
X43499560D01*
X43467810Y47365810D02*
X43499560D01*
X43483690D02*
Y47461060D01*
X43467810D02*
X43499560D01*
X43614000Y46185810D02*
Y46281060D01*
X43693380D01*
X43677500Y46233440D02*
X43614000D01*
Y46185810D02*
X43693380D01*
X43614000Y46685810D02*
Y46781060D01*
X43693380D01*
X43677500Y46733440D02*
X43614000D01*
Y46685810D02*
X43693380D01*
X43624000Y45005810D02*
Y45101060D01*
X43703380D01*
X43687500Y45053440D02*
X43624000D01*
Y45005810D02*
X43703380D01*
X43624000Y45505810D02*
Y45601060D01*
X43703380D01*
X43687500Y45553440D02*
X43624000D01*
Y45505810D02*
X43703380D01*
X44124000Y46297810D02*
Y46393060D01*
X44203380D01*
X44187500Y46345440D02*
X44124000D01*
Y46805810D02*
Y46901060D01*
X44203380D01*
X44187500Y46853440D02*
X44124000D01*
X44189560Y46025490D02*
X44213380D01*
Y46017550D01*
X44205440Y46001680D01*
X44197500Y45993740D01*
X44181630Y45985800D01*
X44165750D01*
X44149880Y45993740D01*
X44141940Y46001680D01*
X44134000Y46017550D01*
Y46049300D01*
X44141940Y46065180D01*
X44149880Y46073120D01*
X44165750Y46081050D01*
X44181630D01*
X44197500Y46073120D01*
X44205440Y46065180D01*
X44213380Y46049300D01*
X44199560Y45505500D02*
X44223380D01*
Y45497560D01*
X44215440Y45481690D01*
X44207500Y45473750D01*
X44191630Y45465810D01*
X44175750D01*
X44159880Y45473750D01*
X44151940Y45481690D01*
X44144000Y45497560D01*
Y45529310D01*
X44151940Y45545190D01*
X44159880Y45553130D01*
X44175750Y45561060D01*
X44191630D01*
X44207500Y45553130D01*
X44215440Y45545190D01*
X44223380Y45529310D01*
X44903540Y44644810D02*
X44943230Y44740060D01*
X44982920Y44644810D01*
X44919420Y44684500D02*
X44967040D01*
X45583540Y44644090D02*
Y44739340D01*
Y44691720D02*
X45662920D01*
Y44644090D02*
Y44739340D01*
X45644000Y46375810D02*
X45683690Y46471060D01*
X45723380Y46375810D01*
X45659880Y46415500D02*
X45707500D01*
X45893540Y45044090D02*
X45933230Y45139340D01*
X45972920Y45044090D01*
X45909420Y45083780D02*
X45957040D01*
X45959100Y45763780D02*
X45982920D01*
Y45755840D01*
X45974980Y45739970D01*
X45967040Y45732030D01*
X45951170Y45724090D01*
X45935290D01*
X45919420Y45732030D01*
X45911480Y45739970D01*
X45903540Y45755840D01*
Y45787590D01*
X45911480Y45803470D01*
X45919420Y45811410D01*
X45935290Y45819340D01*
X45951170D01*
X45967040Y45811410D01*
X45974980Y45803470D01*
X45982920Y45787590D01*
X46023540Y44644090D02*
Y44739340D01*
Y44691720D02*
X46102920D01*
Y44644090D02*
Y44739340D01*
X46114000Y45995810D02*
Y46091060D01*
X46161630D01*
X46177500Y46083130D01*
X46185440Y46075190D01*
X46193380Y46059310D01*
Y46027560D01*
X46185440Y46011690D01*
X46177500Y46003750D01*
X46161630Y45995810D01*
X46114000D01*
Y46145810D02*
Y46241060D01*
X46161630D01*
X46177500Y46233130D01*
X46185440Y46225190D01*
X46193380Y46209310D01*
Y46177560D01*
X46185440Y46161690D01*
X46177500Y46153750D01*
X46161630Y46145810D01*
X46114000D01*
Y46295810D02*
Y46391060D01*
X46161630D01*
X46177500Y46383130D01*
X46185440Y46375190D01*
X46193380Y46359310D01*
Y46327560D01*
X46185440Y46311690D01*
X46177500Y46303750D01*
X46161630Y46295810D01*
X46114000D01*
X46244000Y45995810D02*
Y46091060D01*
X46291630D01*
X46307500Y46083130D01*
X46315440Y46075190D01*
X46323380Y46059310D01*
Y46027560D01*
X46315440Y46011690D01*
X46307500Y46003750D01*
X46291630Y45995810D01*
X46244000D01*
Y46145810D02*
Y46241060D01*
X46291630D01*
X46307500Y46233130D01*
X46315440Y46225190D01*
X46323380Y46209310D01*
Y46177560D01*
X46315440Y46161690D01*
X46307500Y46153750D01*
X46291630Y46145810D01*
X46244000D01*
Y46295810D02*
Y46391060D01*
X46291630D01*
X46307500Y46383130D01*
X46315440Y46375190D01*
X46323380Y46359310D01*
Y46327560D01*
X46315440Y46311690D01*
X46307500Y46303750D01*
X46291630Y46295810D01*
X46244000D01*
X46349100Y45763780D02*
X46372920D01*
Y45755840D01*
X46364980Y45739970D01*
X46357040Y45732030D01*
X46341170Y45724090D01*
X46325290D01*
X46309420Y45732030D01*
X46301480Y45739970D01*
X46293540Y45755840D01*
Y45787590D01*
X46301480Y45803470D01*
X46309420Y45811410D01*
X46325290Y45819340D01*
X46341170D01*
X46357040Y45811410D01*
X46364980Y45803470D01*
X46372920Y45787590D01*
X46429560Y46855500D02*
X46453380D01*
Y46847560D01*
X46445440Y46831690D01*
X46437500Y46823750D01*
X46421630Y46815810D01*
X46405750D01*
X46389880Y46823750D01*
X46381940Y46831690D01*
X46374000Y46847560D01*
Y46879310D01*
X46381940Y46895190D01*
X46389880Y46903130D01*
X46405750Y46911060D01*
X46421630D01*
X46437500Y46903130D01*
X46445440Y46895190D01*
X46453380Y46879310D01*
X46594560Y44953780D02*
X46618380D01*
Y44945840D01*
X46610440Y44929970D01*
X46602500Y44922030D01*
X46586630Y44914090D01*
X46570750D01*
X46554880Y44922030D01*
X46546940Y44929970D01*
X46539000Y44945840D01*
Y44977590D01*
X46546940Y44993470D01*
X46554880Y45001410D01*
X46570750Y45009340D01*
X46586630D01*
X46602500Y45001410D01*
X46610440Y44993470D01*
X46618380Y44977590D01*
X46630250Y46225190D02*
X46638190Y46217250D01*
X46654060Y46209310D01*
X46669940Y46217250D01*
X46677880Y46225190D01*
Y46304560D01*
X46693750D01*
X46677880D02*
X46646130D01*
X46930880Y45449190D02*
X46922940Y45441250D01*
X46907060Y45433310D01*
X46883250D01*
X46867380Y45441250D01*
X46859440Y45449190D01*
X46851500Y45465060D01*
Y45496810D01*
X46859440Y45512690D01*
X46867380Y45520630D01*
X46883250Y45528560D01*
X46907060D01*
X46922940Y45520630D01*
X46930880Y45512690D01*
Y45824190D02*
X46922940Y45816250D01*
X46907060Y45808310D01*
X46883250D01*
X46867380Y45816250D01*
X46859440Y45824190D01*
X46851500Y45840060D01*
Y45871810D01*
X46859440Y45887690D01*
X46867380Y45895630D01*
X46883250Y45903560D01*
X46907060D01*
X46922940Y45895630D01*
X46930880Y45887690D01*
X47118380Y45636690D02*
X47110440Y45628750D01*
X47094560Y45620810D01*
X47070750D01*
X47054880Y45628750D01*
X47046940Y45636690D01*
X47039000Y45652560D01*
Y45684310D01*
X47046940Y45700190D01*
X47054880Y45708130D01*
X47070750Y45716060D01*
X47094560D01*
X47110440Y45708130D01*
X47118380Y45700190D01*
X47305880Y45449190D02*
X47297940Y45441250D01*
X47282060Y45433310D01*
X47258250D01*
X47242380Y45441250D01*
X47234440Y45449190D01*
X47226500Y45465060D01*
Y45496810D01*
X47234440Y45512690D01*
X47242380Y45520630D01*
X47258250Y45528560D01*
X47282060D01*
X47297940Y45520630D01*
X47305880Y45512690D01*
Y45824190D02*
X47297940Y45816250D01*
X47282060Y45808310D01*
X47258250D01*
X47242380Y45816250D01*
X47234440Y45824190D01*
X47226500Y45840060D01*
Y45871810D01*
X47234440Y45887690D01*
X47242380Y45895630D01*
X47258250Y45903560D01*
X47282060D01*
X47297940Y45895630D01*
X47305880Y45887690D01*
X47599100Y44953780D02*
X47622920D01*
Y44945840D01*
X47614980Y44929970D01*
X47607040Y44922030D01*
X47591170Y44914090D01*
X47575290D01*
X47559420Y44922030D01*
X47551480Y44929970D01*
X47543540Y44945840D01*
Y44977590D01*
X47551480Y44993470D01*
X47559420Y45001410D01*
X47575290Y45009340D01*
X47591170D01*
X47607040Y45001410D01*
X47614980Y44993470D01*
X47622920Y44977590D01*
X48433540Y44784090D02*
Y44879340D01*
Y44831720D02*
X48512920D01*
Y44784090D02*
Y44879340D01*
X48433540Y44984090D02*
Y45079340D01*
Y45031720D02*
X48512920D01*
Y44984090D02*
Y45079340D01*
X48489100Y45223780D02*
X48512920D01*
Y45215840D01*
X48504980Y45199970D01*
X48497040Y45192030D01*
X48481170Y45184090D01*
X48465290D01*
X48449420Y45192030D01*
X48441480Y45199970D01*
X48433540Y45215840D01*
Y45247590D01*
X48441480Y45263470D01*
X48449420Y45271410D01*
X48465290Y45279340D01*
X48481170D01*
X48497040Y45271410D01*
X48504980Y45263470D01*
X48512920Y45247590D01*
X48433540Y45384090D02*
Y45479340D01*
Y45431720D02*
X48512920D01*
Y45384090D02*
Y45479340D01*
X48433540Y45584090D02*
Y45679340D01*
Y45631720D02*
X48512920D01*
Y45584090D02*
Y45679340D01*
X48477810Y44375810D02*
X48509560D01*
X48493690D02*
Y44471060D01*
X48477810D02*
X48509560D01*
X48477810Y47365810D02*
X48509560D01*
X48493690D02*
Y47461060D01*
X48477810D02*
X48509560D01*
D02*
D141*
X43190000Y44225000D03*
Y47215000D03*
X43360000Y46035000D03*
Y46535000D03*
X43370000Y44855000D03*
Y45355000D03*
X43870000Y46147000D03*
Y46655000D03*
X43880000Y45834990D03*
X43890000Y45315000D03*
X44649540Y44494000D03*
X45329540Y44493280D03*
X45390000Y46225000D03*
X45639540Y44893280D03*
X45649540Y45573280D03*
X45769540Y44493280D03*
X45860000Y45845000D03*
Y45995000D03*
Y46145000D03*
X45990000Y45845000D03*
Y45995000D03*
Y46145000D03*
X46039540Y45573280D03*
X46120000Y46665000D03*
X46285000Y44763280D03*
X46376250Y46058500D03*
X46597500Y45282500D03*
Y45657500D03*
X46785000Y45470000D03*
X46972500Y45282500D03*
Y45657500D03*
X47289540Y44763280D03*
X48179540Y44633280D03*
Y44833280D03*
Y45033280D03*
Y45233280D03*
Y45433280D03*
X48200000Y44225000D03*
Y47215000D03*
X0Y0D02*
M02*
