G04 DesignSpark PCB Gerber Version 12.0 Build 5942*
%FSLAX35Y35*%
%MOMM*%
%ADD128R,1.15400X1.65400*%
%ADD113R,1.45400X1.77800*%
%ADD115R,1.77800X2.53400*%
%ADD112R,2.00400X2.50400*%
%ADD121R,2.40400X2.55400*%
%ADD119R,3.20400X5.15400*%
%ADD117R,3.60400X3.85400*%
%ADD123R,4.40400X5.08000*%
%ADD111R,3.25400X3.25400*%
%ADD86C,0.02540*%
%ADD109C,1.05400*%
%ADD107C,1.06680*%
%ADD122C,1.47100*%
%ADD126C,1.49400*%
%ADD105C,1.67640*%
%ADD108C,1.77800*%
%ADD118R,1.80400X0.85400*%
%ADD130R,1.45400X1.10400*%
%ADD125R,1.23400X1.17400*%
%ADD127R,1.67400X1.25400*%
%ADD120R,2.45400X1.35400*%
%ADD114R,1.72720X1.67640*%
%ADD124R,2.07400X1.69400*%
%ADD129R,2.45400X2.40400*%
%AMT106*0 Rounded Rectangle Pad at angle 90*4,1,36,0.55200,-0.26440,0.55200,0.26440,0.54860,0.29850,0.53870,0.33120,0.52260,0.36140,0.50090,0.38790,0.47440,0.40960,0.44420,0.42570,0.41140,0.43560,0.37740,0.43900,-0.37740,0.43900,-0.41150,0.43560,-0.44420,0.42570,-0.47440,0.40960,-0.50090,0.38790,-0.52260,0.36140,-0.53870,0.33120,-0.54860,0.29840,-0.55200,0.26440,-0.55200,-0.26440,-0.54860,-0.29850,-0.53870,-0.33120,-0.52260,-0.36140,-0.50090,-0.38790,-0.47440,-0.40960,-0.44420,-0.42570,-0.41140,-0.43560,-0.37740,-0.43900,0.37740,-0.43900,0.41150,-0.43560,0.44420,-0.42570,0.47440,-0.40960,0.50090,-0.38790,0.52260,-0.36140,0.53870,-0.33120,0.54860,-0.29840,0.55200,-0.26440,0*%
%ADD106T106*%
%ADD110C,4.25400*%
%ADD116R,6.99400X6.48400*%
X0Y0D02*
D02*
D86*
X45738000Y45767500D02*
X45578000D01*
X45577700Y45767600D01*
X45577500D01*
X45577200Y45767700D01*
X45577000D01*
X45576700Y45767800D01*
X45576500Y45767900D01*
X45576200Y45768000D01*
X45576000Y45768200D01*
X45575800Y45768300D01*
X45575600Y45768500D01*
X45575400Y45768600D01*
X45574600Y45769400D01*
X45574500Y45769600D01*
X45574300Y45769800D01*
X45574200Y45770000D01*
X45574000Y45770200D01*
X45573900Y45770500D01*
X45573800Y45770700D01*
X45573700Y45771000D01*
Y45771200D01*
X45573600Y45771500D01*
Y45771700D01*
X45573500Y45772000D01*
Y45837000D01*
X45573600Y45837300D01*
Y45837500D01*
X45573700Y45837800D01*
Y45838000D01*
X45573800Y45838300D01*
X45573900Y45838500D01*
X45574000Y45838800D01*
X45574200Y45839000D01*
X45574300Y45839200D01*
X45574500Y45839400D01*
X45574600Y45839600D01*
X45575400Y45840400D01*
X45575600Y45840500D01*
X45575800Y45840700D01*
X45576000Y45840800D01*
X45576200Y45841000D01*
X45576500Y45841100D01*
X45576700Y45841200D01*
X45577000Y45841300D01*
X45577200D01*
X45577500Y45841400D01*
X45577700D01*
X45578000Y45841500D01*
X45738000D01*
X45738300Y45841400D01*
X45738500D01*
X45738800Y45841300D01*
X45739000D01*
X45739300Y45841200D01*
X45739500Y45841100D01*
X45739800Y45841000D01*
X45740000Y45840800D01*
X45740200Y45840700D01*
X45740400Y45840500D01*
X45740600Y45840400D01*
X45741400Y45839600D01*
X45741500Y45839400D01*
X45741700Y45839200D01*
X45741800Y45839000D01*
X45742000Y45838800D01*
X45742100Y45838500D01*
X45742200Y45838300D01*
X45742300Y45838000D01*
Y45837800D01*
X45742400Y45837500D01*
Y45837300D01*
X45742500Y45837000D01*
Y45772000D01*
X45742400Y45771700D01*
Y45771500D01*
X45742300Y45771200D01*
Y45771000D01*
X45742200Y45770700D01*
X45742100Y45770500D01*
X45742000Y45770200D01*
X45741800Y45770000D01*
X45741700Y45769800D01*
X45741500Y45769600D01*
X45741400Y45769400D01*
X45740600Y45768600D01*
X45740400Y45768500D01*
X45740200Y45768300D01*
X45740000Y45768200D01*
X45739800Y45768000D01*
X45739500Y45767900D01*
X45739300Y45767800D01*
X45739000Y45767700D01*
X45738800D01*
X45738500Y45767600D01*
X45738300D01*
X45738000Y45767500D01*
G36*
X45738000Y45767500D02*
X45578000D01*
X45577700Y45767600D01*
X45577500D01*
X45577200Y45767700D01*
X45577000D01*
X45576700Y45767800D01*
X45576500Y45767900D01*
X45576200Y45768000D01*
X45576000Y45768200D01*
X45575800Y45768300D01*
X45575600Y45768500D01*
X45575400Y45768600D01*
X45574600Y45769400D01*
X45574500Y45769600D01*
X45574300Y45769800D01*
X45574200Y45770000D01*
X45574000Y45770200D01*
X45573900Y45770500D01*
X45573800Y45770700D01*
X45573700Y45771000D01*
Y45771200D01*
X45573600Y45771500D01*
Y45771700D01*
X45573500Y45772000D01*
Y45837000D01*
X45573600Y45837300D01*
Y45837500D01*
X45573700Y45837800D01*
Y45838000D01*
X45573800Y45838300D01*
X45573900Y45838500D01*
X45574000Y45838800D01*
X45574200Y45839000D01*
X45574300Y45839200D01*
X45574500Y45839400D01*
X45574600Y45839600D01*
X45575400Y45840400D01*
X45575600Y45840500D01*
X45575800Y45840700D01*
X45576000Y45840800D01*
X45576200Y45841000D01*
X45576500Y45841100D01*
X45576700Y45841200D01*
X45577000Y45841300D01*
X45577200D01*
X45577500Y45841400D01*
X45577700D01*
X45578000Y45841500D01*
X45738000D01*
X45738300Y45841400D01*
X45738500D01*
X45738800Y45841300D01*
X45739000D01*
X45739300Y45841200D01*
X45739500Y45841100D01*
X45739800Y45841000D01*
X45740000Y45840800D01*
X45740200Y45840700D01*
X45740400Y45840500D01*
X45740600Y45840400D01*
X45741400Y45839600D01*
X45741500Y45839400D01*
X45741700Y45839200D01*
X45741800Y45839000D01*
X45742000Y45838800D01*
X45742100Y45838500D01*
X45742200Y45838300D01*
X45742300Y45838000D01*
Y45837800D01*
X45742400Y45837500D01*
Y45837300D01*
X45742500Y45837000D01*
Y45772000D01*
X45742400Y45771700D01*
Y45771500D01*
X45742300Y45771200D01*
Y45771000D01*
X45742200Y45770700D01*
X45742100Y45770500D01*
X45742000Y45770200D01*
X45741800Y45770000D01*
X45741700Y45769800D01*
X45741500Y45769600D01*
X45741400Y45769400D01*
X45740600Y45768600D01*
X45740400Y45768500D01*
X45740200Y45768300D01*
X45740000Y45768200D01*
X45739800Y45768000D01*
X45739500Y45767900D01*
X45739300Y45767800D01*
X45739000Y45767700D01*
X45738800D01*
X45738500Y45767600D01*
X45738300D01*
X45738000Y45767500D01*
G37*
Y45894500D02*
X45578000D01*
X45577700Y45894600D01*
X45577500D01*
X45577200Y45894700D01*
X45577000D01*
X45576700Y45894800D01*
X45576500Y45894900D01*
X45576200Y45895000D01*
X45576000Y45895200D01*
X45575800Y45895300D01*
X45575600Y45895500D01*
X45575400Y45895600D01*
X45574600Y45896400D01*
X45574500Y45896600D01*
X45574300Y45896800D01*
X45574200Y45897000D01*
X45574000Y45897200D01*
X45573900Y45897500D01*
X45573800Y45897700D01*
X45573700Y45898000D01*
Y45898200D01*
X45573600Y45898500D01*
Y45898700D01*
X45573500Y45899000D01*
Y45964000D01*
X45573600Y45964300D01*
Y45964500D01*
X45573700Y45964800D01*
Y45965000D01*
X45573800Y45965300D01*
X45573900Y45965500D01*
X45574000Y45965800D01*
X45574200Y45966000D01*
X45574300Y45966200D01*
X45574500Y45966400D01*
X45574600Y45966600D01*
X45575400Y45967400D01*
X45575600Y45967500D01*
X45575800Y45967700D01*
X45576000Y45967800D01*
X45576200Y45968000D01*
X45576500Y45968100D01*
X45576700Y45968200D01*
X45577000Y45968300D01*
X45577200D01*
X45577500Y45968400D01*
X45577700D01*
X45578000Y45968500D01*
X45738000D01*
X45738300Y45968400D01*
X45738500D01*
X45738800Y45968300D01*
X45739000D01*
X45739300Y45968200D01*
X45739500Y45968100D01*
X45739800Y45968000D01*
X45740000Y45967800D01*
X45740200Y45967700D01*
X45740400Y45967500D01*
X45740600Y45967400D01*
X45741400Y45966600D01*
X45741500Y45966400D01*
X45741700Y45966200D01*
X45741800Y45966000D01*
X45742000Y45965800D01*
X45742100Y45965500D01*
X45742200Y45965300D01*
X45742300Y45965000D01*
Y45964800D01*
X45742400Y45964500D01*
Y45964300D01*
X45742500Y45964000D01*
Y45899000D01*
X45742400Y45898700D01*
Y45898500D01*
X45742300Y45898200D01*
Y45898000D01*
X45742200Y45897700D01*
X45742100Y45897500D01*
X45742000Y45897200D01*
X45741800Y45897000D01*
X45741700Y45896800D01*
X45741500Y45896600D01*
X45741400Y45896400D01*
X45740600Y45895600D01*
X45740400Y45895500D01*
X45740200Y45895300D01*
X45740000Y45895200D01*
X45739800Y45895000D01*
X45739500Y45894900D01*
X45739300Y45894800D01*
X45739000Y45894700D01*
X45738800D01*
X45738500Y45894600D01*
X45738300D01*
X45738000Y45894500D01*
G36*
X45738000Y45894500D02*
X45578000D01*
X45577700Y45894600D01*
X45577500D01*
X45577200Y45894700D01*
X45577000D01*
X45576700Y45894800D01*
X45576500Y45894900D01*
X45576200Y45895000D01*
X45576000Y45895200D01*
X45575800Y45895300D01*
X45575600Y45895500D01*
X45575400Y45895600D01*
X45574600Y45896400D01*
X45574500Y45896600D01*
X45574300Y45896800D01*
X45574200Y45897000D01*
X45574000Y45897200D01*
X45573900Y45897500D01*
X45573800Y45897700D01*
X45573700Y45898000D01*
Y45898200D01*
X45573600Y45898500D01*
Y45898700D01*
X45573500Y45899000D01*
Y45964000D01*
X45573600Y45964300D01*
Y45964500D01*
X45573700Y45964800D01*
Y45965000D01*
X45573800Y45965300D01*
X45573900Y45965500D01*
X45574000Y45965800D01*
X45574200Y45966000D01*
X45574300Y45966200D01*
X45574500Y45966400D01*
X45574600Y45966600D01*
X45575400Y45967400D01*
X45575600Y45967500D01*
X45575800Y45967700D01*
X45576000Y45967800D01*
X45576200Y45968000D01*
X45576500Y45968100D01*
X45576700Y45968200D01*
X45577000Y45968300D01*
X45577200D01*
X45577500Y45968400D01*
X45577700D01*
X45578000Y45968500D01*
X45738000D01*
X45738300Y45968400D01*
X45738500D01*
X45738800Y45968300D01*
X45739000D01*
X45739300Y45968200D01*
X45739500Y45968100D01*
X45739800Y45968000D01*
X45740000Y45967800D01*
X45740200Y45967700D01*
X45740400Y45967500D01*
X45740600Y45967400D01*
X45741400Y45966600D01*
X45741500Y45966400D01*
X45741700Y45966200D01*
X45741800Y45966000D01*
X45742000Y45965800D01*
X45742100Y45965500D01*
X45742200Y45965300D01*
X45742300Y45965000D01*
Y45964800D01*
X45742400Y45964500D01*
Y45964300D01*
X45742500Y45964000D01*
Y45899000D01*
X45742400Y45898700D01*
Y45898500D01*
X45742300Y45898200D01*
Y45898000D01*
X45742200Y45897700D01*
X45742100Y45897500D01*
X45742000Y45897200D01*
X45741800Y45897000D01*
X45741700Y45896800D01*
X45741500Y45896600D01*
X45741400Y45896400D01*
X45740600Y45895600D01*
X45740400Y45895500D01*
X45740200Y45895300D01*
X45740000Y45895200D01*
X45739800Y45895000D01*
X45739500Y45894900D01*
X45739300Y45894800D01*
X45739000Y45894700D01*
X45738800D01*
X45738500Y45894600D01*
X45738300D01*
X45738000Y45894500D01*
G37*
Y46021500D02*
X45578000D01*
X45577700Y46021600D01*
X45577500D01*
X45577200Y46021700D01*
X45577000D01*
X45576700Y46021800D01*
X45576500Y46021900D01*
X45576200Y46022000D01*
X45576000Y46022200D01*
X45575800Y46022300D01*
X45575600Y46022500D01*
X45575400Y46022600D01*
X45574600Y46023400D01*
X45574500Y46023600D01*
X45574300Y46023800D01*
X45574200Y46024000D01*
X45574000Y46024200D01*
X45573900Y46024500D01*
X45573800Y46024700D01*
X45573700Y46025000D01*
Y46025200D01*
X45573600Y46025500D01*
Y46025700D01*
X45573500Y46026000D01*
Y46091000D01*
X45573600Y46091300D01*
Y46091500D01*
X45573700Y46091800D01*
Y46092000D01*
X45573800Y46092300D01*
X45573900Y46092500D01*
X45574000Y46092800D01*
X45574200Y46093000D01*
X45574300Y46093200D01*
X45574500Y46093400D01*
X45574600Y46093600D01*
X45575400Y46094400D01*
X45575600Y46094500D01*
X45575800Y46094700D01*
X45576000Y46094800D01*
X45576200Y46095000D01*
X45576500Y46095100D01*
X45576700Y46095200D01*
X45577000Y46095300D01*
X45577200D01*
X45577500Y46095400D01*
X45577700D01*
X45578000Y46095500D01*
X45738000D01*
X45738300Y46095400D01*
X45738500D01*
X45738800Y46095300D01*
X45739000D01*
X45739300Y46095200D01*
X45739500Y46095100D01*
X45739800Y46095000D01*
X45740000Y46094800D01*
X45740200Y46094700D01*
X45740400Y46094500D01*
X45740600Y46094400D01*
X45741400Y46093600D01*
X45741500Y46093400D01*
X45741700Y46093200D01*
X45741800Y46093000D01*
X45742000Y46092800D01*
X45742100Y46092500D01*
X45742200Y46092300D01*
X45742300Y46092000D01*
Y46091800D01*
X45742400Y46091500D01*
Y46091300D01*
X45742500Y46091000D01*
Y46026000D01*
X45742400Y46025700D01*
Y46025500D01*
X45742300Y46025200D01*
Y46025000D01*
X45742200Y46024700D01*
X45742100Y46024500D01*
X45742000Y46024200D01*
X45741800Y46024000D01*
X45741700Y46023800D01*
X45741500Y46023600D01*
X45741400Y46023400D01*
X45740600Y46022600D01*
X45740400Y46022500D01*
X45740200Y46022300D01*
X45740000Y46022200D01*
X45739800Y46022000D01*
X45739500Y46021900D01*
X45739300Y46021800D01*
X45739000Y46021700D01*
X45738800D01*
X45738500Y46021600D01*
X45738300D01*
X45738000Y46021500D01*
G36*
X45738000Y46021500D02*
X45578000D01*
X45577700Y46021600D01*
X45577500D01*
X45577200Y46021700D01*
X45577000D01*
X45576700Y46021800D01*
X45576500Y46021900D01*
X45576200Y46022000D01*
X45576000Y46022200D01*
X45575800Y46022300D01*
X45575600Y46022500D01*
X45575400Y46022600D01*
X45574600Y46023400D01*
X45574500Y46023600D01*
X45574300Y46023800D01*
X45574200Y46024000D01*
X45574000Y46024200D01*
X45573900Y46024500D01*
X45573800Y46024700D01*
X45573700Y46025000D01*
Y46025200D01*
X45573600Y46025500D01*
Y46025700D01*
X45573500Y46026000D01*
Y46091000D01*
X45573600Y46091300D01*
Y46091500D01*
X45573700Y46091800D01*
Y46092000D01*
X45573800Y46092300D01*
X45573900Y46092500D01*
X45574000Y46092800D01*
X45574200Y46093000D01*
X45574300Y46093200D01*
X45574500Y46093400D01*
X45574600Y46093600D01*
X45575400Y46094400D01*
X45575600Y46094500D01*
X45575800Y46094700D01*
X45576000Y46094800D01*
X45576200Y46095000D01*
X45576500Y46095100D01*
X45576700Y46095200D01*
X45577000Y46095300D01*
X45577200D01*
X45577500Y46095400D01*
X45577700D01*
X45578000Y46095500D01*
X45738000D01*
X45738300Y46095400D01*
X45738500D01*
X45738800Y46095300D01*
X45739000D01*
X45739300Y46095200D01*
X45739500Y46095100D01*
X45739800Y46095000D01*
X45740000Y46094800D01*
X45740200Y46094700D01*
X45740400Y46094500D01*
X45740600Y46094400D01*
X45741400Y46093600D01*
X45741500Y46093400D01*
X45741700Y46093200D01*
X45741800Y46093000D01*
X45742000Y46092800D01*
X45742100Y46092500D01*
X45742200Y46092300D01*
X45742300Y46092000D01*
Y46091800D01*
X45742400Y46091500D01*
Y46091300D01*
X45742500Y46091000D01*
Y46026000D01*
X45742400Y46025700D01*
Y46025500D01*
X45742300Y46025200D01*
Y46025000D01*
X45742200Y46024700D01*
X45742100Y46024500D01*
X45742000Y46024200D01*
X45741800Y46024000D01*
X45741700Y46023800D01*
X45741500Y46023600D01*
X45741400Y46023400D01*
X45740600Y46022600D01*
X45740400Y46022500D01*
X45740200Y46022300D01*
X45740000Y46022200D01*
X45739800Y46022000D01*
X45739500Y46021900D01*
X45739300Y46021800D01*
X45739000Y46021700D01*
X45738800D01*
X45738500Y46021600D01*
X45738300D01*
X45738000Y46021500D01*
G37*
Y46148500D02*
X45578000D01*
X45577700Y46148600D01*
X45577500D01*
X45577200Y46148700D01*
X45577000D01*
X45576700Y46148800D01*
X45576500Y46148900D01*
X45576200Y46149000D01*
X45576000Y46149200D01*
X45575800Y46149300D01*
X45575600Y46149500D01*
X45575400Y46149600D01*
X45574600Y46150400D01*
X45574500Y46150600D01*
X45574300Y46150800D01*
X45574200Y46151000D01*
X45574000Y46151200D01*
X45573900Y46151500D01*
X45573800Y46151700D01*
X45573700Y46152000D01*
Y46152200D01*
X45573600Y46152500D01*
Y46152700D01*
X45573500Y46153000D01*
Y46218000D01*
X45573600Y46218300D01*
Y46218500D01*
X45573700Y46218800D01*
Y46219000D01*
X45573800Y46219300D01*
X45573900Y46219500D01*
X45574000Y46219800D01*
X45574200Y46220000D01*
X45574300Y46220200D01*
X45574500Y46220400D01*
X45574600Y46220600D01*
X45575400Y46221400D01*
X45575600Y46221500D01*
X45575800Y46221700D01*
X45576000Y46221800D01*
X45576200Y46222000D01*
X45576500Y46222100D01*
X45576700Y46222200D01*
X45577000Y46222300D01*
X45577200D01*
X45577500Y46222400D01*
X45577700D01*
X45578000Y46222500D01*
X45738000D01*
X45738300Y46222400D01*
X45738500D01*
X45738800Y46222300D01*
X45739000D01*
X45739300Y46222200D01*
X45739500Y46222100D01*
X45739800Y46222000D01*
X45740000Y46221800D01*
X45740200Y46221700D01*
X45740400Y46221500D01*
X45740600Y46221400D01*
X45741400Y46220600D01*
X45741500Y46220400D01*
X45741700Y46220200D01*
X45741800Y46220000D01*
X45742000Y46219800D01*
X45742100Y46219500D01*
X45742200Y46219300D01*
X45742300Y46219000D01*
Y46218800D01*
X45742400Y46218500D01*
Y46218300D01*
X45742500Y46218000D01*
Y46153000D01*
X45742400Y46152700D01*
Y46152500D01*
X45742300Y46152200D01*
Y46152000D01*
X45742200Y46151700D01*
X45742100Y46151500D01*
X45742000Y46151200D01*
X45741800Y46151000D01*
X45741700Y46150800D01*
X45741500Y46150600D01*
X45741400Y46150400D01*
X45740600Y46149600D01*
X45740400Y46149500D01*
X45740200Y46149300D01*
X45740000Y46149200D01*
X45739800Y46149000D01*
X45739500Y46148900D01*
X45739300Y46148800D01*
X45739000Y46148700D01*
X45738800D01*
X45738500Y46148600D01*
X45738300D01*
X45738000Y46148500D01*
G36*
X45738000Y46148500D02*
X45578000D01*
X45577700Y46148600D01*
X45577500D01*
X45577200Y46148700D01*
X45577000D01*
X45576700Y46148800D01*
X45576500Y46148900D01*
X45576200Y46149000D01*
X45576000Y46149200D01*
X45575800Y46149300D01*
X45575600Y46149500D01*
X45575400Y46149600D01*
X45574600Y46150400D01*
X45574500Y46150600D01*
X45574300Y46150800D01*
X45574200Y46151000D01*
X45574000Y46151200D01*
X45573900Y46151500D01*
X45573800Y46151700D01*
X45573700Y46152000D01*
Y46152200D01*
X45573600Y46152500D01*
Y46152700D01*
X45573500Y46153000D01*
Y46218000D01*
X45573600Y46218300D01*
Y46218500D01*
X45573700Y46218800D01*
Y46219000D01*
X45573800Y46219300D01*
X45573900Y46219500D01*
X45574000Y46219800D01*
X45574200Y46220000D01*
X45574300Y46220200D01*
X45574500Y46220400D01*
X45574600Y46220600D01*
X45575400Y46221400D01*
X45575600Y46221500D01*
X45575800Y46221700D01*
X45576000Y46221800D01*
X45576200Y46222000D01*
X45576500Y46222100D01*
X45576700Y46222200D01*
X45577000Y46222300D01*
X45577200D01*
X45577500Y46222400D01*
X45577700D01*
X45578000Y46222500D01*
X45738000D01*
X45738300Y46222400D01*
X45738500D01*
X45738800Y46222300D01*
X45739000D01*
X45739300Y46222200D01*
X45739500Y46222100D01*
X45739800Y46222000D01*
X45740000Y46221800D01*
X45740200Y46221700D01*
X45740400Y46221500D01*
X45740600Y46221400D01*
X45741400Y46220600D01*
X45741500Y46220400D01*
X45741700Y46220200D01*
X45741800Y46220000D01*
X45742000Y46219800D01*
X45742100Y46219500D01*
X45742200Y46219300D01*
X45742300Y46219000D01*
Y46218800D01*
X45742400Y46218500D01*
Y46218300D01*
X45742500Y46218000D01*
Y46153000D01*
X45742400Y46152700D01*
Y46152500D01*
X45742300Y46152200D01*
Y46152000D01*
X45742200Y46151700D01*
X45742100Y46151500D01*
X45742000Y46151200D01*
X45741800Y46151000D01*
X45741700Y46150800D01*
X45741500Y46150600D01*
X45741400Y46150400D01*
X45740600Y46149600D01*
X45740400Y46149500D01*
X45740200Y46149300D01*
X45740000Y46149200D01*
X45739800Y46149000D01*
X45739500Y46148900D01*
X45739300Y46148800D01*
X45739000Y46148700D01*
X45738800D01*
X45738500Y46148600D01*
X45738300D01*
X45738000Y46148500D01*
G37*
X45798000Y46150000D02*
X46058000D01*
Y45840000D01*
X45798000D01*
Y46150000D01*
G36*
X45798000Y46150000D02*
X46058000D01*
Y45840000D01*
X45798000D01*
Y46150000D01*
G37*
X46278000Y45767500D02*
X46118000D01*
X46117700Y45767600D01*
X46117500D01*
X46117200Y45767700D01*
X46117000D01*
X46116700Y45767800D01*
X46116500Y45767900D01*
X46116200Y45768000D01*
X46116000Y45768200D01*
X46115800Y45768300D01*
X46115600Y45768500D01*
X46115400Y45768600D01*
X46114600Y45769400D01*
X46114500Y45769600D01*
X46114300Y45769800D01*
X46114200Y45770000D01*
X46114000Y45770200D01*
X46113900Y45770500D01*
X46113800Y45770700D01*
X46113700Y45771000D01*
Y45771200D01*
X46113600Y45771500D01*
Y45771700D01*
X46113500Y45772000D01*
Y45837000D01*
X46113600Y45837300D01*
Y45837500D01*
X46113700Y45837800D01*
Y45838000D01*
X46113800Y45838300D01*
X46113900Y45838500D01*
X46114000Y45838800D01*
X46114200Y45839000D01*
X46114300Y45839200D01*
X46114500Y45839400D01*
X46114600Y45839600D01*
X46115400Y45840400D01*
X46115600Y45840500D01*
X46115800Y45840700D01*
X46116000Y45840800D01*
X46116200Y45841000D01*
X46116500Y45841100D01*
X46116700Y45841200D01*
X46117000Y45841300D01*
X46117200D01*
X46117500Y45841400D01*
X46117700D01*
X46118000Y45841500D01*
X46278000D01*
X46278300Y45841400D01*
X46278500D01*
X46278800Y45841300D01*
X46279000D01*
X46279300Y45841200D01*
X46279500Y45841100D01*
X46279800Y45841000D01*
X46280000Y45840800D01*
X46280200Y45840700D01*
X46280400Y45840500D01*
X46280600Y45840400D01*
X46281400Y45839600D01*
X46281500Y45839400D01*
X46281700Y45839200D01*
X46281800Y45839000D01*
X46282000Y45838800D01*
X46282100Y45838500D01*
X46282200Y45838300D01*
X46282300Y45838000D01*
Y45837800D01*
X46282400Y45837500D01*
Y45837300D01*
X46282500Y45837000D01*
Y45772000D01*
X46282400Y45771700D01*
Y45771500D01*
X46282300Y45771200D01*
Y45771000D01*
X46282200Y45770700D01*
X46282100Y45770500D01*
X46282000Y45770200D01*
X46281800Y45770000D01*
X46281700Y45769800D01*
X46281500Y45769600D01*
X46281400Y45769400D01*
X46280600Y45768600D01*
X46280400Y45768500D01*
X46280200Y45768300D01*
X46280000Y45768200D01*
X46279800Y45768000D01*
X46279500Y45767900D01*
X46279300Y45767800D01*
X46279000Y45767700D01*
X46278800D01*
X46278500Y45767600D01*
X46278300D01*
X46278000Y45767500D01*
G36*
X46278000Y45767500D02*
X46118000D01*
X46117700Y45767600D01*
X46117500D01*
X46117200Y45767700D01*
X46117000D01*
X46116700Y45767800D01*
X46116500Y45767900D01*
X46116200Y45768000D01*
X46116000Y45768200D01*
X46115800Y45768300D01*
X46115600Y45768500D01*
X46115400Y45768600D01*
X46114600Y45769400D01*
X46114500Y45769600D01*
X46114300Y45769800D01*
X46114200Y45770000D01*
X46114000Y45770200D01*
X46113900Y45770500D01*
X46113800Y45770700D01*
X46113700Y45771000D01*
Y45771200D01*
X46113600Y45771500D01*
Y45771700D01*
X46113500Y45772000D01*
Y45837000D01*
X46113600Y45837300D01*
Y45837500D01*
X46113700Y45837800D01*
Y45838000D01*
X46113800Y45838300D01*
X46113900Y45838500D01*
X46114000Y45838800D01*
X46114200Y45839000D01*
X46114300Y45839200D01*
X46114500Y45839400D01*
X46114600Y45839600D01*
X46115400Y45840400D01*
X46115600Y45840500D01*
X46115800Y45840700D01*
X46116000Y45840800D01*
X46116200Y45841000D01*
X46116500Y45841100D01*
X46116700Y45841200D01*
X46117000Y45841300D01*
X46117200D01*
X46117500Y45841400D01*
X46117700D01*
X46118000Y45841500D01*
X46278000D01*
X46278300Y45841400D01*
X46278500D01*
X46278800Y45841300D01*
X46279000D01*
X46279300Y45841200D01*
X46279500Y45841100D01*
X46279800Y45841000D01*
X46280000Y45840800D01*
X46280200Y45840700D01*
X46280400Y45840500D01*
X46280600Y45840400D01*
X46281400Y45839600D01*
X46281500Y45839400D01*
X46281700Y45839200D01*
X46281800Y45839000D01*
X46282000Y45838800D01*
X46282100Y45838500D01*
X46282200Y45838300D01*
X46282300Y45838000D01*
Y45837800D01*
X46282400Y45837500D01*
Y45837300D01*
X46282500Y45837000D01*
Y45772000D01*
X46282400Y45771700D01*
Y45771500D01*
X46282300Y45771200D01*
Y45771000D01*
X46282200Y45770700D01*
X46282100Y45770500D01*
X46282000Y45770200D01*
X46281800Y45770000D01*
X46281700Y45769800D01*
X46281500Y45769600D01*
X46281400Y45769400D01*
X46280600Y45768600D01*
X46280400Y45768500D01*
X46280200Y45768300D01*
X46280000Y45768200D01*
X46279800Y45768000D01*
X46279500Y45767900D01*
X46279300Y45767800D01*
X46279000Y45767700D01*
X46278800D01*
X46278500Y45767600D01*
X46278300D01*
X46278000Y45767500D01*
G37*
Y45894500D02*
X46118000D01*
X46117700Y45894600D01*
X46117500D01*
X46117200Y45894700D01*
X46117000D01*
X46116700Y45894800D01*
X46116500Y45894900D01*
X46116200Y45895000D01*
X46116000Y45895200D01*
X46115800Y45895300D01*
X46115600Y45895500D01*
X46115400Y45895600D01*
X46114600Y45896400D01*
X46114500Y45896600D01*
X46114300Y45896800D01*
X46114200Y45897000D01*
X46114000Y45897200D01*
X46113900Y45897500D01*
X46113800Y45897700D01*
X46113700Y45898000D01*
Y45898200D01*
X46113600Y45898500D01*
Y45898700D01*
X46113500Y45899000D01*
Y45964000D01*
X46113600Y45964300D01*
Y45964500D01*
X46113700Y45964800D01*
Y45965000D01*
X46113800Y45965300D01*
X46113900Y45965500D01*
X46114000Y45965800D01*
X46114200Y45966000D01*
X46114300Y45966200D01*
X46114500Y45966400D01*
X46114600Y45966600D01*
X46115400Y45967400D01*
X46115600Y45967500D01*
X46115800Y45967700D01*
X46116000Y45967800D01*
X46116200Y45968000D01*
X46116500Y45968100D01*
X46116700Y45968200D01*
X46117000Y45968300D01*
X46117200D01*
X46117500Y45968400D01*
X46117700D01*
X46118000Y45968500D01*
X46278000D01*
X46278300Y45968400D01*
X46278500D01*
X46278800Y45968300D01*
X46279000D01*
X46279300Y45968200D01*
X46279500Y45968100D01*
X46279800Y45968000D01*
X46280000Y45967800D01*
X46280200Y45967700D01*
X46280400Y45967500D01*
X46280600Y45967400D01*
X46281400Y45966600D01*
X46281500Y45966400D01*
X46281700Y45966200D01*
X46281800Y45966000D01*
X46282000Y45965800D01*
X46282100Y45965500D01*
X46282200Y45965300D01*
X46282300Y45965000D01*
Y45964800D01*
X46282400Y45964500D01*
Y45964300D01*
X46282500Y45964000D01*
Y45899000D01*
X46282400Y45898700D01*
Y45898500D01*
X46282300Y45898200D01*
Y45898000D01*
X46282200Y45897700D01*
X46282100Y45897500D01*
X46282000Y45897200D01*
X46281800Y45897000D01*
X46281700Y45896800D01*
X46281500Y45896600D01*
X46281400Y45896400D01*
X46280600Y45895600D01*
X46280400Y45895500D01*
X46280200Y45895300D01*
X46280000Y45895200D01*
X46279800Y45895000D01*
X46279500Y45894900D01*
X46279300Y45894800D01*
X46279000Y45894700D01*
X46278800D01*
X46278500Y45894600D01*
X46278300D01*
X46278000Y45894500D01*
G36*
X46278000Y45894500D02*
X46118000D01*
X46117700Y45894600D01*
X46117500D01*
X46117200Y45894700D01*
X46117000D01*
X46116700Y45894800D01*
X46116500Y45894900D01*
X46116200Y45895000D01*
X46116000Y45895200D01*
X46115800Y45895300D01*
X46115600Y45895500D01*
X46115400Y45895600D01*
X46114600Y45896400D01*
X46114500Y45896600D01*
X46114300Y45896800D01*
X46114200Y45897000D01*
X46114000Y45897200D01*
X46113900Y45897500D01*
X46113800Y45897700D01*
X46113700Y45898000D01*
Y45898200D01*
X46113600Y45898500D01*
Y45898700D01*
X46113500Y45899000D01*
Y45964000D01*
X46113600Y45964300D01*
Y45964500D01*
X46113700Y45964800D01*
Y45965000D01*
X46113800Y45965300D01*
X46113900Y45965500D01*
X46114000Y45965800D01*
X46114200Y45966000D01*
X46114300Y45966200D01*
X46114500Y45966400D01*
X46114600Y45966600D01*
X46115400Y45967400D01*
X46115600Y45967500D01*
X46115800Y45967700D01*
X46116000Y45967800D01*
X46116200Y45968000D01*
X46116500Y45968100D01*
X46116700Y45968200D01*
X46117000Y45968300D01*
X46117200D01*
X46117500Y45968400D01*
X46117700D01*
X46118000Y45968500D01*
X46278000D01*
X46278300Y45968400D01*
X46278500D01*
X46278800Y45968300D01*
X46279000D01*
X46279300Y45968200D01*
X46279500Y45968100D01*
X46279800Y45968000D01*
X46280000Y45967800D01*
X46280200Y45967700D01*
X46280400Y45967500D01*
X46280600Y45967400D01*
X46281400Y45966600D01*
X46281500Y45966400D01*
X46281700Y45966200D01*
X46281800Y45966000D01*
X46282000Y45965800D01*
X46282100Y45965500D01*
X46282200Y45965300D01*
X46282300Y45965000D01*
Y45964800D01*
X46282400Y45964500D01*
Y45964300D01*
X46282500Y45964000D01*
Y45899000D01*
X46282400Y45898700D01*
Y45898500D01*
X46282300Y45898200D01*
Y45898000D01*
X46282200Y45897700D01*
X46282100Y45897500D01*
X46282000Y45897200D01*
X46281800Y45897000D01*
X46281700Y45896800D01*
X46281500Y45896600D01*
X46281400Y45896400D01*
X46280600Y45895600D01*
X46280400Y45895500D01*
X46280200Y45895300D01*
X46280000Y45895200D01*
X46279800Y45895000D01*
X46279500Y45894900D01*
X46279300Y45894800D01*
X46279000Y45894700D01*
X46278800D01*
X46278500Y45894600D01*
X46278300D01*
X46278000Y45894500D01*
G37*
Y46021500D02*
X46118000D01*
X46117700Y46021600D01*
X46117500D01*
X46117200Y46021700D01*
X46117000D01*
X46116700Y46021800D01*
X46116500Y46021900D01*
X46116200Y46022000D01*
X46116000Y46022200D01*
X46115800Y46022300D01*
X46115600Y46022500D01*
X46115400Y46022600D01*
X46114600Y46023400D01*
X46114500Y46023600D01*
X46114300Y46023800D01*
X46114200Y46024000D01*
X46114000Y46024200D01*
X46113900Y46024500D01*
X46113800Y46024700D01*
X46113700Y46025000D01*
Y46025200D01*
X46113600Y46025500D01*
Y46025700D01*
X46113500Y46026000D01*
Y46091000D01*
X46113600Y46091300D01*
Y46091500D01*
X46113700Y46091800D01*
Y46092000D01*
X46113800Y46092300D01*
X46113900Y46092500D01*
X46114000Y46092800D01*
X46114200Y46093000D01*
X46114300Y46093200D01*
X46114500Y46093400D01*
X46114600Y46093600D01*
X46115400Y46094400D01*
X46115600Y46094500D01*
X46115800Y46094700D01*
X46116000Y46094800D01*
X46116200Y46095000D01*
X46116500Y46095100D01*
X46116700Y46095200D01*
X46117000Y46095300D01*
X46117200D01*
X46117500Y46095400D01*
X46117700D01*
X46118000Y46095500D01*
X46278000D01*
X46278300Y46095400D01*
X46278500D01*
X46278800Y46095300D01*
X46279000D01*
X46279300Y46095200D01*
X46279500Y46095100D01*
X46279800Y46095000D01*
X46280000Y46094800D01*
X46280200Y46094700D01*
X46280400Y46094500D01*
X46280600Y46094400D01*
X46281400Y46093600D01*
X46281500Y46093400D01*
X46281700Y46093200D01*
X46281800Y46093000D01*
X46282000Y46092800D01*
X46282100Y46092500D01*
X46282200Y46092300D01*
X46282300Y46092000D01*
Y46091800D01*
X46282400Y46091500D01*
Y46091300D01*
X46282500Y46091000D01*
Y46026000D01*
X46282400Y46025700D01*
Y46025500D01*
X46282300Y46025200D01*
Y46025000D01*
X46282200Y46024700D01*
X46282100Y46024500D01*
X46282000Y46024200D01*
X46281800Y46024000D01*
X46281700Y46023800D01*
X46281500Y46023600D01*
X46281400Y46023400D01*
X46280600Y46022600D01*
X46280400Y46022500D01*
X46280200Y46022300D01*
X46280000Y46022200D01*
X46279800Y46022000D01*
X46279500Y46021900D01*
X46279300Y46021800D01*
X46279000Y46021700D01*
X46278800D01*
X46278500Y46021600D01*
X46278300D01*
X46278000Y46021500D01*
G36*
X46278000Y46021500D02*
X46118000D01*
X46117700Y46021600D01*
X46117500D01*
X46117200Y46021700D01*
X46117000D01*
X46116700Y46021800D01*
X46116500Y46021900D01*
X46116200Y46022000D01*
X46116000Y46022200D01*
X46115800Y46022300D01*
X46115600Y46022500D01*
X46115400Y46022600D01*
X46114600Y46023400D01*
X46114500Y46023600D01*
X46114300Y46023800D01*
X46114200Y46024000D01*
X46114000Y46024200D01*
X46113900Y46024500D01*
X46113800Y46024700D01*
X46113700Y46025000D01*
Y46025200D01*
X46113600Y46025500D01*
Y46025700D01*
X46113500Y46026000D01*
Y46091000D01*
X46113600Y46091300D01*
Y46091500D01*
X46113700Y46091800D01*
Y46092000D01*
X46113800Y46092300D01*
X46113900Y46092500D01*
X46114000Y46092800D01*
X46114200Y46093000D01*
X46114300Y46093200D01*
X46114500Y46093400D01*
X46114600Y46093600D01*
X46115400Y46094400D01*
X46115600Y46094500D01*
X46115800Y46094700D01*
X46116000Y46094800D01*
X46116200Y46095000D01*
X46116500Y46095100D01*
X46116700Y46095200D01*
X46117000Y46095300D01*
X46117200D01*
X46117500Y46095400D01*
X46117700D01*
X46118000Y46095500D01*
X46278000D01*
X46278300Y46095400D01*
X46278500D01*
X46278800Y46095300D01*
X46279000D01*
X46279300Y46095200D01*
X46279500Y46095100D01*
X46279800Y46095000D01*
X46280000Y46094800D01*
X46280200Y46094700D01*
X46280400Y46094500D01*
X46280600Y46094400D01*
X46281400Y46093600D01*
X46281500Y46093400D01*
X46281700Y46093200D01*
X46281800Y46093000D01*
X46282000Y46092800D01*
X46282100Y46092500D01*
X46282200Y46092300D01*
X46282300Y46092000D01*
Y46091800D01*
X46282400Y46091500D01*
Y46091300D01*
X46282500Y46091000D01*
Y46026000D01*
X46282400Y46025700D01*
Y46025500D01*
X46282300Y46025200D01*
Y46025000D01*
X46282200Y46024700D01*
X46282100Y46024500D01*
X46282000Y46024200D01*
X46281800Y46024000D01*
X46281700Y46023800D01*
X46281500Y46023600D01*
X46281400Y46023400D01*
X46280600Y46022600D01*
X46280400Y46022500D01*
X46280200Y46022300D01*
X46280000Y46022200D01*
X46279800Y46022000D01*
X46279500Y46021900D01*
X46279300Y46021800D01*
X46279000Y46021700D01*
X46278800D01*
X46278500Y46021600D01*
X46278300D01*
X46278000Y46021500D01*
G37*
Y46148500D02*
X46118000D01*
X46117700Y46148600D01*
X46117500D01*
X46117200Y46148700D01*
X46117000D01*
X46116700Y46148800D01*
X46116500Y46148900D01*
X46116200Y46149000D01*
X46116000Y46149200D01*
X46115800Y46149300D01*
X46115600Y46149500D01*
X46115400Y46149600D01*
X46114600Y46150400D01*
X46114500Y46150600D01*
X46114300Y46150800D01*
X46114200Y46151000D01*
X46114000Y46151200D01*
X46113900Y46151500D01*
X46113800Y46151700D01*
X46113700Y46152000D01*
Y46152200D01*
X46113600Y46152500D01*
Y46152700D01*
X46113500Y46153000D01*
Y46218000D01*
X46113600Y46218300D01*
Y46218500D01*
X46113700Y46218800D01*
Y46219000D01*
X46113800Y46219300D01*
X46113900Y46219500D01*
X46114000Y46219800D01*
X46114200Y46220000D01*
X46114300Y46220200D01*
X46114500Y46220400D01*
X46114600Y46220600D01*
X46115400Y46221400D01*
X46115600Y46221500D01*
X46115800Y46221700D01*
X46116000Y46221800D01*
X46116200Y46222000D01*
X46116500Y46222100D01*
X46116700Y46222200D01*
X46117000Y46222300D01*
X46117200D01*
X46117500Y46222400D01*
X46117700D01*
X46118000Y46222500D01*
X46278000D01*
X46278300Y46222400D01*
X46278500D01*
X46278800Y46222300D01*
X46279000D01*
X46279300Y46222200D01*
X46279500Y46222100D01*
X46279800Y46222000D01*
X46280000Y46221800D01*
X46280200Y46221700D01*
X46280400Y46221500D01*
X46280600Y46221400D01*
X46281400Y46220600D01*
X46281500Y46220400D01*
X46281700Y46220200D01*
X46281800Y46220000D01*
X46282000Y46219800D01*
X46282100Y46219500D01*
X46282200Y46219300D01*
X46282300Y46219000D01*
Y46218800D01*
X46282400Y46218500D01*
Y46218300D01*
X46282500Y46218000D01*
Y46153000D01*
X46282400Y46152700D01*
Y46152500D01*
X46282300Y46152200D01*
Y46152000D01*
X46282200Y46151700D01*
X46282100Y46151500D01*
X46282000Y46151200D01*
X46281800Y46151000D01*
X46281700Y46150800D01*
X46281500Y46150600D01*
X46281400Y46150400D01*
X46280600Y46149600D01*
X46280400Y46149500D01*
X46280200Y46149300D01*
X46280000Y46149200D01*
X46279800Y46149000D01*
X46279500Y46148900D01*
X46279300Y46148800D01*
X46279000Y46148700D01*
X46278800D01*
X46278500Y46148600D01*
X46278300D01*
X46278000Y46148500D01*
G36*
X46278000Y46148500D02*
X46118000D01*
X46117700Y46148600D01*
X46117500D01*
X46117200Y46148700D01*
X46117000D01*
X46116700Y46148800D01*
X46116500Y46148900D01*
X46116200Y46149000D01*
X46116000Y46149200D01*
X46115800Y46149300D01*
X46115600Y46149500D01*
X46115400Y46149600D01*
X46114600Y46150400D01*
X46114500Y46150600D01*
X46114300Y46150800D01*
X46114200Y46151000D01*
X46114000Y46151200D01*
X46113900Y46151500D01*
X46113800Y46151700D01*
X46113700Y46152000D01*
Y46152200D01*
X46113600Y46152500D01*
Y46152700D01*
X46113500Y46153000D01*
Y46218000D01*
X46113600Y46218300D01*
Y46218500D01*
X46113700Y46218800D01*
Y46219000D01*
X46113800Y46219300D01*
X46113900Y46219500D01*
X46114000Y46219800D01*
X46114200Y46220000D01*
X46114300Y46220200D01*
X46114500Y46220400D01*
X46114600Y46220600D01*
X46115400Y46221400D01*
X46115600Y46221500D01*
X46115800Y46221700D01*
X46116000Y46221800D01*
X46116200Y46222000D01*
X46116500Y46222100D01*
X46116700Y46222200D01*
X46117000Y46222300D01*
X46117200D01*
X46117500Y46222400D01*
X46117700D01*
X46118000Y46222500D01*
X46278000D01*
X46278300Y46222400D01*
X46278500D01*
X46278800Y46222300D01*
X46279000D01*
X46279300Y46222200D01*
X46279500Y46222100D01*
X46279800Y46222000D01*
X46280000Y46221800D01*
X46280200Y46221700D01*
X46280400Y46221500D01*
X46280600Y46221400D01*
X46281400Y46220600D01*
X46281500Y46220400D01*
X46281700Y46220200D01*
X46281800Y46220000D01*
X46282000Y46219800D01*
X46282100Y46219500D01*
X46282200Y46219300D01*
X46282300Y46219000D01*
Y46218800D01*
X46282400Y46218500D01*
Y46218300D01*
X46282500Y46218000D01*
Y46153000D01*
X46282400Y46152700D01*
Y46152500D01*
X46282300Y46152200D01*
Y46152000D01*
X46282200Y46151700D01*
X46282100Y46151500D01*
X46282000Y46151200D01*
X46281800Y46151000D01*
X46281700Y46150800D01*
X46281500Y46150600D01*
X46281400Y46150400D01*
X46280600Y46149600D01*
X46280400Y46149500D01*
X46280200Y46149300D01*
X46280000Y46149200D01*
X46279800Y46149000D01*
X46279500Y46148900D01*
X46279300Y46148800D01*
X46279000Y46148700D01*
X46278800D01*
X46278500Y46148600D01*
X46278300D01*
X46278000Y46148500D01*
G37*
D02*
D105*
X45329540Y44493280D03*
X45769540D03*
X48179540Y44633280D03*
Y44833280D03*
Y45233280D03*
Y45433280D03*
D02*
D106*
X46376250Y46058500D03*
D02*
D107*
X44649540Y44494000D03*
X45390000Y46225000D03*
X45639540Y44893280D03*
D02*
D108*
X46597500Y45282500D03*
Y45657500D03*
X46785000Y45470000D03*
X46972500Y45282500D03*
Y45657500D03*
D02*
D109*
X45860000Y45845000D03*
Y45995000D03*
Y46145000D03*
X45990000Y45845000D03*
Y45995000D03*
Y46145000D03*
D02*
D110*
X43190000Y44225000D03*
Y47215000D03*
X48200000Y44225000D03*
Y47215000D03*
D02*
D111*
X43360000Y46035000D03*
Y46535000D03*
X43370000Y44855000D03*
Y45355000D03*
D02*
D112*
X47570000Y45365000D03*
X47580000Y44665000D03*
Y45025000D03*
X47870000Y45365000D03*
X47880000Y44665000D03*
Y45025000D03*
D02*
D113*
X44449000Y44495000D03*
X44649000Y44494000D03*
X45638540Y45293280D03*
X45640540Y44854280D03*
X45838540Y45292280D03*
X45840540Y44853280D03*
D02*
D114*
X45619540Y45073780D03*
X45808000Y46401750D03*
X45860540Y45073780D03*
X46049000Y46401750D03*
D02*
D115*
X46556250Y44762840D03*
X47014250D03*
D02*
D116*
X46785250Y45477340D03*
D02*
D117*
X46604540Y46573280D03*
X47634540D03*
D02*
D118*
X45658000Y45804500D03*
Y45931500D03*
Y46058500D03*
Y46185500D03*
X46198000Y45804500D03*
Y45931500D03*
Y46058500D03*
Y46185500D03*
D02*
D119*
X45928000Y45995000D03*
D02*
D120*
X44710000Y46320000D03*
Y46650000D03*
D02*
D121*
X44310000Y46310000D03*
Y46740000D03*
D02*
D122*
X43870000Y46147000D03*
Y46655000D03*
D02*
D123*
X44890360Y45111610D03*
Y45858510D03*
D02*
D124*
X45030000Y46321400D03*
Y46588600D03*
D02*
D125*
X45290000Y46347500D03*
Y46502500D03*
X45470000Y46347500D03*
Y46502500D03*
D02*
D126*
X43880000Y45834990D03*
X43890000Y45315000D03*
X45649540Y45573280D03*
X46039540D03*
X46120000Y46665000D03*
X46285000Y44763280D03*
X47289540D03*
X48179540Y45033280D03*
D02*
D127*
X44180000Y45131500D03*
Y45318500D03*
D02*
D128*
X44045000Y44485000D03*
X44235000D03*
D02*
D129*
X45329540Y44493280D03*
X45769540D03*
D02*
D130*
X44159540Y45625780D03*
Y45780780D03*
X0Y0D02*
M02*
