G04 DesignSpark PCB Gerber Version 12.0 Build 5942*
%FSLAX35Y35*%
%MOMM*%
%ADD111R,3.25400X3.25400*%
%ADD109C,1.05400*%
%ADD107C,1.06680*%
%ADD122C,1.47100*%
%ADD126C,1.49400*%
%ADD105C,1.67640*%
%ADD108C,1.77800*%
%AMT106*0 Rounded Rectangle Pad at angle 90*4,1,36,0.55200,-0.26440,0.55200,0.26440,0.54860,0.29850,0.53870,0.33120,0.52260,0.36140,0.50090,0.38790,0.47440,0.40960,0.44420,0.42570,0.41140,0.43560,0.37740,0.43900,-0.37740,0.43900,-0.41150,0.43560,-0.44420,0.42570,-0.47440,0.40960,-0.50090,0.38790,-0.52260,0.36140,-0.53870,0.33120,-0.54860,0.29840,-0.55200,0.26440,-0.55200,-0.26440,-0.54860,-0.29850,-0.53870,-0.33120,-0.52260,-0.36140,-0.50090,-0.38790,-0.47440,-0.40960,-0.44420,-0.42570,-0.41140,-0.43560,-0.37740,-0.43900,0.37740,-0.43900,0.41150,-0.43560,0.44420,-0.42570,0.47440,-0.40960,0.50090,-0.38790,0.52260,-0.36140,0.53870,-0.33120,0.54860,-0.29840,0.55200,-0.26440,0*%
%ADD106T106*%
%ADD110C,4.25400*%
X0Y0D02*
D02*
D105*
X45329540Y44493280D03*
X45769540D03*
X48179540Y44633280D03*
Y44833280D03*
Y45233280D03*
Y45433280D03*
D02*
D106*
X46376250Y46058500D03*
D02*
D107*
X44649540Y44494000D03*
X45390000Y46225000D03*
X45639540Y44893280D03*
D02*
D108*
X46597500Y45282500D03*
Y45657500D03*
X46785000Y45470000D03*
X46972500Y45282500D03*
Y45657500D03*
D02*
D109*
X45860000Y45845000D03*
Y45995000D03*
Y46145000D03*
X45990000Y45845000D03*
Y45995000D03*
Y46145000D03*
D02*
D110*
X43190000Y44225000D03*
Y47215000D03*
X48200000Y44225000D03*
Y47215000D03*
D02*
D111*
X43360000Y46035000D03*
Y46535000D03*
X43370000Y44855000D03*
Y45355000D03*
D02*
D122*
X43870000Y46147000D03*
Y46655000D03*
D02*
D126*
X43880000Y45834990D03*
X43890000Y45315000D03*
X45649540Y45573280D03*
X46039540D03*
X46120000Y46665000D03*
X46285000Y44763280D03*
X47289540D03*
X48179540Y45033280D03*
X0Y0D02*
M02*
